Datalegreya-Dot
<glyph name="parenleft" format="1">
  <advance width="281"/>
  <unicode hex="0028"/>
  <outline>
    <contour>
      <point x="275" y="652" type="line"/>
      <point x="266" y="663" type="line"/>
      <point x="262" y="663" type="line"/>
      <point x="141" y="576"/>
      <point x="96" y="467"/>
      <point x="95" y="260" type="curve"/>
      <point x="96" y="53"/>
      <point x="141" y="-56"/>
      <point x="262" y="-143" type="curve"/>
      <point x="266" y="-143" type="line"/>
      <point x="275" y="-132" type="line"/>
      <point x="275" y="-128" type="line"/>
      <point x="159" y="-45"/>
      <point x="116" y="60"/>
      <point x="115" y="260" type="curve"/>
      <point x="116" y="460"/>
      <point x="159" y="565"/>
      <point x="275" y="648" type="curve"/>
    </contour>
  </outline>
</glyph>
<glyph name="slash" format="1">
  <advance width="291"/>
  <unicode hex="002F"/>
  <outline>
    <contour>
      <point x="88" y="-31" type="line" smooth="yes"/>
      <point x="72" y="-31" type="line"/>
      <point x="69" y="-28" type="line"/>
      <point x="229" y="605" type="line"/>
      <point x="245" y="605" type="line"/>
      <point x="249" y="601" type="line"/>
    </contour>
  </outline>
</glyph>
<glyph name="colon" format="1">
  <advance width="230"/>
  <unicode hex="003A"/>
  <outline>
    <contour>
      <point x="111" y="372" type="line" smooth="yes"/>
      <point x="123" y="372"/>
      <point x="131" y="364"/>
      <point x="131" y="351" type="curve" smooth="yes"/>
      <point x="131" y="339"/>
      <point x="123" y="331"/>
      <point x="111" y="331" type="curve" smooth="yes"/>
      <point x="99" y="331"/>
      <point x="91" y="339"/>
      <point x="91" y="351" type="curve" smooth="yes"/>
      <point x="91" y="364"/>
      <point x="99" y="372"/>
      <point x="111" y="372" type="curve"/>
    </contour>
    <contour>
      <point x="111" y="34" type="line" smooth="yes"/>
      <point x="123" y="34"/>
      <point x="131" y="26"/>
      <point x="131" y="13" type="curve" smooth="yes"/>
      <point x="131" y="1"/>
      <point x="123" y="-7"/>
      <point x="111" y="-7" type="curve" smooth="yes"/>
      <point x="99" y="-7"/>
      <point x="91" y="1"/>
      <point x="91" y="13" type="curve" smooth="yes"/>
      <point x="91" y="26"/>
      <point x="99" y="34"/>
      <point x="111" y="34" type="curve"/>
    </contour>
  </outline>
</glyph>
<glyph name="question" format="1">
  <advance width="300"/>
  <unicode hex="003F"/>
  <outline>
    <contour>
      <point x="58" y="585" type="line" smooth="yes"/>
      <point x="204" y="573"/>
      <point x="287" y="531"/>
      <point x="287" y="438" type="curve" smooth="yes"/>
      <point x="287" y="383"/>
      <point x="240" y="342"/>
      <point x="197" y="314" type="curve" smooth="yes"/>
      <point x="128" y="267" type="line"/>
      <point x="127" y="264" type="line"/>
      <point x="132" y="153" type="line"/>
      <point x="115" y="151" type="line"/>
      <point x="112" y="156" type="line"/>
      <point x="106" y="271" type="line"/>
      <point x="111" y="281" type="line"/>
      <point x="185" y="329" type="line"/>
      <point x="230" y="358"/>
      <point x="267" y="394"/>
      <point x="267" y="436" type="curve" smooth="yes"/>
      <point x="267" y="518"/>
      <point x="190" y="557"/>
      <point x="51" y="565" type="curve" smooth="yes"/>
      <point x="49" y="568" type="line"/>
      <point x="52" y="582" type="line"/>
    </contour>
    <contour>
      <point x="131" y="34" type="line" smooth="yes"/>
      <point x="143" y="34"/>
      <point x="151" y="26"/>
      <point x="151" y="13" type="curve" smooth="yes"/>
      <point x="151" y="1"/>
      <point x="143" y="-7"/>
      <point x="131" y="-7" type="curve" smooth="yes"/>
      <point x="119" y="-7"/>
      <point x="111" y="1"/>
      <point x="111" y="13" type="curve" smooth="yes"/>
      <point x="111" y="26"/>
      <point x="119" y="34"/>
      <point x="131" y="34" type="curve"/>
    </contour>
  </outline>
</glyph>
<glyph name="C" format="1">
  <advance width="523"/>
  <unicode hex="0043"/>
  <outline>
    <contour>
      <point x="313" y="637" type="move" name="mark0"/>
    </contour>
    <contour>
      <point x="302" y="0" type="move" name="mark1"/>
    </contour>
    <contour>
      <point x="313" y="641" type="curve" smooth="yes"/>
      <point x="142" y="641"/>
      <point x="48" y="525"/>
      <point x="48" y="317" type="curve" smooth="yes"/>
      <point x="48" y="110"/>
      <point x="138" y="-5"/>
      <point x="302" y="-5" type="curve" smooth="yes"/>
      <point x="365" y="-5"/>
      <point x="433" y="19"/>
      <point x="489" y="62" type="curve"/>
      <point x="491" y="80" type="line"/>
      <point x="484" y="82" type="line"/>
      <point x="431" y="39"/>
      <point x="365" y="15"/>
      <point x="301" y="15" type="curve" smooth="yes"/>
      <point x="151" y="15"/>
      <point x="68" y="122"/>
      <point x="68" y="316" type="curve" smooth="yes"/>
      <point x="68" y="512"/>
      <point x="154" y="621"/>
      <point x="313" y="621" type="curve" smooth="yes"/>
      <point x="373" y="621"/>
      <point x="430" y="601"/>
      <point x="475" y="565" type="curve"/>
      <point x="482" y="565" type="line"/>
      <point x="489" y="582" type="line"/>
      <point x="440" y="620"/>
      <point x="376" y="641"/>
    </contour>
  </outline>
</glyph>
<glyph name="O" format="1">
  <advance width="627"/>
  <unicode hex="004F"/>
  <outline>
    <contour>
      <point x="314" y="637" type="move" name="mark0"/>
    </contour>
    <contour>
      <point x="0" y="0" type="move" name="mark1"/>
    </contour>
    <contour>
      <point x="318" y="642" type="curve" smooth="yes"/>
      <point x="144" y="642"/>
      <point x="48" y="526"/>
      <point x="48" y="317" type="curve" smooth="yes"/>
      <point x="48" y="110"/>
      <point x="141" y="-5"/>
      <point x="308" y="-5" type="curve" smooth="yes"/>
      <point x="482" y="-5"/>
      <point x="579" y="114"/>
      <point x="579" y="329" type="curve" smooth="yes"/>
      <point x="579" y="530"/>
      <point x="486" y="642"/>
    </contour>
    <contour>
      <point x="318" y="622" type="curve" smooth="yes"/>
      <point x="473" y="622"/>
      <point x="559" y="517"/>
      <point x="559" y="329" type="curve" smooth="yes"/>
      <point x="559" y="127"/>
      <point x="469" y="15"/>
      <point x="308" y="15" type="curve" smooth="yes"/>
      <point x="154" y="15"/>
      <point x="68" y="123"/>
      <point x="68" y="317" type="curve" smooth="yes"/>
      <point x="68" y="513"/>
      <point x="157" y="622"/>
    </contour>
  </outline>
</glyph>
<glyph name="P" format="1">
  <advance width="484"/>
  <unicode hex="0050"/>
  <outline>
    <contour>
      <point x="110" y="637" type="line"/>
      <point x="110" y="0" type="line"/>
      <point x="130" y="0" type="line"/>
      <point x="130" y="249" type="line"/>
      <point x="219" y="249" type="line" smooth="yes"/>
      <point x="356" y="249"/>
      <point x="432" y="324"/>
      <point x="432" y="460" type="curve" smooth="yes"/>
      <point x="432" y="575"/>
      <point x="367" y="639"/>
      <point x="251" y="639" type="curve"/>
    </contour>
    <contour>
      <point x="130" y="269" type="line"/>
      <point x="130" y="618" type="line"/>
      <point x="258" y="619" type="line"/>
      <point x="357" y="615"/>
      <point x="412" y="558"/>
      <point x="412" y="460" type="curve" smooth="yes"/>
      <point x="412" y="350"/>
      <point x="354" y="279"/>
      <point x="249" y="269" type="curve"/>
    </contour>
  </outline>
</glyph>
<glyph name="asciicircum" format="1">
  <advance width="407"/>
  <unicode hex="005E"/>
  <outline>
    <contour>
      <point x="382" y="121" type="line"/>
      <point x="222" y="487" type="line"/>
      <point x="200" y="487" type="line"/>
      <point x="196" y="484" type="line"/>
      <point x="25" y="120" type="line"/>
      <point x="39" y="113" type="line"/>
      <point x="44" y="116" type="line"/>
      <point x="208" y="462" type="line"/>
      <point x="212" y="462" type="line"/>
      <point x="365" y="112" type="line"/>
      <point x="380" y="117" type="line"/>
    </contour>
  </outline>
</glyph>
<glyph name="asciitilde" format="1">
  <advance width="480"/>
  <unicode hex="007E"/>
  <outline>
    <contour>
      <point x="147" y="279" type="curve" smooth="yes"/>
      <point x="178" y="279"/>
      <point x="293" y="238"/>
      <point x="338" y="234" type="curve"/>
      <point x="344" y="236" type="line"/>
      <point x="409" y="290" type="line"/>
      <point x="409" y="294" type="line"/>
      <point x="402" y="304" type="line"/>
      <point x="396" y="304" type="line"/>
      <point x="363" y="275"/>
      <point x="346" y="258"/>
      <point x="333" y="258" type="curve" smooth="yes"/>
      <point x="302" y="258"/>
      <point x="186" y="297"/>
      <point x="141" y="303" type="curve"/>
      <point x="135" y="300" type="line"/>
      <point x="71" y="247" type="line"/>
      <point x="71" y="242" type="line"/>
      <point x="78" y="233" type="line"/>
      <point x="84" y="233" type="line"/>
      <point x="117" y="261"/>
      <point x="134" y="279"/>
    </contour>
  </outline>
</glyph>
<glyph name="cent" format="1">
  <advance width="384"/>
  <unicode hex="00A2"/>
  <outline>
    <contour>
      <point x="361" y="102" type="line"/>
      <point x="355" y="104" type="line"/>
      <point x="321" y="78"/>
      <point x="272" y="61"/>
      <point x="228" y="61" type="curve" smooth="yes"/>
      <point x="216" y="61" type="line"/>
      <point x="252" y="481" type="line"/>
      <point x="287" y="476"/>
      <point x="321" y="461"/>
      <point x="344" y="444" type="curve"/>
      <point x="350" y="444" type="line"/>
      <point x="357" y="461" type="line"/>
      <point x="330" y="481"/>
      <point x="292" y="496"/>
      <point x="254" y="501" type="curve"/>
      <point x="266" y="645" type="line"/>
      <point x="262" y="650" type="line"/>
      <point x="246" y="650" type="line"/>
      <point x="233" y="503" type="line"/>
      <point x="228" y="503" type="line" smooth="yes"/>
      <point x="121" y="503"/>
      <point x="51" y="411"/>
      <point x="51" y="268" type="curve" smooth="yes"/>
      <point x="51" y="146"/>
      <point x="106" y="61"/>
      <point x="194" y="44" type="curve"/>
      <point x="181" y="-110" type="line"/>
      <point x="185" y="-114" type="line"/>
      <point x="200" y="-114" type="line"/>
      <point x="214" y="41" type="line"/>
      <point x="227" y="41" type="line" smooth="yes"/>
      <point x="276" y="41"/>
      <point x="325" y="59"/>
      <point x="359" y="84" type="curve"/>
    </contour>
    <contour>
      <point x="71" y="268" type="curve" smooth="yes"/>
      <point x="71" y="399"/>
      <point x="133" y="483"/>
      <point x="228" y="483" type="curve" smooth="yes"/>
      <point x="231" y="483" type="line"/>
      <point x="196" y="64" type="line"/>
      <point x="119" y="81"/>
      <point x="71" y="158"/>
    </contour>
  </outline>
</glyph>
<glyph name="dieresis" format="1">
  <advance width="390"/>
  <unicode hex="00A8"/>
  <outline>
    <contour>
      <point x="124" y="615" type="curve" smooth="yes"/>
      <point x="112" y="615"/>
      <point x="104" y="607"/>
      <point x="104" y="595" type="curve" smooth="yes"/>
      <point x="104" y="583"/>
      <point x="112" y="575"/>
      <point x="124" y="575" type="curve" smooth="yes"/>
      <point x="136" y="575"/>
      <point x="144" y="583"/>
      <point x="144" y="595" type="curve" smooth="yes"/>
      <point x="144" y="607"/>
      <point x="136" y="615"/>
    </contour>
    <contour>
      <point x="264" y="615" type="curve" smooth="yes"/>
      <point x="252" y="615"/>
      <point x="244" y="607"/>
      <point x="244" y="595" type="curve" smooth="yes"/>
      <point x="244" y="583"/>
      <point x="252" y="575"/>
      <point x="264" y="575" type="curve" smooth="yes"/>
      <point x="276" y="575"/>
      <point x="284" y="583"/>
      <point x="284" y="595" type="curve" smooth="yes"/>
      <point x="284" y="607"/>
      <point x="276" y="615"/>
    </contour>
  </outline>
</glyph>
<glyph name="logicalnot" format="1">
  <advance width="480"/>
  <unicode hex="00AC"/>
  <outline>
    <contour>
      <point x="416" y="274" type="line"/>
      <point x="410" y="280" type="line"/>
      <point x="37" y="280" type="line"/>
      <point x="35" y="263" type="line"/>
      <point x="38" y="260" type="line"/>
      <point x="396" y="260" type="line"/>
      <point x="396" y="72" type="line"/>
      <point x="399" y="69" type="line"/>
      <point x="416" y="71" type="line"/>
    </contour>
  </outline>
</glyph>
<glyph name="plusminus" format="1">
  <advance width="480"/>
  <unicode hex="00B1"/>
  <outline>
    <contour>
      <point x="250" y="468" type="line"/>
      <point x="247" y="471" type="line"/>
      <point x="230" y="469" type="line"/>
      <point x="230" y="280" type="line"/>
      <point x="41" y="280" type="line"/>
      <point x="39" y="263" type="line"/>
      <point x="42" y="260" type="line"/>
      <point x="230" y="260" type="line"/>
      <point x="230" y="72" type="line"/>
      <point x="233" y="69" type="line"/>
      <point x="250" y="71" type="line"/>
      <point x="250" y="260" type="line"/>
      <point x="439" y="260" type="line"/>
      <point x="441" y="277" type="line"/>
      <point x="438" y="280" type="line"/>
      <point x="250" y="280" type="line"/>
    </contour>
    <contour>
      <point x="441" y="-48" type="line"/>
      <point x="438" y="-45" type="line"/>
      <point x="41" y="-45" type="line"/>
      <point x="39" y="-62" type="line"/>
      <point x="42" y="-65" type="line"/>
      <point x="439" y="-65" type="line"/>
    </contour>
  </outline>
</glyph>
<glyph name="guillemetright" format="1">
  <advance width="355"/>
  <unicode hex="00BB"/>
  <outline>
    <contour>
      <point x="183" y="229" type="line"/>
      <point x="28" y="396" type="line"/>
      <point x="16" y="387" type="line"/>
      <point x="16" y="381" type="line"/>
      <point x="161" y="223" type="line"/>
      <point x="16" y="65" type="line"/>
      <point x="16" y="59" type="line"/>
      <point x="28" y="50" type="line"/>
      <point x="183" y="218" type="line"/>
    </contour>
    <contour>
      <point x="329" y="229" type="line"/>
      <point x="174" y="396" type="line"/>
      <point x="162" y="387" type="line"/>
      <point x="162" y="381" type="line"/>
      <point x="307" y="223" type="line"/>
      <point x="162" y="65" type="line"/>
      <point x="162" y="59" type="line"/>
      <point x="174" y="50" type="line"/>
      <point x="329" y="218" type="line"/>
    </contour>
  </outline>
</glyph>
<glyph name="onehalf" format="1">
  <advance width="657"/>
  <unicode hex="00BD"/>
  <outline>
    <contour>
      <point x="525" y="664" type="line"/>
      <point x="515" y="669" type="line"/>
      <point x="30" y="-77" type="line"/>
      <point x="34" y="-86" type="line"/>
      <point x="43" y="-90" type="line"/>
      <point x="528" y="656" type="line"/>
    </contour>
    <contour>
      <point x="138" y="638" type="line"/>
      <point x="135" y="642" type="line"/>
      <point x="16" y="607" type="line"/>
      <point x="16" y="591" type="line"/>
      <point x="20" y="589" type="line"/>
      <point x="118" y="616" type="line"/>
      <point x="118" y="268" type="line"/>
      <point x="138" y="268" type="line"/>
    </contour>
    <contour>
      <point x="489" y="371" type="curve" smooth="yes"/>
      <point x="443" y="371"/>
      <point x="402" y="348"/>
      <point x="373" y="312" type="curve"/>
      <point x="377" y="295" type="line"/>
      <point x="380" y="295" type="line"/>
      <point x="409" y="331"/>
      <point x="447" y="352"/>
      <point x="487" y="352" type="curve" smooth="yes"/>
      <point x="533" y="352"/>
      <point x="558" y="325"/>
      <point x="558" y="293" type="curve" smooth="yes"/>
      <point x="558" y="256"/>
      <point x="526" y="214"/>
      <point x="472" y="147" type="curve" smooth="yes"/>
      <point x="365" y="16" type="line"/>
      <point x="365" y="1" type="line"/>
      <point x="367" y="-1" type="line"/>
      <point x="396" y="0" type="line"/>
      <point x="565" y="0" type="line"/>
      <point x="630" y="-1" type="line"/>
      <point x="633" y="16" type="line"/>
      <point x="631" y="20" type="line"/>
      <point x="570" y="19" type="line"/>
      <point x="395" y="19" type="line"/>
      <point x="393" y="21" type="line"/>
      <point x="487" y="137" type="line" smooth="yes"/>
      <point x="546" y="209"/>
      <point x="579" y="254"/>
      <point x="579" y="296" type="curve" smooth="yes"/>
      <point x="579" y="340"/>
      <point x="542" y="371"/>
    </contour>
  </outline>
</glyph>
<glyph name="Ocircumflex" format="1">
  <advance width="627"/>
  <unicode hex="00D4"/>
  <outline>
    <contour>
      <point x="314" y="637" type="move" name="mark0"/>
    </contour>
    <contour>
      <point x="0" y="0" type="move" name="mark1"/>
    </contour>
    <contour>
      <point x="214" y="738" type="line"/>
      <point x="219" y="738" type="line"/>
      <point x="252" y="761"/>
      <point x="283" y="784"/>
      <point x="314" y="808" type="curve"/>
      <point x="345" y="784"/>
      <point x="376" y="761"/>
      <point x="409" y="738" type="curve"/>
      <point x="414" y="738" type="line"/>
      <point x="421" y="752" type="line"/>
      <point x="387" y="776"/>
      <point x="354" y="802"/>
      <point x="321" y="828" type="curve"/>
      <point x="305" y="828" type="line"/>
      <point x="274" y="802"/>
      <point x="241" y="776"/>
      <point x="207" y="752" type="curve"/>
    </contour>
    <contour>
      <point x="318" y="642" type="curve" smooth="yes"/>
      <point x="144" y="642"/>
      <point x="48" y="526"/>
      <point x="48" y="317" type="curve" smooth="yes"/>
      <point x="48" y="110"/>
      <point x="141" y="-5"/>
      <point x="308" y="-5" type="curve" smooth="yes"/>
      <point x="482" y="-5"/>
      <point x="579" y="114"/>
      <point x="579" y="329" type="curve" smooth="yes"/>
      <point x="579" y="530"/>
      <point x="486" y="642"/>
    </contour>
    <contour>
      <point x="318" y="622" type="curve" smooth="yes"/>
      <point x="473" y="622"/>
      <point x="559" y="517"/>
      <point x="559" y="329" type="curve" smooth="yes"/>
      <point x="559" y="127"/>
      <point x="469" y="15"/>
      <point x="308" y="15" type="curve" smooth="yes"/>
      <point x="154" y="15"/>
      <point x="68" y="123"/>
      <point x="68" y="317" type="curve" smooth="yes"/>
      <point x="68" y="513"/>
      <point x="157" y="622"/>
    </contour>
  </outline>
</glyph>
<glyph name="multiply" format="1">
  <advance width="480"/>
  <unicode hex="00D7"/>
  <outline>
    <contour>
      <point x="387" y="407" type="line"/>
      <point x="374" y="418" type="line"/>
      <point x="240" y="284" type="line"/>
      <point x="106" y="418" type="line"/>
      <point x="93" y="407" type="line"/>
      <point x="93" y="403" type="line"/>
      <point x="226" y="270" type="line"/>
      <point x="93" y="137" type="line"/>
      <point x="93" y="133" type="line"/>
      <point x="106" y="122" type="line"/>
      <point x="240" y="256" type="line"/>
      <point x="374" y="122" type="line"/>
      <point x="387" y="133" type="line"/>
      <point x="387" y="137" type="line"/>
      <point x="254" y="270" type="line"/>
      <point x="387" y="403" type="line"/>
    </contour>
  </outline>
</glyph>
<glyph name="oslash" format="1">
  <advance width="553"/>
  <unicode hex="00F8"/>
  <outline>
    <contour>
      <point x="256" y="491" type="move" name="mark0"/>
    </contour>
    <contour>
      <point x="0" y="0" type="move" name="mark1"/>
    </contour>
    <contour>
      <point x="419" y="543" type="line"/>
      <point x="417" y="548" type="line"/>
      <point x="402" y="550" type="line"/>
      <point x="371" y="480" type="line"/>
      <point x="345" y="490"/>
      <point x="315" y="495"/>
      <point x="281" y="495" type="curve" smooth="yes"/>
      <point x="137" y="495"/>
      <point x="58" y="405"/>
      <point x="58" y="244" type="curve" smooth="yes"/>
      <point x="58" y="132"/>
      <point x="96" y="55"/>
      <point x="166" y="19" type="curve"/>
      <point x="122" y="-80" type="line"/>
      <point x="124" y="-84" type="line"/>
      <point x="140" y="-87" type="line"/>
      <point x="184" y="11" type="line"/>
      <point x="209" y="1"/>
      <point x="239" y="-4"/>
      <point x="272" y="-4" type="curve" smooth="yes"/>
      <point x="415" y="-4"/>
      <point x="495" y="88"/>
      <point x="495" y="254" type="curve" smooth="yes"/>
      <point x="495" y="362"/>
      <point x="458" y="437"/>
      <point x="388" y="472" type="curve"/>
    </contour>
    <contour>
      <point x="79" y="245" type="curve" smooth="yes"/>
      <point x="79" y="394"/>
      <point x="150" y="475"/>
      <point x="280" y="475" type="curve" smooth="yes"/>
      <point x="311" y="475"/>
      <point x="338" y="470"/>
      <point x="362" y="461" type="curve"/>
      <point x="174" y="37" type="line"/>
      <point x="112" y="71"/>
      <point x="79" y="142"/>
    </contour>
    <contour>
      <point x="272" y="15" type="curve" smooth="yes"/>
      <point x="241" y="15"/>
      <point x="214" y="20"/>
      <point x="191" y="29" type="curve"/>
      <point x="379" y="453" type="line"/>
      <point x="441" y="421"/>
      <point x="475" y="352"/>
      <point x="475" y="252" type="curve" smooth="yes"/>
      <point x="475" y="99"/>
      <point x="402" y="15"/>
    </contour>
  </outline>
</glyph>
<glyph name="IJ" format="1">
  <advance width="508"/>
  <unicode hex="0132"/>
  <outline>
    <contour>
      <point x="348" y="637" type="move" name="mark0"/>
    </contour>
    <contour>
      <point x="0" y="0" type="move" name="mark1"/>
    </contour>
    <contour>
      <point x="110" y="637" type="line"/>
      <point x="110" y="0" type="line"/>
      <point x="130" y="0" type="line"/>
      <point x="130" y="637" type="line"/>
    </contour>
    <contour>
      <point x="400" y="637" type="line"/>
      <point x="251" y="637" type="line"/>
      <point x="248" y="621" type="line"/>
      <point x="252" y="617" type="line"/>
      <point x="380" y="617" type="line"/>
      <point x="380" y="113" type="line" smooth="yes"/>
      <point x="380" y="30"/>
      <point x="346" y="-25"/>
      <point x="260" y="-81" type="curve"/>
      <point x="260" y="-87" type="line"/>
      <point x="271" y="-98" type="line"/>
      <point x="364" y="-37"/>
      <point x="400" y="21"/>
      <point x="400" y="115" type="curve" smooth="yes"/>
    </contour>
  </outline>
</glyph>
<glyph name="Lcaron" format="1">
  <advance width="408"/>
  <unicode hex="013D"/>
  <outline>
    <contour>
      <point x="196" y="637" type="move" name="mark0"/>
    </contour>
    <contour>
      <point x="236" y="0" type="move" name="mark1"/>
    </contour>
    <contour>
      <point x="393" y="16" type="line"/>
      <point x="390" y="20" type="line"/>
      <point x="129" y="20" type="line"/>
      <point x="129" y="637" type="line"/>
      <point x="109" y="637" type="line"/>
      <point x="109" y="0" type="line"/>
      <point x="389" y="0" type="line"/>
    </contour>
    <contour>
      <point x="326" y="429" type="line"/>
      <point x="343" y="431" type="line"/>
      <point x="355" y="575" type="line"/>
      <point x="352" y="579" type="line"/>
      <point x="335" y="577" type="line"/>
      <point x="323" y="433" type="line"/>
    </contour>
  </outline>
</glyph>
<glyph name="florin" format="1">
  <advance width="235"/>
  <unicode hex="0192"/>
  <outline>
    <contour>
      <point x="268" y="611" type="curve" smooth="yes"/>
      <point x="192" y="611"/>
      <point x="144" y="563"/>
      <point x="134" y="476" type="curve" smooth="yes"/>
      <point x="120" y="365" type="line"/>
      <point x="53" y="365" type="line"/>
      <point x="51" y="349" type="line"/>
      <point x="55" y="345" type="line"/>
      <point x="118" y="345" type="line"/>
      <point x="98" y="185" type="line"/>
      <point x="80" y="39" type="line" smooth="yes"/>
      <point x="71" y="-38"/>
      <point x="52" y="-73"/>
      <point x="-10" y="-134" type="curve"/>
      <point x="-11" y="-139" type="line"/>
      <point x="1" y="-149" type="line"/>
      <point x="70" y="-84"/>
      <point x="90" y="-46"/>
      <point x="100" y="41" type="curve"/>
      <point x="138" y="345" type="line"/>
      <point x="255" y="345" type="line"/>
      <point x="257" y="361" type="line"/>
      <point x="254" y="365" type="line"/>
      <point x="140" y="365" type="line"/>
      <point x="154" y="476" type="line" smooth="yes"/>
      <point x="163" y="545"/>
      <point x="195" y="591"/>
      <point x="269" y="591" type="curve" smooth="yes"/>
      <point x="284" y="591"/>
      <point x="304" y="589"/>
      <point x="322" y="582" type="curve"/>
      <point x="325" y="584" type="line"/>
      <point x="330" y="603" type="line"/>
      <point x="306" y="608"/>
      <point x="287" y="611"/>
    </contour>
  </outline>
</glyph>
<glyph name="emdash" format="1">
  <advance width="972"/>
  <unicode hex="2014"/>
  <outline>
    <contour>
      <point x="987" y="261" type="line"/>
      <point x="984" y="264" type="line"/>
      <point x="-13" y="264" type="line"/>
      <point x="-15" y="247" type="line"/>
      <point x="-12" y="244" type="line"/>
      <point x="985" y="244" type="line"/>
    </contour>
  </outline>
</glyph>
<glyph name="quotesinglbase" format="1">
  <advance width="230"/>
  <unicode hex="201A"/>
  <outline>
    <contour>
      <point x="107" y="41" type="curve"/>
      <point x="101" y="38"/>
      <point x="97" y="34"/>
      <point x="94" y="30" type="curve"/>
      <point x="94" y="26" type="line"/>
      <point x="113" y="17"/>
      <point x="124" y="5"/>
      <point x="124" y="-8" type="curve" smooth="yes"/>
      <point x="124" y="-32"/>
      <point x="105" y="-60"/>
      <point x="70" y="-86" type="curve"/>
      <point x="69" y="-89" type="line"/>
      <point x="79" y="-100" type="line"/>
      <point x="122" y="-67"/>
      <point x="145" y="-34"/>
      <point x="145" y="-7" type="curve" smooth="yes"/>
      <point x="145" y="13"/>
      <point x="131" y="30"/>
    </contour>
  </outline>
</glyph>
<glyph name="quotedblleft" format="1">
  <advance width="206"/>
  <unicode hex="201C"/>
  <outline>
    <contour>
      <point x="73" y="479" type="curve"/>
      <point x="78" y="486"/>
      <point x="82" y="491"/>
      <point x="83" y="495" type="curve" smooth="yes"/>
      <point x="83" y="499" type="line"/>
      <point x="57" y="505"/>
      <point x="45" y="519"/>
      <point x="45" y="538" type="curve" smooth="yes"/>
      <point x="45" y="561"/>
      <point x="59" y="589"/>
      <point x="89" y="621" type="curve"/>
      <point x="89" y="625" type="line"/>
      <point x="76" y="636" type="line"/>
      <point x="40" y="598"/>
      <point x="23" y="563"/>
      <point x="23" y="534" type="curve" smooth="yes"/>
      <point x="23" y="506"/>
      <point x="39" y="487"/>
    </contour>
    <contour>
      <point x="168" y="479" type="curve"/>
      <point x="173" y="486"/>
      <point x="177" y="491"/>
      <point x="178" y="495" type="curve" smooth="yes"/>
      <point x="178" y="499" type="line"/>
      <point x="152" y="505"/>
      <point x="140" y="519"/>
      <point x="140" y="538" type="curve" smooth="yes"/>
      <point x="140" y="561"/>
      <point x="154" y="589"/>
      <point x="184" y="621" type="curve"/>
      <point x="184" y="625" type="line"/>
      <point x="171" y="636" type="line"/>
      <point x="135" y="598"/>
      <point x="118" y="563"/>
      <point x="118" y="534" type="curve" smooth="yes"/>
      <point x="118" y="506"/>
      <point x="134" y="487"/>
    </contour>
  </outline>
</glyph>
<glyph name="quotedblright" format="1">
  <advance width="219"/>
  <unicode hex="201D"/>
  <outline>
    <contour>
      <point x="42" y="634" type="curve"/>
      <point x="37" y="627"/>
      <point x="33" y="622"/>
      <point x="32" y="618" type="curve" smooth="yes"/>
      <point x="32" y="614" type="line"/>
      <point x="58" y="608"/>
      <point x="70" y="594"/>
      <point x="70" y="575" type="curve" smooth="yes"/>
      <point x="70" y="552"/>
      <point x="56" y="524"/>
      <point x="26" y="492" type="curve"/>
      <point x="26" y="488" type="line"/>
      <point x="39" y="477" type="line"/>
      <point x="75" y="515"/>
      <point x="92" y="550"/>
      <point x="92" y="579" type="curve" smooth="yes"/>
      <point x="92" y="607"/>
      <point x="76" y="626"/>
    </contour>
    <contour>
      <point x="137" y="634" type="curve"/>
      <point x="132" y="627"/>
      <point x="128" y="622"/>
      <point x="127" y="618" type="curve" smooth="yes"/>
      <point x="127" y="614" type="line"/>
      <point x="153" y="608"/>
      <point x="165" y="594"/>
      <point x="165" y="575" type="curve" smooth="yes"/>
      <point x="165" y="552"/>
      <point x="151" y="524"/>
      <point x="121" y="492" type="curve"/>
      <point x="121" y="488" type="line"/>
      <point x="134" y="477" type="line"/>
      <point x="170" y="515"/>
      <point x="187" y="550"/>
      <point x="187" y="579" type="curve" smooth="yes"/>
      <point x="187" y="607"/>
      <point x="171" y="626"/>
    </contour>
  </outline>
</glyph>
<glyph name="dagger" format="1">
  <advance width="461"/>
  <unicode hex="2020"/>
  <outline>
    <contour>
      <point x="415" y="374" type="line"/>
      <point x="417" y="391" type="line"/>
      <point x="414" y="394" type="line"/>
      <point x="241" y="394" type="line"/>
      <point x="241" y="586" type="line"/>
      <point x="239" y="588" type="line"/>
      <point x="221" y="586" type="line"/>
      <point x="221" y="394" type="line"/>
      <point x="47" y="394" type="line"/>
      <point x="45" y="377" type="line"/>
      <point x="48" y="374" type="line"/>
      <point x="221" y="374" type="line"/>
      <point x="221" y="-90" type="line"/>
      <point x="224" y="-94" type="line"/>
      <point x="241" y="-94" type="line"/>
      <point x="241" y="374" type="line"/>
    </contour>
  </outline>
</glyph>
<glyph name="daggerdbl" format="1">
  <advance width="461"/>
  <unicode hex="2021"/>
  <outline>
    <contour>
      <point x="414" y="120" type="line"/>
      <point x="241" y="120" type="line"/>
      <point x="241" y="374" type="line"/>
      <point x="415" y="374" type="line"/>
      <point x="417" y="391" type="line"/>
      <point x="414" y="394" type="line"/>
      <point x="241" y="394" type="line"/>
      <point x="241" y="586" type="line"/>
      <point x="239" y="588" type="line"/>
      <point x="221" y="586" type="line"/>
      <point x="221" y="394" type="line"/>
      <point x="47" y="394" type="line"/>
      <point x="45" y="377" type="line"/>
      <point x="48" y="374" type="line"/>
      <point x="221" y="374" type="line"/>
      <point x="221" y="120" type="line"/>
      <point x="47" y="120" type="line"/>
      <point x="45" y="103" type="line"/>
      <point x="48" y="100" type="line"/>
      <point x="221" y="100" type="line"/>
      <point x="221" y="-90" type="line"/>
      <point x="224" y="-94" type="line"/>
      <point x="241" y="-94" type="line"/>
      <point x="241" y="100" type="line"/>
      <point x="415" y="100" type="line"/>
      <point x="417" y="117" type="line"/>
    </contour>
  </outline>
</glyph>
<glyph name="second" format="1">
  <advance width="213"/>
  <unicode hex="2033"/>
  <outline>
    <contour>
      <point x="79" y="631" type="line"/>
      <point x="76" y="635" type="line"/>
      <point x="59" y="633" type="line"/>
      <point x="47" y="489" type="line"/>
      <point x="50" y="485" type="line"/>
      <point x="67" y="487" type="line"/>
    </contour>
    <contour>
      <point x="167" y="631" type="line"/>
      <point x="164" y="635" type="line"/>
      <point x="147" y="633" type="line"/>
      <point x="135" y="489" type="line"/>
      <point x="138" y="485" type="line"/>
      <point x="155" y="487" type="line"/>
    </contour>
  </outline>
</glyph>
<glyph name="guilsinglleft" format="1">
  <advance width="214"/>
  <unicode hex="2039"/>
  <outline>
    <contour>
      <point x="30" y="217" type="line"/>
      <point x="185" y="50" type="line"/>
      <point x="197" y="59" type="line"/>
      <point x="197" y="65" type="line"/>
      <point x="52" y="223" type="line"/>
      <point x="197" y="381" type="line"/>
      <point x="197" y="387" type="line"/>
      <point x="185" y="396" type="line"/>
      <point x="30" y="228" type="line"/>
    </contour>
  </outline>
</glyph>
<glyph name="trademark" format="1">
  <advance width="574"/>
  <unicode hex="2122"/>
  <outline>
    <contour>
      <point x="201" y="637" type="line"/>
      <point x="33" y="637" type="line"/>
      <point x="31" y="622" type="line"/>
      <point x="33" y="620" type="line"/>
      <point x="76" y="621" type="line"/>
      <point x="108" y="621" type="line"/>
      <point x="108" y="405" type="line"/>
      <point x="127" y="405" type="line"/>
      <point x="126" y="477" type="line"/>
      <point x="127" y="621" type="line"/>
      <point x="159" y="621" type="line"/>
      <point x="201" y="620" type="line"/>
      <point x="203" y="635" type="line"/>
    </contour>
    <contour>
      <point x="512" y="405" type="line"/>
      <point x="487" y="637" type="line"/>
      <point x="464" y="637" type="line"/>
      <point x="451" y="604" type="line"/>
      <point x="384" y="460" type="line"/>
      <point x="383" y="460" type="line"/>
      <point x="321" y="602" type="line"/>
      <point x="307" y="637" type="line"/>
      <point x="283" y="637" type="line"/>
      <point x="256" y="405" type="line"/>
      <point x="274" y="405" type="line"/>
      <point x="281" y="478" type="line"/>
      <point x="297" y="603" type="line"/>
      <point x="299" y="603" type="line"/>
      <point x="374" y="433" type="line"/>
      <point x="392" y="433" type="line"/>
      <point x="469" y="603" type="line"/>
      <point x="472" y="603" type="line"/>
      <point x="487" y="476" type="line"/>
      <point x="495" y="405" type="line"/>
    </contour>
  </outline>
</glyph>
<glyph name="arrowupleft" format="1">
  <advance width="500"/>
  <unicode hex="2196"/>
  <outline>
    <contour>
      <point x="435" y="75" type="line"/>
      <point x="141" y="369" type="line"/>
      <point x="379" y="371" type="line"/>
      <point x="384" y="375" type="line"/>
      <point x="379" y="391" type="line"/>
      <point x="109" y="389" type="line"/>
      <point x="107" y="387" type="line"/>
      <point x="105" y="116" type="line"/>
      <point x="121" y="112" type="line"/>
      <point x="125" y="116" type="line"/>
      <point x="127" y="355" type="line"/>
      <point x="420" y="61" type="line"/>
      <point x="435" y="73" type="line"/>
    </contour>
  </outline>
</glyph>
<glyph name="arrowdownright" format="1">
  <advance width="500"/>
  <unicode hex="2198"/>
  <outline>
    <contour>
      <point x="392" y="338" type="line"/>
      <point x="376" y="342" type="line"/>
      <point x="372" y="338" type="line"/>
      <point x="370" y="99" type="line"/>
      <point x="77" y="393" type="line"/>
      <point x="62" y="381" type="line"/>
      <point x="62" y="379" type="line"/>
      <point x="356" y="85" type="line"/>
      <point x="118" y="83" type="line"/>
      <point x="113" y="79" type="line"/>
      <point x="118" y="63" type="line"/>
      <point x="388" y="65" type="line"/>
      <point x="390" y="67" type="line"/>
    </contour>
  </outline>
</glyph>
<glyph name="summation" format="1">
  <advance width="458"/>
  <unicode hex="2211"/>
  <outline>
    <contour>
      <point x="447" y="633" type="line"/>
      <point x="443" y="638" type="line"/>
      <point x="382" y="637" type="line"/>
      <point x="40" y="637" type="line"/>
      <point x="40" y="619" type="line"/>
      <point x="254" y="324" type="line"/>
      <point x="35" y="18" type="line"/>
      <point x="35" y="0" type="line"/>
      <point x="436" y="0" type="line"/>
      <point x="439" y="16" type="line"/>
      <point x="435" y="21" type="line"/>
      <point x="366" y="20" type="line"/>
      <point x="61" y="20" type="line"/>
      <point x="277" y="320" type="line"/>
      <point x="277" y="327" type="line"/>
      <point x="66" y="617" type="line"/>
      <point x="382" y="617" type="line"/>
      <point x="444" y="616" type="line"/>
    </contour>
  </outline>
</glyph>
<glyph name="approxequal" format="1">
  <advance width="480"/>
  <unicode hex="2248"/>
  <outline>
    <contour>
      <point x="162" y="355" type="curve" smooth="yes"/>
      <point x="193" y="355"/>
      <point x="308" y="314"/>
      <point x="353" y="310" type="curve"/>
      <point x="359" y="312" type="line"/>
      <point x="424" y="366" type="line"/>
      <point x="424" y="370" type="line"/>
      <point x="417" y="380" type="line"/>
      <point x="411" y="380" type="line"/>
      <point x="378" y="351"/>
      <point x="361" y="334"/>
      <point x="348" y="334" type="curve" smooth="yes"/>
      <point x="317" y="334"/>
      <point x="201" y="373"/>
      <point x="156" y="379" type="curve"/>
      <point x="150" y="376" type="line"/>
      <point x="86" y="323" type="line"/>
      <point x="86" y="318" type="line"/>
      <point x="93" y="309" type="line"/>
      <point x="99" y="309" type="line"/>
      <point x="132" y="337"/>
      <point x="149" y="355"/>
    </contour>
    <contour>
      <point x="162" y="211" type="curve" smooth="yes"/>
      <point x="193" y="211"/>
      <point x="308" y="170"/>
      <point x="353" y="166" type="curve"/>
      <point x="359" y="168" type="line"/>
      <point x="424" y="222" type="line"/>
      <point x="424" y="226" type="line"/>
      <point x="417" y="236" type="line"/>
      <point x="411" y="236" type="line"/>
      <point x="378" y="207"/>
      <point x="361" y="190"/>
      <point x="348" y="190" type="curve" smooth="yes"/>
      <point x="317" y="190"/>
      <point x="201" y="229"/>
      <point x="156" y="235" type="curve"/>
      <point x="150" y="232" type="line"/>
      <point x="86" y="179" type="line"/>
      <point x="86" y="174" type="line"/>
      <point x="93" y="165" type="line"/>
      <point x="99" y="165" type="line"/>
      <point x="132" y="193"/>
      <point x="149" y="211"/>
    </contour>
  </outline>
</glyph>
<glyph name="lessequal" format="1">
  <advance width="480"/>
  <unicode hex="2264"/>
  <outline>
    <contour>
      <point x="439" y="441" type="line"/>
      <point x="432" y="455" type="line"/>
      <point x="43" y="284" type="line"/>
      <point x="40" y="280" type="line"/>
      <point x="40" y="258" type="line"/>
      <point x="430" y="98" type="line"/>
      <point x="434" y="100" type="line"/>
      <point x="440" y="115" type="line"/>
      <point x="66" y="268" type="line"/>
      <point x="66" y="272" type="line"/>
      <point x="436" y="436" type="line"/>
    </contour>
    <contour>
      <point x="441" y="-48" type="line"/>
      <point x="438" y="-45" type="line"/>
      <point x="41" y="-45" type="line"/>
      <point x="39" y="-62" type="line"/>
      <point x="42" y="-65" type="line"/>
      <point x="439" y="-65" type="line"/>
    </contour>
  </outline>
</glyph>
<glyph name="lozenge" format="1">
  <advance width="480"/>
  <unicode hex="25CA"/>
  <outline>
    <contour>
      <point x="241" y="638" type="line"/>
      <point x="239" y="640" type="line"/>
      <point x="224" y="640" type="line"/>
      <point x="63" y="289" type="line"/>
      <point x="63" y="275" type="line"/>
      <point x="226" y="-74" type="line"/>
      <point x="228" y="-76" type="line"/>
      <point x="243" y="-76" type="line"/>
      <point x="404" y="275" type="line"/>
      <point x="404" y="289" type="line"/>
    </contour>
    <contour>
      <point x="230" y="606" type="line"/>
      <point x="234" y="606" type="line"/>
      <point x="385" y="282" type="line"/>
      <point x="237" y="-43" type="line"/>
      <point x="233" y="-43" type="line"/>
      <point x="82" y="282" type="line"/>
    </contour>
  </outline>
</glyph>
<glyph name="a.001" format="1">
  <advance width="494"/>
  <outline>
    <contour>
      <point x="251" y="491" type="move" name="mark0"/>
    </contour>
    <contour>
      <point x="0" y="0" type="move" name="mark1"/>
    </contour>
    <contour>
      <point x="452" y="0" type="line"/>
      <point x="262" y="491" type="line"/>
      <point x="241" y="491" type="line"/>
      <point x="34" y="0" type="line"/>
      <point x="57" y="0" type="line"/>
      <point x="69" y="35" type="line"/>
      <point x="122" y="161" type="line"/>
      <point x="370" y="161" type="line"/>
      <point x="419" y="35" type="line"/>
      <point x="429" y="0" type="line"/>
    </contour>
    <contour>
      <point x="362" y="180" type="line"/>
      <point x="130" y="180" type="line"/>
      <point x="249" y="461" type="line"/>
      <point x="252" y="461" type="line"/>
    </contour>
  </outline>
</glyph>
<glyph name="a.1" format="1">
  <advance width="494"/>
  <outline>
    <contour>
      <point x="-1" y="-38" type="line"/>
      <point x="-3" y="-39"/>
      <point x="-4" y="-42"/>
      <point x="-3" y="-44" type="curve" smooth="yes"/>
      <point x="-3" y="-45"/>
      <point x="-1" y="-46"/>
      <point x="0" y="-46" type="curve" smooth="yes"/>
      <point x="1" y="-46"/>
      <point x="1" y="-46"/>
      <point x="2" y="-46" type="curve"/>
      <point x="368" y="99" type="line"/>
      <point x="365" y="107" type="line"/>
    </contour>
    <contour>
      <point x="498" y="156" type="curve" smooth="yes"/>
      <point x="497" y="158"/>
      <point x="495" y="159"/>
      <point x="493" y="158" type="curve"/>
      <point x="429" y="132" type="line"/>
      <point x="432" y="125" type="line"/>
      <point x="496" y="150" type="line"/>
      <point x="498" y="151"/>
      <point x="499" y="154"/>
    </contour>
    <contour>
      <point x="494" y="-36" type="curve" smooth="yes"/>
      <point x="491" y="-36"/>
      <point x="488" y="-39"/>
      <point x="488" y="-42" type="curve" smooth="yes"/>
      <point x="488" y="-46"/>
      <point x="491" y="-48"/>
      <point x="494" y="-48" type="curve" smooth="yes"/>
      <point x="498" y="-48"/>
      <point x="501" y="-46"/>
      <point x="501" y="-42" type="curve" smooth="yes"/>
      <point x="501" y="-39"/>
      <point x="498" y="-36"/>
    </contour>
    <contour>
      <point x="494" y="13" type="curve" smooth="yes"/>
      <point x="491" y="13"/>
      <point x="488" y="10"/>
      <point x="488" y="7" type="curve" smooth="yes"/>
      <point x="488" y="4"/>
      <point x="491" y="1"/>
      <point x="494" y="1" type="curve" smooth="yes"/>
      <point x="498" y="1"/>
      <point x="501" y="4"/>
      <point x="501" y="7" type="curve" smooth="yes"/>
      <point x="501" y="10"/>
      <point x="498" y="13"/>
    </contour>
    <contour>
      <point x="494" y="62" type="curve" smooth="yes"/>
      <point x="491" y="62"/>
      <point x="488" y="59"/>
      <point x="488" y="56" type="curve" smooth="yes"/>
      <point x="488" y="53"/>
      <point x="491" y="50"/>
      <point x="494" y="50" type="curve" smooth="yes"/>
      <point x="498" y="50"/>
      <point x="501" y="53"/>
      <point x="501" y="56" type="curve" smooth="yes"/>
      <point x="501" y="59"/>
      <point x="498" y="62"/>
    </contour>
    <contour>
      <point x="494" y="111" type="curve" smooth="yes"/>
      <point x="491" y="111"/>
      <point x="488" y="108"/>
      <point x="488" y="105" type="curve" smooth="yes"/>
      <point x="488" y="102"/>
      <point x="491" y="99"/>
      <point x="494" y="99" type="curve" smooth="yes"/>
      <point x="498" y="99"/>
      <point x="501" y="102"/>
      <point x="501" y="105" type="curve" smooth="yes"/>
      <point x="501" y="108"/>
      <point x="498" y="111"/>
    </contour>
    <contour>
      <point x="445" y="-36" type="curve" smooth="yes"/>
      <point x="442" y="-36"/>
      <point x="439" y="-39"/>
      <point x="439" y="-42" type="curve" smooth="yes"/>
      <point x="439" y="-46"/>
      <point x="442" y="-48"/>
      <point x="445" y="-48" type="curve" smooth="yes"/>
      <point x="448" y="-48"/>
      <point x="451" y="-46"/>
      <point x="451" y="-42" type="curve" smooth="yes"/>
      <point x="451" y="-39"/>
      <point x="448" y="-36"/>
    </contour>
    <contour>
      <point x="396" y="-36" type="curve" smooth="yes"/>
      <point x="392" y="-36"/>
      <point x="389" y="-39"/>
      <point x="389" y="-42" type="curve" smooth="yes"/>
      <point x="389" y="-46"/>
      <point x="392" y="-48"/>
      <point x="396" y="-48" type="curve" smooth="yes"/>
      <point x="399" y="-48"/>
      <point x="402" y="-46"/>
      <point x="402" y="-42" type="curve" smooth="yes"/>
      <point x="402" y="-39"/>
      <point x="399" y="-36"/>
    </contour>
    <contour>
      <point x="396" y="13" type="curve" smooth="yes"/>
      <point x="392" y="13"/>
      <point x="389" y="10"/>
      <point x="389" y="7" type="curve" smooth="yes"/>
      <point x="389" y="4"/>
      <point x="392" y="1"/>
      <point x="396" y="1" type="curve" smooth="yes"/>
      <point x="399" y="1"/>
      <point x="402" y="4"/>
      <point x="402" y="7" type="curve" smooth="yes"/>
      <point x="402" y="10"/>
      <point x="399" y="13"/>
    </contour>
    <contour>
      <point x="346" y="-36" type="curve" smooth="yes"/>
      <point x="343" y="-36"/>
      <point x="340" y="-39"/>
      <point x="340" y="-42" type="curve" smooth="yes"/>
      <point x="340" y="-46"/>
      <point x="343" y="-48"/>
      <point x="346" y="-48" type="curve" smooth="yes"/>
      <point x="350" y="-48"/>
      <point x="352" y="-46"/>
      <point x="352" y="-42" type="curve" smooth="yes"/>
      <point x="352" y="-39"/>
      <point x="350" y="-36"/>
    </contour>
    <contour>
      <point x="346" y="13" type="curve" smooth="yes"/>
      <point x="343" y="13"/>
      <point x="340" y="10"/>
      <point x="340" y="7" type="curve" smooth="yes"/>
      <point x="340" y="4"/>
      <point x="343" y="1"/>
      <point x="346" y="1" type="curve" smooth="yes"/>
      <point x="350" y="1"/>
      <point x="352" y="4"/>
      <point x="352" y="7" type="curve" smooth="yes"/>
      <point x="352" y="10"/>
      <point x="350" y="13"/>
    </contour>
    <contour>
      <point x="346" y="62" type="curve" smooth="yes"/>
      <point x="343" y="62"/>
      <point x="340" y="59"/>
      <point x="340" y="56" type="curve" smooth="yes"/>
      <point x="340" y="53"/>
      <point x="343" y="50"/>
      <point x="346" y="50" type="curve" smooth="yes"/>
      <point x="350" y="50"/>
      <point x="352" y="53"/>
      <point x="352" y="56" type="curve" smooth="yes"/>
      <point x="352" y="59"/>
      <point x="350" y="62"/>
    </contour>
    <contour>
      <point x="297" y="-36" type="curve" smooth="yes"/>
      <point x="293" y="-36"/>
      <point x="291" y="-39"/>
      <point x="291" y="-42" type="curve" smooth="yes"/>
      <point x="291" y="-46"/>
      <point x="293" y="-48"/>
      <point x="297" y="-48" type="curve" smooth="yes"/>
      <point x="300" y="-48"/>
      <point x="303" y="-46"/>
      <point x="303" y="-42" type="curve" smooth="yes"/>
      <point x="303" y="-39"/>
      <point x="300" y="-36"/>
    </contour>
    <contour>
      <point x="297" y="13" type="curve" smooth="yes"/>
      <point x="293" y="13"/>
      <point x="291" y="10"/>
      <point x="291" y="7" type="curve" smooth="yes"/>
      <point x="291" y="4"/>
      <point x="293" y="1"/>
      <point x="297" y="1" type="curve" smooth="yes"/>
      <point x="300" y="1"/>
      <point x="303" y="4"/>
      <point x="303" y="7" type="curve" smooth="yes"/>
      <point x="303" y="10"/>
      <point x="300" y="13"/>
    </contour>
    <contour>
      <point x="247" y="-36" type="curve" smooth="yes"/>
      <point x="244" y="-36"/>
      <point x="241" y="-39"/>
      <point x="241" y="-42" type="curve" smooth="yes"/>
      <point x="241" y="-46"/>
      <point x="244" y="-48"/>
      <point x="247" y="-48" type="curve" smooth="yes"/>
      <point x="251" y="-48"/>
      <point x="254" y="-46"/>
      <point x="254" y="-42" type="curve" smooth="yes"/>
      <point x="254" y="-39"/>
      <point x="251" y="-36"/>
    </contour>
    <contour>
      <point x="247" y="13" type="curve" smooth="yes"/>
      <point x="244" y="13"/>
      <point x="241" y="10"/>
      <point x="241" y="7" type="curve" smooth="yes"/>
      <point x="241" y="4"/>
      <point x="244" y="1"/>
      <point x="247" y="1" type="curve" smooth="yes"/>
      <point x="251" y="1"/>
      <point x="254" y="4"/>
      <point x="254" y="7" type="curve" smooth="yes"/>
      <point x="254" y="10"/>
      <point x="251" y="13"/>
    </contour>
    <contour>
      <point x="198" y="-36" type="curve" smooth="yes"/>
      <point x="195" y="-36"/>
      <point x="192" y="-39"/>
      <point x="192" y="-42" type="curve" smooth="yes"/>
      <point x="192" y="-46"/>
      <point x="195" y="-48"/>
      <point x="198" y="-48" type="curve" smooth="yes"/>
      <point x="201" y="-48"/>
      <point x="204" y="-46"/>
      <point x="204" y="-42" type="curve" smooth="yes"/>
      <point x="204" y="-39"/>
      <point x="201" y="-36"/>
    </contour>
    <contour>
      <point x="149" y="-36" type="curve" smooth="yes"/>
      <point x="145" y="-36"/>
      <point x="142" y="-39"/>
      <point x="142" y="-42" type="curve" smooth="yes"/>
      <point x="142" y="-46"/>
      <point x="145" y="-48"/>
      <point x="149" y="-48" type="curve" smooth="yes"/>
      <point x="152" y="-48"/>
      <point x="155" y="-46"/>
      <point x="155" y="-42" type="curve" smooth="yes"/>
      <point x="155" y="-39"/>
      <point x="152" y="-36"/>
    </contour>
    <contour>
      <point x="99" y="-36" type="curve" smooth="yes"/>
      <point x="96" y="-36"/>
      <point x="93" y="-39"/>
      <point x="93" y="-42" type="curve" smooth="yes"/>
      <point x="93" y="-46"/>
      <point x="96" y="-48"/>
      <point x="99" y="-48" type="curve" smooth="yes"/>
      <point x="103" y="-48"/>
      <point x="105" y="-46"/>
      <point x="105" y="-42" type="curve" smooth="yes"/>
      <point x="105" y="-39"/>
      <point x="103" y="-36"/>
    </contour>
    <contour>
      <point x="69" y="36" type="line"/>
      <point x="113" y="142" type="line"/>
      <point x="379" y="142" type="line"/>
      <point x="419" y="36" type="line"/>
      <point x="429" y="0" type="line"/>
      <point x="452" y="0" type="line"/>
      <point x="397" y="149" type="line"/>
      <point x="262" y="506" type="line"/>
      <point x="241" y="506" type="line"/>
      <point x="34" y="0" type="line"/>
      <point x="57" y="0" type="line"/>
    </contour>
    <contour>
      <point x="249" y="475" type="line"/>
      <point x="252" y="475" type="line"/>
      <point x="372" y="161" type="line"/>
      <point x="121" y="161" type="line"/>
    </contour>
  </outline>
</glyph>
<glyph name="a.2.0" format="1">
  <advance width="494"/>
  <outline>
    <contour>
      <point x="497" y="-39" type="curve"/>
      <point x="455" y="-5" type="line"/>
      <point x="262" y="506" type="line"/>
      <point x="241" y="506" type="line"/>
      <point x="136" y="249" type="line"/>
      <point x="3" y="354" type="line"/>
      <point x="1" y="355"/>
      <point x="-1" y="355"/>
      <point x="-3" y="353" type="curve" smooth="yes"/>
      <point x="-4" y="351"/>
      <point x="-4" y="349"/>
      <point x="-2" y="347" type="curve"/>
      <point x="132" y="240" type="line"/>
      <point x="34" y="1" type="line"/>
      <point x="57" y="1" type="line"/>
      <point x="69" y="37" type="line"/>
      <point x="113" y="143" type="line"/>
      <point x="198" y="143" type="line"/>
      <point x="174" y="162" type="line"/>
      <point x="121" y="162" type="line"/>
      <point x="148" y="228" type="line"/>
      <point x="492" y="-46" type="line"/>
      <point x="493" y="-46"/>
      <point x="493" y="-47"/>
      <point x="494" y="-47" type="curve" smooth="yes"/>
      <point x="496" y="-47"/>
      <point x="497" y="-46"/>
      <point x="498" y="-45" type="curve" smooth="yes"/>
      <point x="499" y="-43"/>
      <point x="499" y="-40"/>
    </contour>
    <contour>
      <point x="419" y="37" type="line"/>
      <point x="425" y="19" type="line"/>
      <point x="269" y="143" type="line"/>
      <point x="379" y="143" type="line"/>
    </contour>
    <contour>
      <point x="249" y="475" type="line"/>
      <point x="252" y="475" type="line"/>
      <point x="372" y="162" type="line"/>
      <point x="244" y="162" type="line"/>
      <point x="151" y="236" type="line"/>
    </contour>
    <contour>
      <point x="445" y="-36" type="curve" smooth="yes"/>
      <point x="442" y="-36"/>
      <point x="439" y="-39"/>
      <point x="439" y="-42" type="curve" smooth="yes"/>
      <point x="439" y="-46"/>
      <point x="442" y="-48"/>
      <point x="445" y="-48" type="curve" smooth="yes"/>
      <point x="448" y="-48"/>
      <point x="451" y="-46"/>
      <point x="451" y="-42" type="curve" smooth="yes"/>
      <point x="451" y="-39"/>
      <point x="448" y="-36"/>
    </contour>
    <contour>
      <point x="396" y="-36" type="curve" smooth="yes"/>
      <point x="392" y="-36"/>
      <point x="389" y="-39"/>
      <point x="389" y="-42" type="curve" smooth="yes"/>
      <point x="389" y="-46"/>
      <point x="392" y="-48"/>
      <point x="396" y="-48" type="curve" smooth="yes"/>
      <point x="399" y="-48"/>
      <point x="402" y="-46"/>
      <point x="402" y="-42" type="curve" smooth="yes"/>
      <point x="402" y="-39"/>
      <point x="399" y="-36"/>
    </contour>
    <contour>
      <point x="346" y="-36" type="curve" smooth="yes"/>
      <point x="343" y="-36"/>
      <point x="340" y="-39"/>
      <point x="340" y="-42" type="curve" smooth="yes"/>
      <point x="340" y="-46"/>
      <point x="343" y="-48"/>
      <point x="346" y="-48" type="curve" smooth="yes"/>
      <point x="350" y="-48"/>
      <point x="352" y="-46"/>
      <point x="352" y="-42" type="curve" smooth="yes"/>
      <point x="352" y="-39"/>
      <point x="350" y="-36"/>
    </contour>
    <contour>
      <point x="346" y="13" type="curve" smooth="yes"/>
      <point x="343" y="13"/>
      <point x="340" y="10"/>
      <point x="340" y="7" type="curve" smooth="yes"/>
      <point x="340" y="4"/>
      <point x="343" y="1"/>
      <point x="346" y="1" type="curve" smooth="yes"/>
      <point x="350" y="1"/>
      <point x="352" y="4"/>
      <point x="352" y="7" type="curve" smooth="yes"/>
      <point x="352" y="10"/>
      <point x="350" y="13"/>
    </contour>
    <contour>
      <point x="297" y="-36" type="curve" smooth="yes"/>
      <point x="293" y="-36"/>
      <point x="291" y="-39"/>
      <point x="291" y="-42" type="curve" smooth="yes"/>
      <point x="291" y="-46"/>
      <point x="293" y="-48"/>
      <point x="297" y="-48" type="curve" smooth="yes"/>
      <point x="300" y="-48"/>
      <point x="303" y="-46"/>
      <point x="303" y="-42" type="curve" smooth="yes"/>
      <point x="303" y="-39"/>
      <point x="300" y="-36"/>
    </contour>
    <contour>
      <point x="297" y="13" type="curve" smooth="yes"/>
      <point x="293" y="13"/>
      <point x="291" y="10"/>
      <point x="291" y="7" type="curve" smooth="yes"/>
      <point x="291" y="4"/>
      <point x="293" y="1"/>
      <point x="297" y="1" type="curve" smooth="yes"/>
      <point x="300" y="1"/>
      <point x="303" y="4"/>
      <point x="303" y="7" type="curve" smooth="yes"/>
      <point x="303" y="10"/>
      <point x="300" y="13"/>
    </contour>
    <contour>
      <point x="297" y="62" type="curve" smooth="yes"/>
      <point x="293" y="62"/>
      <point x="291" y="59"/>
      <point x="291" y="56" type="curve" smooth="yes"/>
      <point x="291" y="53"/>
      <point x="293" y="50"/>
      <point x="297" y="50" type="curve" smooth="yes"/>
      <point x="300" y="50"/>
      <point x="303" y="53"/>
      <point x="303" y="56" type="curve" smooth="yes"/>
      <point x="303" y="59"/>
      <point x="300" y="62"/>
    </contour>
    <contour>
      <point x="247" y="-36" type="curve" smooth="yes"/>
      <point x="244" y="-36"/>
      <point x="241" y="-39"/>
      <point x="241" y="-42" type="curve" smooth="yes"/>
      <point x="241" y="-46"/>
      <point x="244" y="-48"/>
      <point x="247" y="-48" type="curve" smooth="yes"/>
      <point x="251" y="-48"/>
      <point x="254" y="-46"/>
      <point x="254" y="-42" type="curve" smooth="yes"/>
      <point x="254" y="-39"/>
      <point x="251" y="-36"/>
    </contour>
    <contour>
      <point x="247" y="13" type="curve" smooth="yes"/>
      <point x="244" y="13"/>
      <point x="241" y="10"/>
      <point x="241" y="7" type="curve" smooth="yes"/>
      <point x="241" y="4"/>
      <point x="244" y="1"/>
      <point x="247" y="1" type="curve" smooth="yes"/>
      <point x="251" y="1"/>
      <point x="254" y="4"/>
      <point x="254" y="7" type="curve" smooth="yes"/>
      <point x="254" y="10"/>
      <point x="251" y="13"/>
    </contour>
    <contour>
      <point x="247" y="62" type="curve" smooth="yes"/>
      <point x="244" y="62"/>
      <point x="241" y="59"/>
      <point x="241" y="56" type="curve" smooth="yes"/>
      <point x="241" y="53"/>
      <point x="244" y="50"/>
      <point x="247" y="50" type="curve" smooth="yes"/>
      <point x="251" y="50"/>
      <point x="254" y="53"/>
      <point x="254" y="56" type="curve" smooth="yes"/>
      <point x="254" y="59"/>
      <point x="251" y="62"/>
    </contour>
    <contour>
      <point x="247" y="111" type="curve" smooth="yes"/>
      <point x="244" y="111"/>
      <point x="241" y="108"/>
      <point x="241" y="105" type="curve" smooth="yes"/>
      <point x="241" y="102"/>
      <point x="244" y="99"/>
      <point x="247" y="99" type="curve" smooth="yes"/>
      <point x="251" y="99"/>
      <point x="254" y="102"/>
      <point x="254" y="105" type="curve" smooth="yes"/>
      <point x="254" y="108"/>
      <point x="251" y="111"/>
    </contour>
    <contour>
      <point x="198" y="-36" type="curve" smooth="yes"/>
      <point x="195" y="-36"/>
      <point x="192" y="-39"/>
      <point x="192" y="-42" type="curve" smooth="yes"/>
      <point x="192" y="-46"/>
      <point x="195" y="-48"/>
      <point x="198" y="-48" type="curve" smooth="yes"/>
      <point x="201" y="-48"/>
      <point x="204" y="-46"/>
      <point x="204" y="-42" type="curve" smooth="yes"/>
      <point x="204" y="-39"/>
      <point x="201" y="-36"/>
    </contour>
    <contour>
      <point x="198" y="13" type="curve" smooth="yes"/>
      <point x="195" y="13"/>
      <point x="192" y="10"/>
      <point x="192" y="7" type="curve" smooth="yes"/>
      <point x="192" y="4"/>
      <point x="195" y="1"/>
      <point x="198" y="1" type="curve" smooth="yes"/>
      <point x="201" y="1"/>
      <point x="204" y="4"/>
      <point x="204" y="7" type="curve" smooth="yes"/>
      <point x="204" y="10"/>
      <point x="201" y="13"/>
    </contour>
    <contour>
      <point x="198" y="62" type="curve" smooth="yes"/>
      <point x="195" y="62"/>
      <point x="192" y="59"/>
      <point x="192" y="56" type="curve" smooth="yes"/>
      <point x="192" y="53"/>
      <point x="195" y="50"/>
      <point x="198" y="50" type="curve" smooth="yes"/>
      <point x="201" y="50"/>
      <point x="204" y="53"/>
      <point x="204" y="56" type="curve" smooth="yes"/>
      <point x="204" y="59"/>
      <point x="201" y="62"/>
    </contour>
    <contour>
      <point x="198" y="111" type="curve" smooth="yes"/>
      <point x="195" y="111"/>
      <point x="192" y="108"/>
      <point x="192" y="105" type="curve" smooth="yes"/>
      <point x="192" y="102"/>
      <point x="195" y="99"/>
      <point x="198" y="99" type="curve" smooth="yes"/>
      <point x="201" y="99"/>
      <point x="204" y="102"/>
      <point x="204" y="105" type="curve" smooth="yes"/>
      <point x="204" y="108"/>
      <point x="201" y="111"/>
    </contour>
    <contour>
      <point x="149" y="-36" type="curve" smooth="yes"/>
      <point x="145" y="-36"/>
      <point x="142" y="-39"/>
      <point x="142" y="-42" type="curve" smooth="yes"/>
      <point x="142" y="-46"/>
      <point x="145" y="-48"/>
      <point x="149" y="-48" type="curve" smooth="yes"/>
      <point x="152" y="-48"/>
      <point x="155" y="-46"/>
      <point x="155" y="-42" type="curve" smooth="yes"/>
      <point x="155" y="-39"/>
      <point x="152" y="-36"/>
    </contour>
    <contour>
      <point x="149" y="13" type="curve" smooth="yes"/>
      <point x="145" y="13"/>
      <point x="142" y="10"/>
      <point x="142" y="7" type="curve" smooth="yes"/>
      <point x="142" y="4"/>
      <point x="145" y="1"/>
      <point x="149" y="1" type="curve" smooth="yes"/>
      <point x="152" y="1"/>
      <point x="155" y="4"/>
      <point x="155" y="7" type="curve" smooth="yes"/>
      <point x="155" y="10"/>
      <point x="152" y="13"/>
    </contour>
    <contour>
      <point x="149" y="62" type="curve" smooth="yes"/>
      <point x="145" y="62"/>
      <point x="142" y="59"/>
      <point x="142" y="56" type="curve" smooth="yes"/>
      <point x="142" y="53"/>
      <point x="145" y="50"/>
      <point x="149" y="50" type="curve" smooth="yes"/>
      <point x="152" y="50"/>
      <point x="155" y="53"/>
      <point x="155" y="56" type="curve" smooth="yes"/>
      <point x="155" y="59"/>
      <point x="152" y="62"/>
    </contour>
    <contour>
      <point x="149" y="111" type="curve" smooth="yes"/>
      <point x="145" y="111"/>
      <point x="142" y="108"/>
      <point x="142" y="105" type="curve" smooth="yes"/>
      <point x="142" y="102"/>
      <point x="145" y="99"/>
      <point x="149" y="99" type="curve" smooth="yes"/>
      <point x="152" y="99"/>
      <point x="155" y="102"/>
      <point x="155" y="105" type="curve" smooth="yes"/>
      <point x="155" y="108"/>
      <point x="152" y="111"/>
    </contour>
    <contour>
      <point x="99" y="-36" type="curve" smooth="yes"/>
      <point x="96" y="-36"/>
      <point x="93" y="-39"/>
      <point x="93" y="-42" type="curve" smooth="yes"/>
      <point x="93" y="-46"/>
      <point x="96" y="-48"/>
      <point x="99" y="-48" type="curve" smooth="yes"/>
      <point x="103" y="-48"/>
      <point x="105" y="-46"/>
      <point x="105" y="-42" type="curve" smooth="yes"/>
      <point x="105" y="-39"/>
      <point x="103" y="-36"/>
    </contour>
    <contour>
      <point x="99" y="13" type="curve" smooth="yes"/>
      <point x="96" y="13"/>
      <point x="93" y="10"/>
      <point x="93" y="7" type="curve" smooth="yes"/>
      <point x="93" y="4"/>
      <point x="96" y="1"/>
      <point x="99" y="1" type="curve" smooth="yes"/>
      <point x="103" y="1"/>
      <point x="105" y="4"/>
      <point x="105" y="7" type="curve" smooth="yes"/>
      <point x="105" y="10"/>
      <point x="103" y="13"/>
    </contour>
    <contour>
      <point x="99" y="62" type="curve" smooth="yes"/>
      <point x="96" y="62"/>
      <point x="93" y="59"/>
      <point x="93" y="56" type="curve" smooth="yes"/>
      <point x="93" y="53"/>
      <point x="96" y="50"/>
      <point x="99" y="50" type="curve" smooth="yes"/>
      <point x="103" y="50"/>
      <point x="105" y="53"/>
      <point x="105" y="56" type="curve" smooth="yes"/>
      <point x="105" y="59"/>
      <point x="103" y="62"/>
    </contour>
    <contour>
      <point x="50" y="-36" type="curve" smooth="yes"/>
      <point x="46" y="-36"/>
      <point x="44" y="-39"/>
      <point x="44" y="-42" type="curve" smooth="yes"/>
      <point x="44" y="-46"/>
      <point x="46" y="-48"/>
      <point x="50" y="-48" type="curve" smooth="yes"/>
      <point x="53" y="-48"/>
      <point x="56" y="-46"/>
      <point x="56" y="-42" type="curve" smooth="yes"/>
      <point x="56" y="-39"/>
      <point x="53" y="-36"/>
    </contour>
    <contour>
      <point x="50" y="111" type="curve" smooth="yes"/>
      <point x="46" y="111"/>
      <point x="44" y="108"/>
      <point x="44" y="105" type="curve" smooth="yes"/>
      <point x="44" y="102"/>
      <point x="46" y="99"/>
      <point x="50" y="99" type="curve" smooth="yes"/>
      <point x="53" y="99"/>
      <point x="56" y="102"/>
      <point x="56" y="105" type="curve" smooth="yes"/>
      <point x="56" y="108"/>
      <point x="53" y="111"/>
    </contour>
    <contour>
      <point x="50" y="160" type="curve" smooth="yes"/>
      <point x="46" y="160"/>
      <point x="44" y="158"/>
      <point x="44" y="154" type="curve" smooth="yes"/>
      <point x="44" y="151"/>
      <point x="46" y="148"/>
      <point x="50" y="148" type="curve" smooth="yes"/>
      <point x="53" y="148"/>
      <point x="56" y="151"/>
      <point x="56" y="154" type="curve" smooth="yes"/>
      <point x="56" y="158"/>
      <point x="53" y="160"/>
    </contour>
    <contour>
      <point x="50" y="209" type="curve" smooth="yes"/>
      <point x="46" y="209"/>
      <point x="44" y="207"/>
      <point x="44" y="203" type="curve" smooth="yes"/>
      <point x="44" y="200"/>
      <point x="46" y="197"/>
      <point x="50" y="197" type="curve" smooth="yes"/>
      <point x="53" y="197"/>
      <point x="56" y="200"/>
      <point x="56" y="203" type="curve" smooth="yes"/>
      <point x="56" y="207"/>
      <point x="53" y="209"/>
    </contour>
    <contour>
      <point x="50" y="258" type="curve" smooth="yes"/>
      <point x="46" y="258"/>
      <point x="44" y="256"/>
      <point x="44" y="252" type="curve" smooth="yes"/>
      <point x="44" y="249"/>
      <point x="46" y="246"/>
      <point x="50" y="246" type="curve" smooth="yes"/>
      <point x="53" y="246"/>
      <point x="56" y="249"/>
      <point x="56" y="252" type="curve" smooth="yes"/>
      <point x="56" y="256"/>
      <point x="53" y="258"/>
    </contour>
  </outline>
</glyph>
<glyph name="a.2.2" format="1">
  <advance width="494"/>
  <outline>
    <contour>
      <point x="241" y="506" type="line"/>
      <point x="180" y="355" type="line"/>
      <point x="0" y="355" type="line"/>
      <point x="-2" y="355"/>
      <point x="-4" y="353"/>
      <point x="-4" y="351" type="curve" smooth="yes"/>
      <point x="-4" y="348"/>
      <point x="-2" y="347"/>
      <point x="0" y="347" type="curve"/>
      <point x="274" y="347" type="line"/>
      <point x="271" y="355" type="line"/>
      <point x="200" y="355" type="line"/>
      <point x="249" y="475" type="line"/>
      <point x="252" y="475" type="line"/>
      <point x="372" y="161" type="line"/>
      <point x="121" y="161" type="line"/>
      <point x="184" y="316" type="line"/>
      <point x="164" y="316" type="line"/>
      <point x="34" y="0" type="line"/>
      <point x="57" y="0" type="line"/>
      <point x="69" y="36" type="line"/>
      <point x="113" y="141" type="line"/>
      <point x="379" y="141" type="line"/>
      <point x="419" y="36" type="line"/>
      <point x="429" y="0" type="line"/>
      <point x="452" y="0" type="line"/>
      <point x="262" y="506" type="line"/>
    </contour>
    <contour>
      <point x="494" y="355" type="curve"/>
      <point x="346" y="355" type="line"/>
      <point x="349" y="347" type="line"/>
      <point x="494" y="347" type="line"/>
      <point x="497" y="347"/>
      <point x="498" y="348"/>
      <point x="498" y="351" type="curve" smooth="yes"/>
      <point x="498" y="353"/>
      <point x="497" y="355"/>
    </contour>
    <contour>
      <point x="494" y="-36" type="curve" smooth="yes"/>
      <point x="491" y="-36"/>
      <point x="488" y="-39"/>
      <point x="488" y="-42" type="curve" smooth="yes"/>
      <point x="488" y="-46"/>
      <point x="491" y="-48"/>
      <point x="494" y="-48" type="curve" smooth="yes"/>
      <point x="498" y="-48"/>
      <point x="501" y="-46"/>
      <point x="501" y="-42" type="curve" smooth="yes"/>
      <point x="501" y="-39"/>
      <point x="498" y="-36"/>
    </contour>
    <contour>
      <point x="494" y="13" type="curve" smooth="yes"/>
      <point x="491" y="13"/>
      <point x="488" y="10"/>
      <point x="488" y="7" type="curve" smooth="yes"/>
      <point x="488" y="4"/>
      <point x="491" y="1"/>
      <point x="494" y="1" type="curve" smooth="yes"/>
      <point x="498" y="1"/>
      <point x="501" y="4"/>
      <point x="501" y="7" type="curve" smooth="yes"/>
      <point x="501" y="10"/>
      <point x="498" y="13"/>
    </contour>
    <contour>
      <point x="494" y="62" type="curve" smooth="yes"/>
      <point x="491" y="62"/>
      <point x="488" y="59"/>
      <point x="488" y="56" type="curve" smooth="yes"/>
      <point x="488" y="53"/>
      <point x="491" y="50"/>
      <point x="494" y="50" type="curve" smooth="yes"/>
      <point x="498" y="50"/>
      <point x="501" y="53"/>
      <point x="501" y="56" type="curve" smooth="yes"/>
      <point x="501" y="59"/>
      <point x="498" y="62"/>
    </contour>
    <contour>
      <point x="494" y="111" type="curve" smooth="yes"/>
      <point x="491" y="111"/>
      <point x="488" y="108"/>
      <point x="488" y="105" type="curve" smooth="yes"/>
      <point x="488" y="102"/>
      <point x="491" y="99"/>
      <point x="494" y="99" type="curve" smooth="yes"/>
      <point x="498" y="99"/>
      <point x="501" y="102"/>
      <point x="501" y="105" type="curve" smooth="yes"/>
      <point x="501" y="108"/>
      <point x="498" y="111"/>
    </contour>
    <contour>
      <point x="494" y="160" type="curve" smooth="yes"/>
      <point x="491" y="160"/>
      <point x="488" y="158"/>
      <point x="488" y="154" type="curve" smooth="yes"/>
      <point x="488" y="151"/>
      <point x="491" y="148"/>
      <point x="494" y="148" type="curve" smooth="yes"/>
      <point x="498" y="148"/>
      <point x="501" y="151"/>
      <point x="501" y="154" type="curve" smooth="yes"/>
      <point x="501" y="158"/>
      <point x="498" y="160"/>
    </contour>
    <contour>
      <point x="494" y="209" type="curve" smooth="yes"/>
      <point x="491" y="209"/>
      <point x="488" y="207"/>
      <point x="488" y="203" type="curve" smooth="yes"/>
      <point x="488" y="200"/>
      <point x="491" y="197"/>
      <point x="494" y="197" type="curve" smooth="yes"/>
      <point x="498" y="197"/>
      <point x="501" y="200"/>
      <point x="501" y="203" type="curve" smooth="yes"/>
      <point x="501" y="207"/>
      <point x="498" y="209"/>
    </contour>
    <contour>
      <point x="494" y="258" type="curve" smooth="yes"/>
      <point x="491" y="258"/>
      <point x="488" y="256"/>
      <point x="488" y="252" type="curve" smooth="yes"/>
      <point x="488" y="249"/>
      <point x="491" y="246"/>
      <point x="494" y="246" type="curve" smooth="yes"/>
      <point x="498" y="246"/>
      <point x="501" y="249"/>
      <point x="501" y="252" type="curve" smooth="yes"/>
      <point x="501" y="256"/>
      <point x="498" y="258"/>
    </contour>
    <contour>
      <point x="494" y="308" type="curve" smooth="yes"/>
      <point x="491" y="308"/>
      <point x="488" y="305"/>
      <point x="488" y="301" type="curve" smooth="yes"/>
      <point x="488" y="298"/>
      <point x="491" y="295"/>
      <point x="494" y="295" type="curve" smooth="yes"/>
      <point x="498" y="295"/>
      <point x="501" y="298"/>
      <point x="501" y="301" type="curve" smooth="yes"/>
      <point x="501" y="305"/>
      <point x="498" y="308"/>
    </contour>
    <contour>
      <point x="445" y="-36" type="curve" smooth="yes"/>
      <point x="442" y="-36"/>
      <point x="439" y="-39"/>
      <point x="439" y="-42" type="curve" smooth="yes"/>
      <point x="439" y="-46"/>
      <point x="442" y="-48"/>
      <point x="445" y="-48" type="curve" smooth="yes"/>
      <point x="448" y="-48"/>
      <point x="451" y="-46"/>
      <point x="451" y="-42" type="curve" smooth="yes"/>
      <point x="451" y="-39"/>
      <point x="448" y="-36"/>
    </contour>
    <contour>
      <point x="445" y="111" type="curve" smooth="yes"/>
      <point x="442" y="111"/>
      <point x="439" y="108"/>
      <point x="439" y="105" type="curve" smooth="yes"/>
      <point x="439" y="102"/>
      <point x="442" y="99"/>
      <point x="445" y="99" type="curve" smooth="yes"/>
      <point x="448" y="99"/>
      <point x="451" y="102"/>
      <point x="451" y="105" type="curve" smooth="yes"/>
      <point x="451" y="108"/>
      <point x="448" y="111"/>
    </contour>
    <contour>
      <point x="445" y="160" type="curve" smooth="yes"/>
      <point x="442" y="160"/>
      <point x="439" y="158"/>
      <point x="439" y="154" type="curve" smooth="yes"/>
      <point x="439" y="151"/>
      <point x="442" y="148"/>
      <point x="445" y="148" type="curve" smooth="yes"/>
      <point x="448" y="148"/>
      <point x="451" y="151"/>
      <point x="451" y="154" type="curve" smooth="yes"/>
      <point x="451" y="158"/>
      <point x="448" y="160"/>
    </contour>
    <contour>
      <point x="445" y="209" type="curve" smooth="yes"/>
      <point x="442" y="209"/>
      <point x="439" y="207"/>
      <point x="439" y="203" type="curve" smooth="yes"/>
      <point x="439" y="200"/>
      <point x="442" y="197"/>
      <point x="445" y="197" type="curve" smooth="yes"/>
      <point x="448" y="197"/>
      <point x="451" y="200"/>
      <point x="451" y="203" type="curve" smooth="yes"/>
      <point x="451" y="207"/>
      <point x="448" y="209"/>
    </contour>
    <contour>
      <point x="445" y="258" type="curve" smooth="yes"/>
      <point x="442" y="258"/>
      <point x="439" y="256"/>
      <point x="439" y="252" type="curve" smooth="yes"/>
      <point x="439" y="249"/>
      <point x="442" y="246"/>
      <point x="445" y="246" type="curve" smooth="yes"/>
      <point x="448" y="246"/>
      <point x="451" y="249"/>
      <point x="451" y="252" type="curve" smooth="yes"/>
      <point x="451" y="256"/>
      <point x="448" y="258"/>
    </contour>
    <contour>
      <point x="445" y="308" type="curve" smooth="yes"/>
      <point x="442" y="308"/>
      <point x="439" y="305"/>
      <point x="439" y="301" type="curve" smooth="yes"/>
      <point x="439" y="298"/>
      <point x="442" y="295"/>
      <point x="445" y="295" type="curve" smooth="yes"/>
      <point x="448" y="295"/>
      <point x="451" y="298"/>
      <point x="451" y="301" type="curve" smooth="yes"/>
      <point x="451" y="305"/>
      <point x="448" y="308"/>
    </contour>
    <contour>
      <point x="396" y="-36" type="curve" smooth="yes"/>
      <point x="392" y="-36"/>
      <point x="389" y="-39"/>
      <point x="389" y="-42" type="curve" smooth="yes"/>
      <point x="389" y="-46"/>
      <point x="392" y="-48"/>
      <point x="396" y="-48" type="curve" smooth="yes"/>
      <point x="399" y="-48"/>
      <point x="402" y="-46"/>
      <point x="402" y="-42" type="curve" smooth="yes"/>
      <point x="402" y="-39"/>
      <point x="399" y="-36"/>
    </contour>
    <contour>
      <point x="396" y="13" type="curve" smooth="yes"/>
      <point x="392" y="13"/>
      <point x="389" y="10"/>
      <point x="389" y="7" type="curve" smooth="yes"/>
      <point x="389" y="4"/>
      <point x="392" y="1"/>
      <point x="396" y="1" type="curve" smooth="yes"/>
      <point x="399" y="1"/>
      <point x="402" y="4"/>
      <point x="402" y="7" type="curve" smooth="yes"/>
      <point x="402" y="10"/>
      <point x="399" y="13"/>
    </contour>
    <contour>
      <point x="396" y="258" type="curve" smooth="yes"/>
      <point x="392" y="258"/>
      <point x="389" y="256"/>
      <point x="389" y="252" type="curve" smooth="yes"/>
      <point x="389" y="249"/>
      <point x="392" y="246"/>
      <point x="396" y="246" type="curve" smooth="yes"/>
      <point x="399" y="246"/>
      <point x="402" y="249"/>
      <point x="402" y="252" type="curve" smooth="yes"/>
      <point x="402" y="256"/>
      <point x="399" y="258"/>
    </contour>
    <contour>
      <point x="396" y="308" type="curve" smooth="yes"/>
      <point x="392" y="308"/>
      <point x="389" y="305"/>
      <point x="389" y="301" type="curve" smooth="yes"/>
      <point x="389" y="298"/>
      <point x="392" y="295"/>
      <point x="396" y="295" type="curve" smooth="yes"/>
      <point x="399" y="295"/>
      <point x="402" y="298"/>
      <point x="402" y="301" type="curve" smooth="yes"/>
      <point x="402" y="305"/>
      <point x="399" y="308"/>
    </contour>
    <contour>
      <point x="346" y="-36" type="curve" smooth="yes"/>
      <point x="343" y="-36"/>
      <point x="340" y="-39"/>
      <point x="340" y="-42" type="curve" smooth="yes"/>
      <point x="340" y="-46"/>
      <point x="343" y="-48"/>
      <point x="346" y="-48" type="curve" smooth="yes"/>
      <point x="350" y="-48"/>
      <point x="352" y="-46"/>
      <point x="352" y="-42" type="curve" smooth="yes"/>
      <point x="352" y="-39"/>
      <point x="350" y="-36"/>
    </contour>
    <contour>
      <point x="346" y="13" type="curve" smooth="yes"/>
      <point x="343" y="13"/>
      <point x="340" y="10"/>
      <point x="340" y="7" type="curve" smooth="yes"/>
      <point x="340" y="4"/>
      <point x="343" y="1"/>
      <point x="346" y="1" type="curve" smooth="yes"/>
      <point x="350" y="1"/>
      <point x="352" y="4"/>
      <point x="352" y="7" type="curve" smooth="yes"/>
      <point x="352" y="10"/>
      <point x="350" y="13"/>
    </contour>
    <contour>
      <point x="346" y="62" type="curve" smooth="yes"/>
      <point x="343" y="62"/>
      <point x="340" y="59"/>
      <point x="340" y="56" type="curve" smooth="yes"/>
      <point x="340" y="53"/>
      <point x="343" y="50"/>
      <point x="346" y="50" type="curve" smooth="yes"/>
      <point x="350" y="50"/>
      <point x="352" y="53"/>
      <point x="352" y="56" type="curve" smooth="yes"/>
      <point x="352" y="59"/>
      <point x="350" y="62"/>
    </contour>
    <contour>
      <point x="346" y="111" type="curve" smooth="yes"/>
      <point x="343" y="111"/>
      <point x="340" y="108"/>
      <point x="340" y="105" type="curve" smooth="yes"/>
      <point x="340" y="102"/>
      <point x="343" y="99"/>
      <point x="346" y="99" type="curve" smooth="yes"/>
      <point x="350" y="99"/>
      <point x="352" y="102"/>
      <point x="352" y="105" type="curve" smooth="yes"/>
      <point x="352" y="108"/>
      <point x="350" y="111"/>
    </contour>
    <contour>
      <point x="297" y="-36" type="curve" smooth="yes"/>
      <point x="293" y="-36"/>
      <point x="291" y="-39"/>
      <point x="291" y="-42" type="curve" smooth="yes"/>
      <point x="291" y="-46"/>
      <point x="293" y="-48"/>
      <point x="297" y="-48" type="curve" smooth="yes"/>
      <point x="300" y="-48"/>
      <point x="303" y="-46"/>
      <point x="303" y="-42" type="curve" smooth="yes"/>
      <point x="303" y="-39"/>
      <point x="300" y="-36"/>
    </contour>
    <contour>
      <point x="297" y="13" type="curve" smooth="yes"/>
      <point x="293" y="13"/>
      <point x="291" y="10"/>
      <point x="291" y="7" type="curve" smooth="yes"/>
      <point x="291" y="4"/>
      <point x="293" y="1"/>
      <point x="297" y="1" type="curve" smooth="yes"/>
      <point x="300" y="1"/>
      <point x="303" y="4"/>
      <point x="303" y="7" type="curve" smooth="yes"/>
      <point x="303" y="10"/>
      <point x="300" y="13"/>
    </contour>
    <contour>
      <point x="297" y="62" type="curve" smooth="yes"/>
      <point x="293" y="62"/>
      <point x="291" y="59"/>
      <point x="291" y="56" type="curve" smooth="yes"/>
      <point x="291" y="53"/>
      <point x="293" y="50"/>
      <point x="297" y="50" type="curve" smooth="yes"/>
      <point x="300" y="50"/>
      <point x="303" y="53"/>
      <point x="303" y="56" type="curve" smooth="yes"/>
      <point x="303" y="59"/>
      <point x="300" y="62"/>
    </contour>
    <contour>
      <point x="297" y="111" type="curve" smooth="yes"/>
      <point x="293" y="111"/>
      <point x="291" y="108"/>
      <point x="291" y="105" type="curve" smooth="yes"/>
      <point x="291" y="102"/>
      <point x="293" y="99"/>
      <point x="297" y="99" type="curve" smooth="yes"/>
      <point x="300" y="99"/>
      <point x="303" y="102"/>
      <point x="303" y="105" type="curve" smooth="yes"/>
      <point x="303" y="108"/>
      <point x="300" y="111"/>
    </contour>
    <contour>
      <point x="297" y="209" type="curve" smooth="yes"/>
      <point x="293" y="209"/>
      <point x="291" y="207"/>
      <point x="291" y="203" type="curve" smooth="yes"/>
      <point x="291" y="200"/>
      <point x="293" y="197"/>
      <point x="297" y="197" type="curve" smooth="yes"/>
      <point x="300" y="197"/>
      <point x="303" y="200"/>
      <point x="303" y="203" type="curve" smooth="yes"/>
      <point x="303" y="207"/>
      <point x="300" y="209"/>
    </contour>
    <contour>
      <point x="297" y="258" type="curve" smooth="yes"/>
      <point x="293" y="258"/>
      <point x="291" y="256"/>
      <point x="291" y="252" type="curve" smooth="yes"/>
      <point x="291" y="249"/>
      <point x="293" y="246"/>
      <point x="297" y="246" type="curve" smooth="yes"/>
      <point x="300" y="246"/>
      <point x="303" y="249"/>
      <point x="303" y="252" type="curve" smooth="yes"/>
      <point x="303" y="256"/>
      <point x="300" y="258"/>
    </contour>
    <contour>
      <point x="247" y="-36" type="curve" smooth="yes"/>
      <point x="244" y="-36"/>
      <point x="241" y="-39"/>
      <point x="241" y="-42" type="curve" smooth="yes"/>
      <point x="241" y="-46"/>
      <point x="244" y="-48"/>
      <point x="247" y="-48" type="curve" smooth="yes"/>
      <point x="251" y="-48"/>
      <point x="254" y="-46"/>
      <point x="254" y="-42" type="curve" smooth="yes"/>
      <point x="254" y="-39"/>
      <point x="251" y="-36"/>
    </contour>
    <contour>
      <point x="247" y="13" type="curve" smooth="yes"/>
      <point x="244" y="13"/>
      <point x="241" y="10"/>
      <point x="241" y="7" type="curve" smooth="yes"/>
      <point x="241" y="4"/>
      <point x="244" y="1"/>
      <point x="247" y="1" type="curve" smooth="yes"/>
      <point x="251" y="1"/>
      <point x="254" y="4"/>
      <point x="254" y="7" type="curve" smooth="yes"/>
      <point x="254" y="10"/>
      <point x="251" y="13"/>
    </contour>
    <contour>
      <point x="247" y="62" type="curve" smooth="yes"/>
      <point x="244" y="62"/>
      <point x="241" y="59"/>
      <point x="241" y="56" type="curve" smooth="yes"/>
      <point x="241" y="53"/>
      <point x="244" y="50"/>
      <point x="247" y="50" type="curve" smooth="yes"/>
      <point x="251" y="50"/>
      <point x="254" y="53"/>
      <point x="254" y="56" type="curve" smooth="yes"/>
      <point x="254" y="59"/>
      <point x="251" y="62"/>
    </contour>
    <contour>
      <point x="247" y="111" type="curve" smooth="yes"/>
      <point x="244" y="111"/>
      <point x="241" y="108"/>
      <point x="241" y="105" type="curve" smooth="yes"/>
      <point x="241" y="102"/>
      <point x="244" y="99"/>
      <point x="247" y="99" type="curve" smooth="yes"/>
      <point x="251" y="99"/>
      <point x="254" y="102"/>
      <point x="254" y="105" type="curve" smooth="yes"/>
      <point x="254" y="108"/>
      <point x="251" y="111"/>
    </contour>
    <contour>
      <point x="247" y="209" type="curve" smooth="yes"/>
      <point x="244" y="209"/>
      <point x="241" y="207"/>
      <point x="241" y="203" type="curve" smooth="yes"/>
      <point x="241" y="200"/>
      <point x="244" y="197"/>
      <point x="247" y="197" type="curve" smooth="yes"/>
      <point x="251" y="197"/>
      <point x="254" y="200"/>
      <point x="254" y="203" type="curve" smooth="yes"/>
      <point x="254" y="207"/>
      <point x="251" y="209"/>
    </contour>
    <contour>
      <point x="247" y="258" type="curve" smooth="yes"/>
      <point x="244" y="258"/>
      <point x="241" y="256"/>
      <point x="241" y="252" type="curve" smooth="yes"/>
      <point x="241" y="249"/>
      <point x="244" y="246"/>
      <point x="247" y="246" type="curve" smooth="yes"/>
      <point x="251" y="246"/>
      <point x="254" y="249"/>
      <point x="254" y="252" type="curve" smooth="yes"/>
      <point x="254" y="256"/>
      <point x="251" y="258"/>
    </contour>
    <contour>
      <point x="247" y="308" type="curve" smooth="yes"/>
      <point x="244" y="308"/>
      <point x="241" y="305"/>
      <point x="241" y="301" type="curve" smooth="yes"/>
      <point x="241" y="298"/>
      <point x="244" y="295"/>
      <point x="247" y="295" type="curve" smooth="yes"/>
      <point x="251" y="295"/>
      <point x="254" y="298"/>
      <point x="254" y="301" type="curve" smooth="yes"/>
      <point x="254" y="305"/>
      <point x="251" y="308"/>
    </contour>
    <contour>
      <point x="198" y="-36" type="curve" smooth="yes"/>
      <point x="195" y="-36"/>
      <point x="192" y="-39"/>
      <point x="192" y="-42" type="curve" smooth="yes"/>
      <point x="192" y="-46"/>
      <point x="195" y="-48"/>
      <point x="198" y="-48" type="curve" smooth="yes"/>
      <point x="201" y="-48"/>
      <point x="204" y="-46"/>
      <point x="204" y="-42" type="curve" smooth="yes"/>
      <point x="204" y="-39"/>
      <point x="201" y="-36"/>
    </contour>
    <contour>
      <point x="198" y="13" type="curve" smooth="yes"/>
      <point x="195" y="13"/>
      <point x="192" y="10"/>
      <point x="192" y="7" type="curve" smooth="yes"/>
      <point x="192" y="4"/>
      <point x="195" y="1"/>
      <point x="198" y="1" type="curve" smooth="yes"/>
      <point x="201" y="1"/>
      <point x="204" y="4"/>
      <point x="204" y="7" type="curve" smooth="yes"/>
      <point x="204" y="10"/>
      <point x="201" y="13"/>
    </contour>
    <contour>
      <point x="198" y="62" type="curve" smooth="yes"/>
      <point x="195" y="62"/>
      <point x="192" y="59"/>
      <point x="192" y="56" type="curve" smooth="yes"/>
      <point x="192" y="53"/>
      <point x="195" y="50"/>
      <point x="198" y="50" type="curve" smooth="yes"/>
      <point x="201" y="50"/>
      <point x="204" y="53"/>
      <point x="204" y="56" type="curve" smooth="yes"/>
      <point x="204" y="59"/>
      <point x="201" y="62"/>
    </contour>
    <contour>
      <point x="198" y="111" type="curve" smooth="yes"/>
      <point x="195" y="111"/>
      <point x="192" y="108"/>
      <point x="192" y="105" type="curve" smooth="yes"/>
      <point x="192" y="102"/>
      <point x="195" y="99"/>
      <point x="198" y="99" type="curve" smooth="yes"/>
      <point x="201" y="99"/>
      <point x="204" y="102"/>
      <point x="204" y="105" type="curve" smooth="yes"/>
      <point x="204" y="108"/>
      <point x="201" y="111"/>
    </contour>
    <contour>
      <point x="198" y="209" type="curve" smooth="yes"/>
      <point x="195" y="209"/>
      <point x="192" y="207"/>
      <point x="192" y="203" type="curve" smooth="yes"/>
      <point x="192" y="200"/>
      <point x="195" y="197"/>
      <point x="198" y="197" type="curve" smooth="yes"/>
      <point x="201" y="197"/>
      <point x="204" y="200"/>
      <point x="204" y="203" type="curve" smooth="yes"/>
      <point x="204" y="207"/>
      <point x="201" y="209"/>
    </contour>
    <contour>
      <point x="198" y="258" type="curve" smooth="yes"/>
      <point x="195" y="258"/>
      <point x="192" y="256"/>
      <point x="192" y="252" type="curve" smooth="yes"/>
      <point x="192" y="249"/>
      <point x="195" y="246"/>
      <point x="198" y="246" type="curve" smooth="yes"/>
      <point x="201" y="246"/>
      <point x="204" y="249"/>
      <point x="204" y="252" type="curve" smooth="yes"/>
      <point x="204" y="256"/>
      <point x="201" y="258"/>
    </contour>
    <contour>
      <point x="149" y="-36" type="curve" smooth="yes"/>
      <point x="145" y="-36"/>
      <point x="142" y="-39"/>
      <point x="142" y="-42" type="curve" smooth="yes"/>
      <point x="142" y="-46"/>
      <point x="145" y="-48"/>
      <point x="149" y="-48" type="curve" smooth="yes"/>
      <point x="152" y="-48"/>
      <point x="155" y="-46"/>
      <point x="155" y="-42" type="curve" smooth="yes"/>
      <point x="155" y="-39"/>
      <point x="152" y="-36"/>
    </contour>
    <contour>
      <point x="149" y="13" type="curve" smooth="yes"/>
      <point x="145" y="13"/>
      <point x="142" y="10"/>
      <point x="142" y="7" type="curve" smooth="yes"/>
      <point x="142" y="4"/>
      <point x="145" y="1"/>
      <point x="149" y="1" type="curve" smooth="yes"/>
      <point x="152" y="1"/>
      <point x="155" y="4"/>
      <point x="155" y="7" type="curve" smooth="yes"/>
      <point x="155" y="10"/>
      <point x="152" y="13"/>
    </contour>
    <contour>
      <point x="149" y="62" type="curve" smooth="yes"/>
      <point x="145" y="62"/>
      <point x="142" y="59"/>
      <point x="142" y="56" type="curve" smooth="yes"/>
      <point x="142" y="53"/>
      <point x="145" y="50"/>
      <point x="149" y="50" type="curve" smooth="yes"/>
      <point x="152" y="50"/>
      <point x="155" y="53"/>
      <point x="155" y="56" type="curve" smooth="yes"/>
      <point x="155" y="59"/>
      <point x="152" y="62"/>
    </contour>
    <contour>
      <point x="149" y="111" type="curve" smooth="yes"/>
      <point x="145" y="111"/>
      <point x="142" y="108"/>
      <point x="142" y="105" type="curve" smooth="yes"/>
      <point x="142" y="102"/>
      <point x="145" y="99"/>
      <point x="149" y="99" type="curve" smooth="yes"/>
      <point x="152" y="99"/>
      <point x="155" y="102"/>
      <point x="155" y="105" type="curve" smooth="yes"/>
      <point x="155" y="108"/>
      <point x="152" y="111"/>
    </contour>
    <contour>
      <point x="99" y="-36" type="curve" smooth="yes"/>
      <point x="96" y="-36"/>
      <point x="93" y="-39"/>
      <point x="93" y="-42" type="curve" smooth="yes"/>
      <point x="93" y="-46"/>
      <point x="96" y="-48"/>
      <point x="99" y="-48" type="curve" smooth="yes"/>
      <point x="103" y="-48"/>
      <point x="105" y="-46"/>
      <point x="105" y="-42" type="curve" smooth="yes"/>
      <point x="105" y="-39"/>
      <point x="103" y="-36"/>
    </contour>
    <contour>
      <point x="99" y="13" type="curve" smooth="yes"/>
      <point x="96" y="13"/>
      <point x="93" y="10"/>
      <point x="93" y="7" type="curve" smooth="yes"/>
      <point x="93" y="4"/>
      <point x="96" y="1"/>
      <point x="99" y="1" type="curve" smooth="yes"/>
      <point x="103" y="1"/>
      <point x="105" y="4"/>
      <point x="105" y="7" type="curve" smooth="yes"/>
      <point x="105" y="10"/>
      <point x="103" y="13"/>
    </contour>
    <contour>
      <point x="99" y="258" type="curve" smooth="yes"/>
      <point x="96" y="258"/>
      <point x="93" y="256"/>
      <point x="93" y="252" type="curve" smooth="yes"/>
      <point x="93" y="249"/>
      <point x="96" y="246"/>
      <point x="99" y="246" type="curve" smooth="yes"/>
      <point x="103" y="246"/>
      <point x="105" y="249"/>
      <point x="105" y="252" type="curve" smooth="yes"/>
      <point x="105" y="256"/>
      <point x="103" y="258"/>
    </contour>
    <contour>
      <point x="99" y="308" type="curve" smooth="yes"/>
      <point x="96" y="308"/>
      <point x="93" y="305"/>
      <point x="93" y="301" type="curve" smooth="yes"/>
      <point x="93" y="298"/>
      <point x="96" y="295"/>
      <point x="99" y="295" type="curve" smooth="yes"/>
      <point x="103" y="295"/>
      <point x="105" y="298"/>
      <point x="105" y="301" type="curve" smooth="yes"/>
      <point x="105" y="305"/>
      <point x="103" y="308"/>
    </contour>
    <contour>
      <point x="50" y="-36" type="curve" smooth="yes"/>
      <point x="46" y="-36"/>
      <point x="44" y="-39"/>
      <point x="44" y="-42" type="curve" smooth="yes"/>
      <point x="44" y="-46"/>
      <point x="46" y="-48"/>
      <point x="50" y="-48" type="curve" smooth="yes"/>
      <point x="53" y="-48"/>
      <point x="56" y="-46"/>
      <point x="56" y="-42" type="curve" smooth="yes"/>
      <point x="56" y="-39"/>
      <point x="53" y="-36"/>
    </contour>
    <contour>
      <point x="50" y="111" type="curve" smooth="yes"/>
      <point x="46" y="111"/>
      <point x="44" y="108"/>
      <point x="44" y="105" type="curve" smooth="yes"/>
      <point x="44" y="102"/>
      <point x="46" y="99"/>
      <point x="50" y="99" type="curve" smooth="yes"/>
      <point x="53" y="99"/>
      <point x="56" y="102"/>
      <point x="56" y="105" type="curve" smooth="yes"/>
      <point x="56" y="108"/>
      <point x="53" y="111"/>
    </contour>
    <contour>
      <point x="50" y="160" type="curve" smooth="yes"/>
      <point x="46" y="160"/>
      <point x="44" y="158"/>
      <point x="44" y="154" type="curve" smooth="yes"/>
      <point x="44" y="151"/>
      <point x="46" y="148"/>
      <point x="50" y="148" type="curve" smooth="yes"/>
      <point x="53" y="148"/>
      <point x="56" y="151"/>
      <point x="56" y="154" type="curve" smooth="yes"/>
      <point x="56" y="158"/>
      <point x="53" y="160"/>
    </contour>
    <contour>
      <point x="50" y="209" type="curve" smooth="yes"/>
      <point x="46" y="209"/>
      <point x="44" y="207"/>
      <point x="44" y="203" type="curve" smooth="yes"/>
      <point x="44" y="200"/>
      <point x="46" y="197"/>
      <point x="50" y="197" type="curve" smooth="yes"/>
      <point x="53" y="197"/>
      <point x="56" y="200"/>
      <point x="56" y="203" type="curve" smooth="yes"/>
      <point x="56" y="207"/>
      <point x="53" y="209"/>
    </contour>
    <contour>
      <point x="50" y="258" type="curve" smooth="yes"/>
      <point x="46" y="258"/>
      <point x="44" y="256"/>
      <point x="44" y="252" type="curve" smooth="yes"/>
      <point x="44" y="249"/>
      <point x="46" y="246"/>
      <point x="50" y="246" type="curve" smooth="yes"/>
      <point x="53" y="246"/>
      <point x="56" y="249"/>
      <point x="56" y="252" type="curve" smooth="yes"/>
      <point x="56" y="256"/>
      <point x="53" y="258"/>
    </contour>
    <contour>
      <point x="50" y="308" type="curve" smooth="yes"/>
      <point x="46" y="308"/>
      <point x="44" y="305"/>
      <point x="44" y="301" type="curve" smooth="yes"/>
      <point x="44" y="298"/>
      <point x="46" y="295"/>
      <point x="50" y="295" type="curve" smooth="yes"/>
      <point x="53" y="295"/>
      <point x="56" y="298"/>
      <point x="56" y="301" type="curve" smooth="yes"/>
      <point x="56" y="305"/>
      <point x="53" y="308"/>
    </contour>
  </outline>
</glyph>
<glyph name="a.3" format="1">
  <advance width="494"/>
  <outline>
    <contour>
      <point x="498" y="544" type="line"/>
      <point x="498" y="545"/>
      <point x="499" y="546"/>
      <point x="499" y="547" type="curve" smooth="yes"/>
      <point x="499" y="548"/>
      <point x="498" y="549"/>
      <point x="497" y="550" type="curve" smooth="yes"/>
      <point x="495" y="552"/>
      <point x="493" y="551"/>
      <point x="491" y="550" type="curve"/>
      <point x="322" y="348" type="line"/>
      <point x="262" y="506" type="line"/>
      <point x="241" y="506" type="line"/>
      <point x="57" y="59" type="line"/>
      <point x="36" y="7" type="line"/>
      <point x="-3" y="-40" type="line"/>
      <point x="-4" y="-41"/>
      <point x="-4" y="-44"/>
      <point x="-2" y="-45" type="curve" smooth="yes"/>
      <point x="-1" y="-46"/>
      <point x="0" y="-46"/>
      <point x="0" y="-46" type="curve" smooth="yes"/>
      <point x="2" y="-46"/>
      <point x="3" y="-46"/>
      <point x="4" y="-45" type="curve"/>
      <point x="129" y="105" type="line"/>
      <point x="131" y="107"/>
      <point x="130" y="109"/>
      <point x="129" y="111" type="curve" smooth="yes"/>
      <point x="127" y="112"/>
      <point x="124" y="112"/>
      <point x="123" y="110" type="curve"/>
      <point x="72" y="50" type="line"/>
      <point x="83" y="73" type="line"/>
      <point x="113" y="142" type="line"/>
      <point x="379" y="142" type="line"/>
      <point x="419" y="36" type="line"/>
      <point x="429" y="0" type="line"/>
      <point x="452" y="0" type="line"/>
      <point x="338" y="306" type="line"/>
      <point x="324" y="289" type="line"/>
      <point x="372" y="161" type="line"/>
      <point x="176" y="161" type="line"/>
    </contour>
    <contour>
      <point x="121" y="161" type="line"/>
      <point x="249" y="475" type="line"/>
      <point x="252" y="475" type="line"/>
      <point x="308" y="331" type="line"/>
      <point x="165" y="161" type="line"/>
    </contour>
    <contour>
      <point x="494" y="-36" type="curve" smooth="yes"/>
      <point x="491" y="-36"/>
      <point x="488" y="-39"/>
      <point x="488" y="-42" type="curve" smooth="yes"/>
      <point x="488" y="-46"/>
      <point x="491" y="-48"/>
      <point x="494" y="-48" type="curve" smooth="yes"/>
      <point x="498" y="-48"/>
      <point x="501" y="-46"/>
      <point x="501" y="-42" type="curve" smooth="yes"/>
      <point x="501" y="-39"/>
      <point x="498" y="-36"/>
    </contour>
    <contour>
      <point x="494" y="13" type="curve" smooth="yes"/>
      <point x="491" y="13"/>
      <point x="488" y="10"/>
      <point x="488" y="7" type="curve" smooth="yes"/>
      <point x="488" y="4"/>
      <point x="491" y="1"/>
      <point x="494" y="1" type="curve" smooth="yes"/>
      <point x="498" y="1"/>
      <point x="501" y="4"/>
      <point x="501" y="7" type="curve" smooth="yes"/>
      <point x="501" y="10"/>
      <point x="498" y="13"/>
    </contour>
    <contour>
      <point x="494" y="62" type="curve" smooth="yes"/>
      <point x="491" y="62"/>
      <point x="488" y="59"/>
      <point x="488" y="56" type="curve" smooth="yes"/>
      <point x="488" y="53"/>
      <point x="491" y="50"/>
      <point x="494" y="50" type="curve" smooth="yes"/>
      <point x="498" y="50"/>
      <point x="501" y="53"/>
      <point x="501" y="56" type="curve" smooth="yes"/>
      <point x="501" y="59"/>
      <point x="498" y="62"/>
    </contour>
    <contour>
      <point x="494" y="111" type="curve" smooth="yes"/>
      <point x="491" y="111"/>
      <point x="488" y="108"/>
      <point x="488" y="105" type="curve" smooth="yes"/>
      <point x="488" y="102"/>
      <point x="491" y="99"/>
      <point x="494" y="99" type="curve" smooth="yes"/>
      <point x="498" y="99"/>
      <point x="501" y="102"/>
      <point x="501" y="105" type="curve" smooth="yes"/>
      <point x="501" y="108"/>
      <point x="498" y="111"/>
    </contour>
    <contour>
      <point x="494" y="160" type="curve" smooth="yes"/>
      <point x="491" y="160"/>
      <point x="488" y="158"/>
      <point x="488" y="154" type="curve" smooth="yes"/>
      <point x="488" y="151"/>
      <point x="491" y="148"/>
      <point x="494" y="148" type="curve" smooth="yes"/>
      <point x="498" y="148"/>
      <point x="501" y="151"/>
      <point x="501" y="154" type="curve" smooth="yes"/>
      <point x="501" y="158"/>
      <point x="498" y="160"/>
    </contour>
    <contour>
      <point x="494" y="209" type="curve" smooth="yes"/>
      <point x="491" y="209"/>
      <point x="488" y="207"/>
      <point x="488" y="203" type="curve" smooth="yes"/>
      <point x="488" y="200"/>
      <point x="491" y="197"/>
      <point x="494" y="197" type="curve" smooth="yes"/>
      <point x="498" y="197"/>
      <point x="501" y="200"/>
      <point x="501" y="203" type="curve" smooth="yes"/>
      <point x="501" y="207"/>
      <point x="498" y="209"/>
    </contour>
    <contour>
      <point x="494" y="258" type="curve" smooth="yes"/>
      <point x="491" y="258"/>
      <point x="488" y="256"/>
      <point x="488" y="252" type="curve" smooth="yes"/>
      <point x="488" y="249"/>
      <point x="491" y="246"/>
      <point x="494" y="246" type="curve" smooth="yes"/>
      <point x="498" y="246"/>
      <point x="501" y="249"/>
      <point x="501" y="252" type="curve" smooth="yes"/>
      <point x="501" y="256"/>
      <point x="498" y="258"/>
    </contour>
    <contour>
      <point x="494" y="308" type="curve" smooth="yes"/>
      <point x="491" y="308"/>
      <point x="488" y="305"/>
      <point x="488" y="301" type="curve" smooth="yes"/>
      <point x="488" y="298"/>
      <point x="491" y="295"/>
      <point x="494" y="295" type="curve" smooth="yes"/>
      <point x="498" y="295"/>
      <point x="501" y="298"/>
      <point x="501" y="301" type="curve" smooth="yes"/>
      <point x="501" y="305"/>
      <point x="498" y="308"/>
    </contour>
    <contour>
      <point x="494" y="357" type="curve" smooth="yes"/>
      <point x="491" y="357"/>
      <point x="488" y="354"/>
      <point x="488" y="351" type="curve" smooth="yes"/>
      <point x="488" y="347"/>
      <point x="491" y="344"/>
      <point x="494" y="344" type="curve" smooth="yes"/>
      <point x="498" y="344"/>
      <point x="501" y="347"/>
      <point x="501" y="351" type="curve" smooth="yes"/>
      <point x="501" y="354"/>
      <point x="498" y="357"/>
    </contour>
    <contour>
      <point x="494" y="406" type="curve" smooth="yes"/>
      <point x="491" y="406"/>
      <point x="488" y="403"/>
      <point x="488" y="400" type="curve" smooth="yes"/>
      <point x="488" y="396"/>
      <point x="491" y="393"/>
      <point x="494" y="393" type="curve" smooth="yes"/>
      <point x="498" y="393"/>
      <point x="501" y="396"/>
      <point x="501" y="400" type="curve" smooth="yes"/>
      <point x="501" y="403"/>
      <point x="498" y="406"/>
    </contour>
    <contour>
      <point x="494" y="455" type="curve" smooth="yes"/>
      <point x="491" y="455"/>
      <point x="488" y="452"/>
      <point x="488" y="449" type="curve" smooth="yes"/>
      <point x="488" y="445"/>
      <point x="491" y="443"/>
      <point x="494" y="443" type="curve" smooth="yes"/>
      <point x="498" y="443"/>
      <point x="501" y="445"/>
      <point x="501" y="449" type="curve" smooth="yes"/>
      <point x="501" y="452"/>
      <point x="498" y="455"/>
    </contour>
    <contour>
      <point x="494" y="504" type="curve" smooth="yes"/>
      <point x="491" y="504"/>
      <point x="488" y="501"/>
      <point x="488" y="498" type="curve" smooth="yes"/>
      <point x="488" y="494"/>
      <point x="491" y="492"/>
      <point x="494" y="492" type="curve" smooth="yes"/>
      <point x="498" y="492"/>
      <point x="501" y="494"/>
      <point x="501" y="498" type="curve" smooth="yes"/>
      <point x="501" y="501"/>
      <point x="498" y="504"/>
    </contour>
    <contour>
      <point x="445" y="-36" type="curve" smooth="yes"/>
      <point x="442" y="-36"/>
      <point x="439" y="-39"/>
      <point x="439" y="-42" type="curve" smooth="yes"/>
      <point x="439" y="-46"/>
      <point x="442" y="-48"/>
      <point x="445" y="-48" type="curve" smooth="yes"/>
      <point x="448" y="-48"/>
      <point x="451" y="-46"/>
      <point x="451" y="-42" type="curve" smooth="yes"/>
      <point x="451" y="-39"/>
      <point x="448" y="-36"/>
    </contour>
    <contour>
      <point x="445" y="111" type="curve" smooth="yes"/>
      <point x="442" y="111"/>
      <point x="439" y="108"/>
      <point x="439" y="105" type="curve" smooth="yes"/>
      <point x="439" y="102"/>
      <point x="442" y="99"/>
      <point x="445" y="99" type="curve" smooth="yes"/>
      <point x="448" y="99"/>
      <point x="451" y="102"/>
      <point x="451" y="105" type="curve" smooth="yes"/>
      <point x="451" y="108"/>
      <point x="448" y="111"/>
    </contour>
    <contour>
      <point x="445" y="160" type="curve" smooth="yes"/>
      <point x="442" y="160"/>
      <point x="439" y="158"/>
      <point x="439" y="154" type="curve" smooth="yes"/>
      <point x="439" y="151"/>
      <point x="442" y="148"/>
      <point x="445" y="148" type="curve" smooth="yes"/>
      <point x="448" y="148"/>
      <point x="451" y="151"/>
      <point x="451" y="154" type="curve" smooth="yes"/>
      <point x="451" y="158"/>
      <point x="448" y="160"/>
    </contour>
    <contour>
      <point x="445" y="209" type="curve" smooth="yes"/>
      <point x="442" y="209"/>
      <point x="439" y="207"/>
      <point x="439" y="203" type="curve" smooth="yes"/>
      <point x="439" y="200"/>
      <point x="442" y="197"/>
      <point x="445" y="197" type="curve" smooth="yes"/>
      <point x="448" y="197"/>
      <point x="451" y="200"/>
      <point x="451" y="203" type="curve" smooth="yes"/>
      <point x="451" y="207"/>
      <point x="448" y="209"/>
    </contour>
    <contour>
      <point x="445" y="258" type="curve" smooth="yes"/>
      <point x="442" y="258"/>
      <point x="439" y="256"/>
      <point x="439" y="252" type="curve" smooth="yes"/>
      <point x="439" y="249"/>
      <point x="442" y="246"/>
      <point x="445" y="246" type="curve" smooth="yes"/>
      <point x="448" y="246"/>
      <point x="451" y="249"/>
      <point x="451" y="252" type="curve" smooth="yes"/>
      <point x="451" y="256"/>
      <point x="448" y="258"/>
    </contour>
    <contour>
      <point x="445" y="308" type="curve" smooth="yes"/>
      <point x="442" y="308"/>
      <point x="439" y="305"/>
      <point x="439" y="301" type="curve" smooth="yes"/>
      <point x="439" y="298"/>
      <point x="442" y="295"/>
      <point x="445" y="295" type="curve" smooth="yes"/>
      <point x="448" y="295"/>
      <point x="451" y="298"/>
      <point x="451" y="301" type="curve" smooth="yes"/>
      <point x="451" y="305"/>
      <point x="448" y="308"/>
    </contour>
    <contour>
      <point x="445" y="357" type="curve" smooth="yes"/>
      <point x="442" y="357"/>
      <point x="439" y="354"/>
      <point x="439" y="351" type="curve" smooth="yes"/>
      <point x="439" y="347"/>
      <point x="442" y="344"/>
      <point x="445" y="344" type="curve" smooth="yes"/>
      <point x="448" y="344"/>
      <point x="451" y="347"/>
      <point x="451" y="351" type="curve" smooth="yes"/>
      <point x="451" y="354"/>
      <point x="448" y="357"/>
    </contour>
    <contour>
      <point x="445" y="406" type="curve" smooth="yes"/>
      <point x="442" y="406"/>
      <point x="439" y="403"/>
      <point x="439" y="400" type="curve" smooth="yes"/>
      <point x="439" y="396"/>
      <point x="442" y="393"/>
      <point x="445" y="393" type="curve" smooth="yes"/>
      <point x="448" y="393"/>
      <point x="451" y="396"/>
      <point x="451" y="400" type="curve" smooth="yes"/>
      <point x="451" y="403"/>
      <point x="448" y="406"/>
    </contour>
    <contour>
      <point x="396" y="-36" type="curve" smooth="yes"/>
      <point x="392" y="-36"/>
      <point x="389" y="-39"/>
      <point x="389" y="-42" type="curve" smooth="yes"/>
      <point x="389" y="-46"/>
      <point x="392" y="-48"/>
      <point x="396" y="-48" type="curve" smooth="yes"/>
      <point x="399" y="-48"/>
      <point x="402" y="-46"/>
      <point x="402" y="-42" type="curve" smooth="yes"/>
      <point x="402" y="-39"/>
      <point x="399" y="-36"/>
    </contour>
    <contour>
      <point x="396" y="13" type="curve" smooth="yes"/>
      <point x="392" y="13"/>
      <point x="389" y="10"/>
      <point x="389" y="7" type="curve" smooth="yes"/>
      <point x="389" y="4"/>
      <point x="392" y="1"/>
      <point x="396" y="1" type="curve" smooth="yes"/>
      <point x="399" y="1"/>
      <point x="402" y="4"/>
      <point x="402" y="7" type="curve" smooth="yes"/>
      <point x="402" y="10"/>
      <point x="399" y="13"/>
    </contour>
    <contour>
      <point x="396" y="258" type="curve" smooth="yes"/>
      <point x="392" y="258"/>
      <point x="389" y="256"/>
      <point x="389" y="252" type="curve" smooth="yes"/>
      <point x="389" y="249"/>
      <point x="392" y="246"/>
      <point x="396" y="246" type="curve" smooth="yes"/>
      <point x="399" y="246"/>
      <point x="402" y="249"/>
      <point x="402" y="252" type="curve" smooth="yes"/>
      <point x="402" y="256"/>
      <point x="399" y="258"/>
    </contour>
    <contour>
      <point x="396" y="308" type="curve" smooth="yes"/>
      <point x="392" y="308"/>
      <point x="389" y="305"/>
      <point x="389" y="301" type="curve" smooth="yes"/>
      <point x="389" y="298"/>
      <point x="392" y="295"/>
      <point x="396" y="295" type="curve" smooth="yes"/>
      <point x="399" y="295"/>
      <point x="402" y="298"/>
      <point x="402" y="301" type="curve" smooth="yes"/>
      <point x="402" y="305"/>
      <point x="399" y="308"/>
    </contour>
    <contour>
      <point x="396" y="357" type="curve" smooth="yes"/>
      <point x="392" y="357"/>
      <point x="389" y="354"/>
      <point x="389" y="351" type="curve" smooth="yes"/>
      <point x="389" y="347"/>
      <point x="392" y="344"/>
      <point x="396" y="344" type="curve" smooth="yes"/>
      <point x="399" y="344"/>
      <point x="402" y="347"/>
      <point x="402" y="351" type="curve" smooth="yes"/>
      <point x="402" y="354"/>
      <point x="399" y="357"/>
    </contour>
    <contour>
      <point x="346" y="-36" type="curve" smooth="yes"/>
      <point x="343" y="-36"/>
      <point x="340" y="-39"/>
      <point x="340" y="-42" type="curve" smooth="yes"/>
      <point x="340" y="-46"/>
      <point x="343" y="-48"/>
      <point x="346" y="-48" type="curve" smooth="yes"/>
      <point x="350" y="-48"/>
      <point x="352" y="-46"/>
      <point x="352" y="-42" type="curve" smooth="yes"/>
      <point x="352" y="-39"/>
      <point x="350" y="-36"/>
    </contour>
    <contour>
      <point x="346" y="13" type="curve" smooth="yes"/>
      <point x="343" y="13"/>
      <point x="340" y="10"/>
      <point x="340" y="7" type="curve" smooth="yes"/>
      <point x="340" y="4"/>
      <point x="343" y="1"/>
      <point x="346" y="1" type="curve" smooth="yes"/>
      <point x="350" y="1"/>
      <point x="352" y="4"/>
      <point x="352" y="7" type="curve" smooth="yes"/>
      <point x="352" y="10"/>
      <point x="350" y="13"/>
    </contour>
    <contour>
      <point x="346" y="62" type="curve" smooth="yes"/>
      <point x="343" y="62"/>
      <point x="340" y="59"/>
      <point x="340" y="56" type="curve" smooth="yes"/>
      <point x="340" y="53"/>
      <point x="343" y="50"/>
      <point x="346" y="50" type="curve" smooth="yes"/>
      <point x="350" y="50"/>
      <point x="352" y="53"/>
      <point x="352" y="56" type="curve" smooth="yes"/>
      <point x="352" y="59"/>
      <point x="350" y="62"/>
    </contour>
    <contour>
      <point x="346" y="111" type="curve" smooth="yes"/>
      <point x="343" y="111"/>
      <point x="340" y="108"/>
      <point x="340" y="105" type="curve" smooth="yes"/>
      <point x="340" y="102"/>
      <point x="343" y="99"/>
      <point x="346" y="99" type="curve" smooth="yes"/>
      <point x="350" y="99"/>
      <point x="352" y="102"/>
      <point x="352" y="105" type="curve" smooth="yes"/>
      <point x="352" y="108"/>
      <point x="350" y="111"/>
    </contour>
    <contour>
      <point x="297" y="-36" type="curve" smooth="yes"/>
      <point x="293" y="-36"/>
      <point x="291" y="-39"/>
      <point x="291" y="-42" type="curve" smooth="yes"/>
      <point x="291" y="-46"/>
      <point x="293" y="-48"/>
      <point x="297" y="-48" type="curve" smooth="yes"/>
      <point x="300" y="-48"/>
      <point x="303" y="-46"/>
      <point x="303" y="-42" type="curve" smooth="yes"/>
      <point x="303" y="-39"/>
      <point x="300" y="-36"/>
    </contour>
    <contour>
      <point x="297" y="13" type="curve" smooth="yes"/>
      <point x="293" y="13"/>
      <point x="291" y="10"/>
      <point x="291" y="7" type="curve" smooth="yes"/>
      <point x="291" y="4"/>
      <point x="293" y="1"/>
      <point x="297" y="1" type="curve" smooth="yes"/>
      <point x="300" y="1"/>
      <point x="303" y="4"/>
      <point x="303" y="7" type="curve" smooth="yes"/>
      <point x="303" y="10"/>
      <point x="300" y="13"/>
    </contour>
    <contour>
      <point x="297" y="62" type="curve" smooth="yes"/>
      <point x="293" y="62"/>
      <point x="291" y="59"/>
      <point x="291" y="56" type="curve" smooth="yes"/>
      <point x="291" y="53"/>
      <point x="293" y="50"/>
      <point x="297" y="50" type="curve" smooth="yes"/>
      <point x="300" y="50"/>
      <point x="303" y="53"/>
      <point x="303" y="56" type="curve" smooth="yes"/>
      <point x="303" y="59"/>
      <point x="300" y="62"/>
    </contour>
    <contour>
      <point x="297" y="111" type="curve" smooth="yes"/>
      <point x="293" y="111"/>
      <point x="291" y="108"/>
      <point x="291" y="105" type="curve" smooth="yes"/>
      <point x="291" y="102"/>
      <point x="293" y="99"/>
      <point x="297" y="99" type="curve" smooth="yes"/>
      <point x="300" y="99"/>
      <point x="303" y="102"/>
      <point x="303" y="105" type="curve" smooth="yes"/>
      <point x="303" y="108"/>
      <point x="300" y="111"/>
    </contour>
    <contour>
      <point x="297" y="209" type="curve" smooth="yes"/>
      <point x="293" y="209"/>
      <point x="291" y="207"/>
      <point x="291" y="203" type="curve" smooth="yes"/>
      <point x="291" y="200"/>
      <point x="293" y="197"/>
      <point x="297" y="197" type="curve" smooth="yes"/>
      <point x="300" y="197"/>
      <point x="303" y="200"/>
      <point x="303" y="203" type="curve" smooth="yes"/>
      <point x="303" y="207"/>
      <point x="300" y="209"/>
    </contour>
    <contour>
      <point x="297" y="258" type="curve" smooth="yes"/>
      <point x="293" y="258"/>
      <point x="291" y="256"/>
      <point x="291" y="252" type="curve" smooth="yes"/>
      <point x="291" y="249"/>
      <point x="293" y="246"/>
      <point x="297" y="246" type="curve" smooth="yes"/>
      <point x="300" y="246"/>
      <point x="303" y="249"/>
      <point x="303" y="252" type="curve" smooth="yes"/>
      <point x="303" y="256"/>
      <point x="300" y="258"/>
    </contour>
    <contour>
      <point x="247" y="-36" type="curve" smooth="yes"/>
      <point x="244" y="-36"/>
      <point x="241" y="-39"/>
      <point x="241" y="-42" type="curve" smooth="yes"/>
      <point x="241" y="-46"/>
      <point x="244" y="-48"/>
      <point x="247" y="-48" type="curve" smooth="yes"/>
      <point x="251" y="-48"/>
      <point x="254" y="-46"/>
      <point x="254" y="-42" type="curve" smooth="yes"/>
      <point x="254" y="-39"/>
      <point x="251" y="-36"/>
    </contour>
    <contour>
      <point x="247" y="13" type="curve" smooth="yes"/>
      <point x="244" y="13"/>
      <point x="241" y="10"/>
      <point x="241" y="7" type="curve" smooth="yes"/>
      <point x="241" y="4"/>
      <point x="244" y="1"/>
      <point x="247" y="1" type="curve" smooth="yes"/>
      <point x="251" y="1"/>
      <point x="254" y="4"/>
      <point x="254" y="7" type="curve" smooth="yes"/>
      <point x="254" y="10"/>
      <point x="251" y="13"/>
    </contour>
    <contour>
      <point x="247" y="62" type="curve" smooth="yes"/>
      <point x="244" y="62"/>
      <point x="241" y="59"/>
      <point x="241" y="56" type="curve" smooth="yes"/>
      <point x="241" y="53"/>
      <point x="244" y="50"/>
      <point x="247" y="50" type="curve" smooth="yes"/>
      <point x="251" y="50"/>
      <point x="254" y="53"/>
      <point x="254" y="56" type="curve" smooth="yes"/>
      <point x="254" y="59"/>
      <point x="251" y="62"/>
    </contour>
    <contour>
      <point x="247" y="111" type="curve" smooth="yes"/>
      <point x="244" y="111"/>
      <point x="241" y="108"/>
      <point x="241" y="105" type="curve" smooth="yes"/>
      <point x="241" y="102"/>
      <point x="244" y="99"/>
      <point x="247" y="99" type="curve" smooth="yes"/>
      <point x="251" y="99"/>
      <point x="254" y="102"/>
      <point x="254" y="105" type="curve" smooth="yes"/>
      <point x="254" y="108"/>
      <point x="251" y="111"/>
    </contour>
    <contour>
      <point x="247" y="209" type="curve" smooth="yes"/>
      <point x="244" y="209"/>
      <point x="241" y="207"/>
      <point x="241" y="203" type="curve" smooth="yes"/>
      <point x="241" y="200"/>
      <point x="244" y="197"/>
      <point x="247" y="197" type="curve" smooth="yes"/>
      <point x="251" y="197"/>
      <point x="254" y="200"/>
      <point x="254" y="203" type="curve" smooth="yes"/>
      <point x="254" y="207"/>
      <point x="251" y="209"/>
    </contour>
    <contour>
      <point x="198" y="-36" type="curve" smooth="yes"/>
      <point x="195" y="-36"/>
      <point x="192" y="-39"/>
      <point x="192" y="-42" type="curve" smooth="yes"/>
      <point x="192" y="-46"/>
      <point x="195" y="-48"/>
      <point x="198" y="-48" type="curve" smooth="yes"/>
      <point x="201" y="-48"/>
      <point x="204" y="-46"/>
      <point x="204" y="-42" type="curve" smooth="yes"/>
      <point x="204" y="-39"/>
      <point x="201" y="-36"/>
    </contour>
    <contour>
      <point x="198" y="13" type="curve" smooth="yes"/>
      <point x="195" y="13"/>
      <point x="192" y="10"/>
      <point x="192" y="7" type="curve" smooth="yes"/>
      <point x="192" y="4"/>
      <point x="195" y="1"/>
      <point x="198" y="1" type="curve" smooth="yes"/>
      <point x="201" y="1"/>
      <point x="204" y="4"/>
      <point x="204" y="7" type="curve" smooth="yes"/>
      <point x="204" y="10"/>
      <point x="201" y="13"/>
    </contour>
    <contour>
      <point x="198" y="62" type="curve" smooth="yes"/>
      <point x="195" y="62"/>
      <point x="192" y="59"/>
      <point x="192" y="56" type="curve" smooth="yes"/>
      <point x="192" y="53"/>
      <point x="195" y="50"/>
      <point x="198" y="50" type="curve" smooth="yes"/>
      <point x="201" y="50"/>
      <point x="204" y="53"/>
      <point x="204" y="56" type="curve" smooth="yes"/>
      <point x="204" y="59"/>
      <point x="201" y="62"/>
    </contour>
    <contour>
      <point x="198" y="111" type="curve" smooth="yes"/>
      <point x="195" y="111"/>
      <point x="192" y="108"/>
      <point x="192" y="105" type="curve" smooth="yes"/>
      <point x="192" y="102"/>
      <point x="195" y="99"/>
      <point x="198" y="99" type="curve" smooth="yes"/>
      <point x="201" y="99"/>
      <point x="204" y="102"/>
      <point x="204" y="105" type="curve" smooth="yes"/>
      <point x="204" y="108"/>
      <point x="201" y="111"/>
    </contour>
    <contour>
      <point x="149" y="-36" type="curve" smooth="yes"/>
      <point x="145" y="-36"/>
      <point x="142" y="-39"/>
      <point x="142" y="-42" type="curve" smooth="yes"/>
      <point x="142" y="-46"/>
      <point x="145" y="-48"/>
      <point x="149" y="-48" type="curve" smooth="yes"/>
      <point x="152" y="-48"/>
      <point x="155" y="-46"/>
      <point x="155" y="-42" type="curve" smooth="yes"/>
      <point x="155" y="-39"/>
      <point x="152" y="-36"/>
    </contour>
    <contour>
      <point x="149" y="13" type="curve" smooth="yes"/>
      <point x="145" y="13"/>
      <point x="142" y="10"/>
      <point x="142" y="7" type="curve" smooth="yes"/>
      <point x="142" y="4"/>
      <point x="145" y="1"/>
      <point x="149" y="1" type="curve" smooth="yes"/>
      <point x="152" y="1"/>
      <point x="155" y="4"/>
      <point x="155" y="7" type="curve" smooth="yes"/>
      <point x="155" y="10"/>
      <point x="152" y="13"/>
    </contour>
    <contour>
      <point x="149" y="62" type="curve" smooth="yes"/>
      <point x="145" y="62"/>
      <point x="142" y="59"/>
      <point x="142" y="56" type="curve" smooth="yes"/>
      <point x="142" y="53"/>
      <point x="145" y="50"/>
      <point x="149" y="50" type="curve" smooth="yes"/>
      <point x="152" y="50"/>
      <point x="155" y="53"/>
      <point x="155" y="56" type="curve" smooth="yes"/>
      <point x="155" y="59"/>
      <point x="152" y="62"/>
    </contour>
    <contour>
      <point x="99" y="-36" type="curve" smooth="yes"/>
      <point x="96" y="-36"/>
      <point x="93" y="-39"/>
      <point x="93" y="-42" type="curve" smooth="yes"/>
      <point x="93" y="-46"/>
      <point x="96" y="-48"/>
      <point x="99" y="-48" type="curve" smooth="yes"/>
      <point x="103" y="-48"/>
      <point x="105" y="-46"/>
      <point x="105" y="-42" type="curve" smooth="yes"/>
      <point x="105" y="-39"/>
      <point x="103" y="-36"/>
    </contour>
    <contour>
      <point x="99" y="13" type="curve" smooth="yes"/>
      <point x="96" y="13"/>
      <point x="93" y="10"/>
      <point x="93" y="7" type="curve" smooth="yes"/>
      <point x="93" y="4"/>
      <point x="96" y="1"/>
      <point x="99" y="1" type="curve" smooth="yes"/>
      <point x="103" y="1"/>
      <point x="105" y="4"/>
      <point x="105" y="7" type="curve" smooth="yes"/>
      <point x="105" y="10"/>
      <point x="103" y="13"/>
    </contour>
    <contour>
      <point x="50" y="-36" type="curve" smooth="yes"/>
      <point x="46" y="-36"/>
      <point x="44" y="-39"/>
      <point x="44" y="-42" type="curve" smooth="yes"/>
      <point x="44" y="-46"/>
      <point x="46" y="-48"/>
      <point x="50" y="-48" type="curve" smooth="yes"/>
      <point x="53" y="-48"/>
      <point x="56" y="-46"/>
      <point x="56" y="-42" type="curve" smooth="yes"/>
      <point x="56" y="-39"/>
      <point x="53" y="-36"/>
    </contour>
  </outline>
</glyph>
<glyph name="a.3.0" format="1">
  <advance width="494"/>
  <outline>
    <contour>
      <point x="498" y="-41" type="curve"/>
      <point x="467" y="-5" type="line"/>
      <point x="262" y="506" type="line"/>
      <point x="241" y="506" type="line"/>
      <point x="34" y="0" type="line"/>
      <point x="57" y="0" type="line"/>
      <point x="69" y="36" type="line"/>
      <point x="113" y="141" type="line"/>
      <point x="293" y="141" type="line"/>
      <point x="277" y="161" type="line"/>
      <point x="121" y="161" type="line"/>
      <point x="249" y="475" type="line"/>
      <point x="252" y="475" type="line"/>
      <point x="381" y="161" type="line"/>
      <point x="328" y="161" type="line"/>
      <point x="207" y="306" type="line"/>
      <point x="203" y="297" type="line"/>
      <point x="491" y="-47" type="line"/>
      <point x="492" y="-48"/>
      <point x="493" y="-48"/>
      <point x="494" y="-48" type="curve" smooth="yes"/>
      <point x="495" y="-48"/>
      <point x="496" y="-48"/>
      <point x="497" y="-47" type="curve" smooth="yes"/>
      <point x="499" y="-46"/>
      <point x="499" y="-43"/>
    </contour>
    <contour>
      <point x="389" y="141" type="line"/>
      <point x="422" y="59" type="line"/>
      <point x="432" y="38" type="line"/>
      <point x="345" y="141" type="line"/>
    </contour>
    <contour>
      <point x="157" y="365" type="line"/>
      <point x="4" y="548" type="line"/>
      <point x="2" y="550"/>
      <point x="-1" y="550"/>
      <point x="-2" y="549" type="curve" smooth="yes"/>
      <point x="-4" y="547"/>
      <point x="-4" y="544"/>
      <point x="-3" y="543" type="curve"/>
      <point x="153" y="356" type="line"/>
    </contour>
    <contour>
      <point x="445" y="-36" type="curve" smooth="yes"/>
      <point x="442" y="-36"/>
      <point x="439" y="-39"/>
      <point x="439" y="-42" type="curve" smooth="yes"/>
      <point x="439" y="-46"/>
      <point x="442" y="-48"/>
      <point x="445" y="-48" type="curve" smooth="yes"/>
      <point x="448" y="-48"/>
      <point x="451" y="-46"/>
      <point x="451" y="-42" type="curve" smooth="yes"/>
      <point x="451" y="-39"/>
      <point x="448" y="-36"/>
    </contour>
    <contour>
      <point x="396" y="-36" type="curve" smooth="yes"/>
      <point x="392" y="-36"/>
      <point x="389" y="-39"/>
      <point x="389" y="-42" type="curve" smooth="yes"/>
      <point x="389" y="-46"/>
      <point x="392" y="-48"/>
      <point x="396" y="-48" type="curve" smooth="yes"/>
      <point x="399" y="-48"/>
      <point x="402" y="-46"/>
      <point x="402" y="-42" type="curve" smooth="yes"/>
      <point x="402" y="-39"/>
      <point x="399" y="-36"/>
    </contour>
    <contour>
      <point x="396" y="13" type="curve" smooth="yes"/>
      <point x="392" y="13"/>
      <point x="389" y="10"/>
      <point x="389" y="7" type="curve" smooth="yes"/>
      <point x="389" y="4"/>
      <point x="392" y="1"/>
      <point x="396" y="1" type="curve" smooth="yes"/>
      <point x="399" y="1"/>
      <point x="402" y="4"/>
      <point x="402" y="7" type="curve" smooth="yes"/>
      <point x="402" y="10"/>
      <point x="399" y="13"/>
    </contour>
    <contour>
      <point x="346" y="-36" type="curve" smooth="yes"/>
      <point x="343" y="-36"/>
      <point x="340" y="-39"/>
      <point x="340" y="-42" type="curve" smooth="yes"/>
      <point x="340" y="-46"/>
      <point x="343" y="-48"/>
      <point x="346" y="-48" type="curve" smooth="yes"/>
      <point x="350" y="-48"/>
      <point x="352" y="-46"/>
      <point x="352" y="-42" type="curve" smooth="yes"/>
      <point x="352" y="-39"/>
      <point x="350" y="-36"/>
    </contour>
    <contour>
      <point x="346" y="13" type="curve" smooth="yes"/>
      <point x="343" y="13"/>
      <point x="340" y="10"/>
      <point x="340" y="7" type="curve" smooth="yes"/>
      <point x="340" y="4"/>
      <point x="343" y="1"/>
      <point x="346" y="1" type="curve" smooth="yes"/>
      <point x="350" y="1"/>
      <point x="352" y="4"/>
      <point x="352" y="7" type="curve" smooth="yes"/>
      <point x="352" y="10"/>
      <point x="350" y="13"/>
    </contour>
    <contour>
      <point x="346" y="62" type="curve" smooth="yes"/>
      <point x="343" y="62"/>
      <point x="340" y="59"/>
      <point x="340" y="56" type="curve" smooth="yes"/>
      <point x="340" y="53"/>
      <point x="343" y="50"/>
      <point x="346" y="50" type="curve" smooth="yes"/>
      <point x="350" y="50"/>
      <point x="352" y="53"/>
      <point x="352" y="56" type="curve" smooth="yes"/>
      <point x="352" y="59"/>
      <point x="350" y="62"/>
    </contour>
    <contour>
      <point x="297" y="-36" type="curve" smooth="yes"/>
      <point x="293" y="-36"/>
      <point x="291" y="-39"/>
      <point x="291" y="-42" type="curve" smooth="yes"/>
      <point x="291" y="-46"/>
      <point x="293" y="-48"/>
      <point x="297" y="-48" type="curve" smooth="yes"/>
      <point x="300" y="-48"/>
      <point x="303" y="-46"/>
      <point x="303" y="-42" type="curve" smooth="yes"/>
      <point x="303" y="-39"/>
      <point x="300" y="-36"/>
    </contour>
    <contour>
      <point x="297" y="13" type="curve" smooth="yes"/>
      <point x="293" y="13"/>
      <point x="291" y="10"/>
      <point x="291" y="7" type="curve" smooth="yes"/>
      <point x="291" y="4"/>
      <point x="293" y="1"/>
      <point x="297" y="1" type="curve" smooth="yes"/>
      <point x="300" y="1"/>
      <point x="303" y="4"/>
      <point x="303" y="7" type="curve" smooth="yes"/>
      <point x="303" y="10"/>
      <point x="300" y="13"/>
    </contour>
    <contour>
      <point x="297" y="62" type="curve" smooth="yes"/>
      <point x="293" y="62"/>
      <point x="291" y="59"/>
      <point x="291" y="56" type="curve" smooth="yes"/>
      <point x="291" y="53"/>
      <point x="293" y="50"/>
      <point x="297" y="50" type="curve" smooth="yes"/>
      <point x="300" y="50"/>
      <point x="303" y="53"/>
      <point x="303" y="56" type="curve" smooth="yes"/>
      <point x="303" y="59"/>
      <point x="300" y="62"/>
    </contour>
    <contour>
      <point x="297" y="111" type="curve" smooth="yes"/>
      <point x="293" y="111"/>
      <point x="291" y="108"/>
      <point x="291" y="105" type="curve" smooth="yes"/>
      <point x="291" y="102"/>
      <point x="293" y="99"/>
      <point x="297" y="99" type="curve" smooth="yes"/>
      <point x="300" y="99"/>
      <point x="303" y="102"/>
      <point x="303" y="105" type="curve" smooth="yes"/>
      <point x="303" y="108"/>
      <point x="300" y="111"/>
    </contour>
    <contour>
      <point x="247" y="-36" type="curve" smooth="yes"/>
      <point x="244" y="-36"/>
      <point x="241" y="-39"/>
      <point x="241" y="-42" type="curve" smooth="yes"/>
      <point x="241" y="-46"/>
      <point x="244" y="-48"/>
      <point x="247" y="-48" type="curve" smooth="yes"/>
      <point x="251" y="-48"/>
      <point x="254" y="-46"/>
      <point x="254" y="-42" type="curve" smooth="yes"/>
      <point x="254" y="-39"/>
      <point x="251" y="-36"/>
    </contour>
    <contour>
      <point x="247" y="13" type="curve" smooth="yes"/>
      <point x="244" y="13"/>
      <point x="241" y="10"/>
      <point x="241" y="7" type="curve" smooth="yes"/>
      <point x="241" y="4"/>
      <point x="244" y="1"/>
      <point x="247" y="1" type="curve" smooth="yes"/>
      <point x="251" y="1"/>
      <point x="254" y="4"/>
      <point x="254" y="7" type="curve" smooth="yes"/>
      <point x="254" y="10"/>
      <point x="251" y="13"/>
    </contour>
    <contour>
      <point x="247" y="62" type="curve" smooth="yes"/>
      <point x="244" y="62"/>
      <point x="241" y="59"/>
      <point x="241" y="56" type="curve" smooth="yes"/>
      <point x="241" y="53"/>
      <point x="244" y="50"/>
      <point x="247" y="50" type="curve" smooth="yes"/>
      <point x="251" y="50"/>
      <point x="254" y="53"/>
      <point x="254" y="56" type="curve" smooth="yes"/>
      <point x="254" y="59"/>
      <point x="251" y="62"/>
    </contour>
    <contour>
      <point x="247" y="111" type="curve" smooth="yes"/>
      <point x="244" y="111"/>
      <point x="241" y="108"/>
      <point x="241" y="105" type="curve" smooth="yes"/>
      <point x="241" y="102"/>
      <point x="244" y="99"/>
      <point x="247" y="99" type="curve" smooth="yes"/>
      <point x="251" y="99"/>
      <point x="254" y="102"/>
      <point x="254" y="105" type="curve" smooth="yes"/>
      <point x="254" y="108"/>
      <point x="251" y="111"/>
    </contour>
    <contour>
      <point x="247" y="209" type="curve" smooth="yes"/>
      <point x="244" y="209"/>
      <point x="241" y="207"/>
      <point x="241" y="203" type="curve" smooth="yes"/>
      <point x="241" y="200"/>
      <point x="244" y="197"/>
      <point x="247" y="197" type="curve" smooth="yes"/>
      <point x="251" y="197"/>
      <point x="254" y="200"/>
      <point x="254" y="203" type="curve" smooth="yes"/>
      <point x="254" y="207"/>
      <point x="251" y="209"/>
    </contour>
    <contour>
      <point x="198" y="-36" type="curve" smooth="yes"/>
      <point x="195" y="-36"/>
      <point x="192" y="-39"/>
      <point x="192" y="-42" type="curve" smooth="yes"/>
      <point x="192" y="-46"/>
      <point x="195" y="-48"/>
      <point x="198" y="-48" type="curve" smooth="yes"/>
      <point x="201" y="-48"/>
      <point x="204" y="-46"/>
      <point x="204" y="-42" type="curve" smooth="yes"/>
      <point x="204" y="-39"/>
      <point x="201" y="-36"/>
    </contour>
    <contour>
      <point x="198" y="13" type="curve" smooth="yes"/>
      <point x="195" y="13"/>
      <point x="192" y="10"/>
      <point x="192" y="7" type="curve" smooth="yes"/>
      <point x="192" y="4"/>
      <point x="195" y="1"/>
      <point x="198" y="1" type="curve" smooth="yes"/>
      <point x="201" y="1"/>
      <point x="204" y="4"/>
      <point x="204" y="7" type="curve" smooth="yes"/>
      <point x="204" y="10"/>
      <point x="201" y="13"/>
    </contour>
    <contour>
      <point x="198" y="62" type="curve" smooth="yes"/>
      <point x="195" y="62"/>
      <point x="192" y="59"/>
      <point x="192" y="56" type="curve" smooth="yes"/>
      <point x="192" y="53"/>
      <point x="195" y="50"/>
      <point x="198" y="50" type="curve" smooth="yes"/>
      <point x="201" y="50"/>
      <point x="204" y="53"/>
      <point x="204" y="56" type="curve" smooth="yes"/>
      <point x="204" y="59"/>
      <point x="201" y="62"/>
    </contour>
    <contour>
      <point x="198" y="111" type="curve" smooth="yes"/>
      <point x="195" y="111"/>
      <point x="192" y="108"/>
      <point x="192" y="105" type="curve" smooth="yes"/>
      <point x="192" y="102"/>
      <point x="195" y="99"/>
      <point x="198" y="99" type="curve" smooth="yes"/>
      <point x="201" y="99"/>
      <point x="204" y="102"/>
      <point x="204" y="105" type="curve" smooth="yes"/>
      <point x="204" y="108"/>
      <point x="201" y="111"/>
    </contour>
    <contour>
      <point x="198" y="209" type="curve" smooth="yes"/>
      <point x="195" y="209"/>
      <point x="192" y="207"/>
      <point x="192" y="203" type="curve" smooth="yes"/>
      <point x="192" y="200"/>
      <point x="195" y="197"/>
      <point x="198" y="197" type="curve" smooth="yes"/>
      <point x="201" y="197"/>
      <point x="204" y="200"/>
      <point x="204" y="203" type="curve" smooth="yes"/>
      <point x="204" y="207"/>
      <point x="201" y="209"/>
    </contour>
    <contour>
      <point x="198" y="258" type="curve" smooth="yes"/>
      <point x="195" y="258"/>
      <point x="192" y="256"/>
      <point x="192" y="252" type="curve" smooth="yes"/>
      <point x="192" y="249"/>
      <point x="195" y="246"/>
      <point x="198" y="246" type="curve" smooth="yes"/>
      <point x="201" y="246"/>
      <point x="204" y="249"/>
      <point x="204" y="252" type="curve" smooth="yes"/>
      <point x="204" y="256"/>
      <point x="201" y="258"/>
    </contour>
    <contour>
      <point x="149" y="-36" type="curve" smooth="yes"/>
      <point x="145" y="-36"/>
      <point x="142" y="-39"/>
      <point x="142" y="-42" type="curve" smooth="yes"/>
      <point x="142" y="-46"/>
      <point x="145" y="-48"/>
      <point x="149" y="-48" type="curve" smooth="yes"/>
      <point x="152" y="-48"/>
      <point x="155" y="-46"/>
      <point x="155" y="-42" type="curve" smooth="yes"/>
      <point x="155" y="-39"/>
      <point x="152" y="-36"/>
    </contour>
    <contour>
      <point x="149" y="13" type="curve" smooth="yes"/>
      <point x="145" y="13"/>
      <point x="142" y="10"/>
      <point x="142" y="7" type="curve" smooth="yes"/>
      <point x="142" y="4"/>
      <point x="145" y="1"/>
      <point x="149" y="1" type="curve" smooth="yes"/>
      <point x="152" y="1"/>
      <point x="155" y="4"/>
      <point x="155" y="7" type="curve" smooth="yes"/>
      <point x="155" y="10"/>
      <point x="152" y="13"/>
    </contour>
    <contour>
      <point x="149" y="62" type="curve" smooth="yes"/>
      <point x="145" y="62"/>
      <point x="142" y="59"/>
      <point x="142" y="56" type="curve" smooth="yes"/>
      <point x="142" y="53"/>
      <point x="145" y="50"/>
      <point x="149" y="50" type="curve" smooth="yes"/>
      <point x="152" y="50"/>
      <point x="155" y="53"/>
      <point x="155" y="56" type="curve" smooth="yes"/>
      <point x="155" y="59"/>
      <point x="152" y="62"/>
    </contour>
    <contour>
      <point x="149" y="111" type="curve" smooth="yes"/>
      <point x="145" y="111"/>
      <point x="142" y="108"/>
      <point x="142" y="105" type="curve" smooth="yes"/>
      <point x="142" y="102"/>
      <point x="145" y="99"/>
      <point x="149" y="99" type="curve" smooth="yes"/>
      <point x="152" y="99"/>
      <point x="155" y="102"/>
      <point x="155" y="105" type="curve" smooth="yes"/>
      <point x="155" y="108"/>
      <point x="152" y="111"/>
    </contour>
    <contour>
      <point x="99" y="-36" type="curve" smooth="yes"/>
      <point x="96" y="-36"/>
      <point x="93" y="-39"/>
      <point x="93" y="-42" type="curve" smooth="yes"/>
      <point x="93" y="-46"/>
      <point x="96" y="-48"/>
      <point x="99" y="-48" type="curve" smooth="yes"/>
      <point x="103" y="-48"/>
      <point x="105" y="-46"/>
      <point x="105" y="-42" type="curve" smooth="yes"/>
      <point x="105" y="-39"/>
      <point x="103" y="-36"/>
    </contour>
    <contour>
      <point x="99" y="13" type="curve" smooth="yes"/>
      <point x="96" y="13"/>
      <point x="93" y="10"/>
      <point x="93" y="7" type="curve" smooth="yes"/>
      <point x="93" y="4"/>
      <point x="96" y="1"/>
      <point x="99" y="1" type="curve" smooth="yes"/>
      <point x="103" y="1"/>
      <point x="105" y="4"/>
      <point x="105" y="7" type="curve" smooth="yes"/>
      <point x="105" y="10"/>
      <point x="103" y="13"/>
    </contour>
    <contour>
      <point x="99" y="258" type="curve" smooth="yes"/>
      <point x="96" y="258"/>
      <point x="93" y="256"/>
      <point x="93" y="252" type="curve" smooth="yes"/>
      <point x="93" y="249"/>
      <point x="96" y="246"/>
      <point x="99" y="246" type="curve" smooth="yes"/>
      <point x="103" y="246"/>
      <point x="105" y="249"/>
      <point x="105" y="252" type="curve" smooth="yes"/>
      <point x="105" y="256"/>
      <point x="103" y="258"/>
    </contour>
    <contour>
      <point x="99" y="308" type="curve" smooth="yes"/>
      <point x="96" y="308"/>
      <point x="93" y="305"/>
      <point x="93" y="301" type="curve" smooth="yes"/>
      <point x="93" y="298"/>
      <point x="96" y="295"/>
      <point x="99" y="295" type="curve" smooth="yes"/>
      <point x="103" y="295"/>
      <point x="105" y="298"/>
      <point x="105" y="301" type="curve" smooth="yes"/>
      <point x="105" y="305"/>
      <point x="103" y="308"/>
    </contour>
    <contour>
      <point x="99" y="357" type="curve" smooth="yes"/>
      <point x="96" y="357"/>
      <point x="93" y="354"/>
      <point x="93" y="351" type="curve" smooth="yes"/>
      <point x="93" y="347"/>
      <point x="96" y="344"/>
      <point x="99" y="344" type="curve" smooth="yes"/>
      <point x="103" y="344"/>
      <point x="105" y="347"/>
      <point x="105" y="351" type="curve" smooth="yes"/>
      <point x="105" y="354"/>
      <point x="103" y="357"/>
    </contour>
    <contour>
      <point x="50" y="-36" type="curve" smooth="yes"/>
      <point x="46" y="-36"/>
      <point x="44" y="-39"/>
      <point x="44" y="-42" type="curve" smooth="yes"/>
      <point x="44" y="-46"/>
      <point x="46" y="-48"/>
      <point x="50" y="-48" type="curve" smooth="yes"/>
      <point x="53" y="-48"/>
      <point x="56" y="-46"/>
      <point x="56" y="-42" type="curve" smooth="yes"/>
      <point x="56" y="-39"/>
      <point x="53" y="-36"/>
    </contour>
    <contour>
      <point x="50" y="160" type="curve" smooth="yes"/>
      <point x="46" y="160"/>
      <point x="44" y="158"/>
      <point x="44" y="154" type="curve" smooth="yes"/>
      <point x="44" y="151"/>
      <point x="46" y="148"/>
      <point x="50" y="148" type="curve" smooth="yes"/>
      <point x="53" y="148"/>
      <point x="56" y="151"/>
      <point x="56" y="154" type="curve" smooth="yes"/>
      <point x="56" y="158"/>
      <point x="53" y="160"/>
    </contour>
    <contour>
      <point x="50" y="209" type="curve" smooth="yes"/>
      <point x="46" y="209"/>
      <point x="44" y="207"/>
      <point x="44" y="203" type="curve" smooth="yes"/>
      <point x="44" y="200"/>
      <point x="46" y="197"/>
      <point x="50" y="197" type="curve" smooth="yes"/>
      <point x="53" y="197"/>
      <point x="56" y="200"/>
      <point x="56" y="203" type="curve" smooth="yes"/>
      <point x="56" y="207"/>
      <point x="53" y="209"/>
    </contour>
    <contour>
      <point x="50" y="258" type="curve" smooth="yes"/>
      <point x="46" y="258"/>
      <point x="44" y="256"/>
      <point x="44" y="252" type="curve" smooth="yes"/>
      <point x="44" y="249"/>
      <point x="46" y="246"/>
      <point x="50" y="246" type="curve" smooth="yes"/>
      <point x="53" y="246"/>
      <point x="56" y="249"/>
      <point x="56" y="252" type="curve" smooth="yes"/>
      <point x="56" y="256"/>
      <point x="53" y="258"/>
    </contour>
    <contour>
      <point x="50" y="308" type="curve" smooth="yes"/>
      <point x="46" y="308"/>
      <point x="44" y="305"/>
      <point x="44" y="301" type="curve" smooth="yes"/>
      <point x="44" y="298"/>
      <point x="46" y="295"/>
      <point x="50" y="295" type="curve" smooth="yes"/>
      <point x="53" y="295"/>
      <point x="56" y="298"/>
      <point x="56" y="301" type="curve" smooth="yes"/>
      <point x="56" y="305"/>
      <point x="53" y="308"/>
    </contour>
    <contour>
      <point x="50" y="357" type="curve" smooth="yes"/>
      <point x="46" y="357"/>
      <point x="44" y="354"/>
      <point x="44" y="351" type="curve" smooth="yes"/>
      <point x="44" y="347"/>
      <point x="46" y="344"/>
      <point x="50" y="344" type="curve" smooth="yes"/>
      <point x="53" y="344"/>
      <point x="56" y="347"/>
      <point x="56" y="351" type="curve" smooth="yes"/>
      <point x="56" y="354"/>
      <point x="53" y="357"/>
    </contour>
    <contour>
      <point x="50" y="406" type="curve" smooth="yes"/>
      <point x="46" y="406"/>
      <point x="44" y="403"/>
      <point x="44" y="400" type="curve" smooth="yes"/>
      <point x="44" y="396"/>
      <point x="46" y="393"/>
      <point x="50" y="393" type="curve" smooth="yes"/>
      <point x="53" y="393"/>
      <point x="56" y="396"/>
      <point x="56" y="400" type="curve" smooth="yes"/>
      <point x="56" y="403"/>
      <point x="53" y="406"/>
    </contour>
  </outline>
</glyph>
<glyph name="b.0" format="1">
  <advance width="444"/>
  <outline>
    <contour>
      <point x="444" y="-47" type="curve"/>
      <point x="0" y="-47" type="line"/>
      <point x="-2" y="-47"/>
      <point x="-4" y="-45"/>
      <point x="-4" y="-43" type="curve" smooth="yes"/>
      <point x="-4" y="-40"/>
      <point x="-2" y="-39"/>
      <point x="0" y="-39" type="curve"/>
      <point x="444" y="-39" type="line"/>
      <point x="447" y="-39"/>
      <point x="448" y="-40"/>
      <point x="448" y="-43" type="curve" smooth="yes"/>
      <point x="448" y="-45"/>
      <point x="447" y="-47"/>
    </contour>
    <contour>
      <point x="389" y="130" type="curve" smooth="yes"/>
      <point x="389" y="38"/>
      <point x="322" y="-2"/>
      <point x="200" y="-2" type="curve" smooth="yes"/>
      <point x="174" y="-2"/>
      <point x="137" y="-2"/>
      <point x="108" y="0" type="curve" smooth="yes"/>
      <point x="108" y="506" type="line"/>
      <point x="213" y="507" type="line"/>
      <point x="299" y="507"/>
      <point x="349" y="459"/>
      <point x="349" y="383" type="curve" smooth="yes"/>
      <point x="349" y="318"/>
      <point x="319" y="276"/>
      <point x="270" y="257" type="curve" smooth="yes"/>
      <point x="343" y="246"/>
      <point x="389" y="205"/>
    </contour>
    <contour>
      <point x="128" y="487" type="line" smooth="yes"/>
      <point x="128" y="265" type="line"/>
      <point x="234" y="263" type="line"/>
      <point x="294" y="274"/>
      <point x="327" y="318"/>
      <point x="327" y="382" type="curve" smooth="yes"/>
      <point x="327" y="443"/>
      <point x="284" y="487"/>
      <point x="216" y="487" type="curve"/>
    </contour>
    <contour>
      <point x="368" y="130" type="curve" smooth="yes"/>
      <point x="368" y="197"/>
      <point x="323" y="237"/>
      <point x="241" y="244" type="curve" smooth="yes"/>
      <point x="128" y="243" type="line"/>
      <point x="128" y="20" type="line"/>
      <point x="150" y="18"/>
      <point x="174" y="17"/>
      <point x="197" y="17" type="curve" smooth="yes"/>
      <point x="307" y="17"/>
      <point x="368" y="54"/>
    </contour>
  </outline>
</glyph>
<glyph name="b.001" format="1">
  <advance width="444"/>
  <outline>
    <contour>
      <point x="270" y="257" type="curve"/>
      <point x="319" y="276"/>
      <point x="349" y="315"/>
      <point x="349" y="378" type="curve" smooth="yes"/>
      <point x="349" y="451"/>
      <point x="299" y="492"/>
      <point x="213" y="492" type="curve" smooth="yes"/>
      <point x="108" y="491" type="line"/>
      <point x="108" y="0" type="line"/>
      <point x="137" y="-2"/>
      <point x="174" y="-2"/>
      <point x="200" y="-2" type="curve" smooth="yes"/>
      <point x="322" y="-2"/>
      <point x="389" y="48"/>
      <point x="389" y="136" type="curve" smooth="yes"/>
      <point x="389" y="208"/>
      <point x="343" y="247"/>
    </contour>
    <contour>
      <point x="216" y="473" type="line" smooth="yes"/>
      <point x="284" y="473"/>
      <point x="327" y="436"/>
      <point x="327" y="377" type="curve" smooth="yes"/>
      <point x="327" y="315"/>
      <point x="294" y="274"/>
      <point x="234" y="263" type="curve"/>
      <point x="128" y="265" type="line"/>
      <point x="128" y="473" type="line"/>
    </contour>
    <contour>
      <point x="197" y="16" type="curve" smooth="yes"/>
      <point x="174" y="16"/>
      <point x="150" y="17"/>
      <point x="128" y="19" type="curve"/>
      <point x="128" y="244" type="line"/>
      <point x="241" y="245" type="line"/>
      <point x="323" y="238"/>
      <point x="368" y="201"/>
      <point x="368" y="136" type="curve" smooth="yes"/>
      <point x="368" y="61"/>
      <point x="307" y="16"/>
    </contour>
  </outline>
</glyph>
<glyph name="b.1.0" format="1">
  <advance width="444"/>
  <outline>
    <contour>
      <point x="-3" y="156" type="curve" smooth="yes"/>
      <point x="-4" y="154"/>
      <point x="-3" y="151"/>
      <point x="-1" y="150" type="curve"/>
      <point x="83" y="113" type="line"/>
      <point x="83" y="122" type="line"/>
      <point x="2" y="158" type="line"/>
      <point x="0" y="159"/>
      <point x="-2" y="158"/>
    </contour>
    <contour>
      <point x="446" y="-38" type="curve"/>
      <point x="319" y="18" type="line"/>
      <point x="365" y="38"/>
      <point x="389" y="75"/>
      <point x="389" y="130" type="curve" smooth="yes"/>
      <point x="389" y="204"/>
      <point x="343" y="246"/>
      <point x="270" y="256" type="curve"/>
      <point x="319" y="276"/>
      <point x="349" y="318"/>
      <point x="349" y="383" type="curve" smooth="yes"/>
      <point x="349" y="458"/>
      <point x="299" y="507"/>
      <point x="213" y="507" type="curve"/>
      <point x="108" y="506" type="line"/>
      <point x="108" y="0" type="line"/>
      <point x="137" y="-2"/>
      <point x="174" y="-2"/>
      <point x="200" y="-2" type="curve" smooth="yes"/>
      <point x="222" y="-2"/>
      <point x="241" y="-1"/>
      <point x="259" y="2" type="curve"/>
      <point x="224" y="17" type="line"/>
      <point x="215" y="17"/>
      <point x="206" y="16"/>
      <point x="197" y="16" type="curve" smooth="yes"/>
      <point x="174" y="16"/>
      <point x="150" y="17"/>
      <point x="128" y="20" type="curve"/>
      <point x="128" y="243" type="line"/>
      <point x="241" y="244" type="line"/>
      <point x="323" y="237"/>
      <point x="368" y="197"/>
      <point x="368" y="130" type="curve" smooth="yes"/>
      <point x="368" y="80"/>
      <point x="342" y="47"/>
      <point x="292" y="30" type="curve"/>
      <point x="153" y="91" type="line"/>
      <point x="153" y="82" type="line"/>
      <point x="443" y="-46" type="line"/>
      <point x="443" y="-46"/>
      <point x="444" y="-46"/>
      <point x="444" y="-46" type="curve"/>
      <point x="444" y="-46" type="line"/>
      <point x="444" y="-46" type="line"/>
      <point x="446" y="-46"/>
      <point x="447" y="-46"/>
      <point x="448" y="-45" type="curve" smooth="yes"/>
      <point x="448" y="-45"/>
      <point x="448" y="-44"/>
      <point x="448" y="-44" type="curve" smooth="yes"/>
      <point x="449" y="-42"/>
      <point x="448" y="-39"/>
    </contour>
    <contour>
      <point x="234" y="263" type="curve"/>
      <point x="128" y="265" type="line"/>
      <point x="128" y="487" type="line"/>
      <point x="216" y="487" type="line"/>
      <point x="284" y="487"/>
      <point x="327" y="443"/>
      <point x="327" y="382" type="curve" smooth="yes"/>
      <point x="327" y="318"/>
      <point x="294" y="274"/>
    </contour>
    <contour>
      <point x="346" y="-36" type="curve" smooth="yes"/>
      <point x="342" y="-36"/>
      <point x="340" y="-39"/>
      <point x="340" y="-42" type="curve" smooth="yes"/>
      <point x="340" y="-46"/>
      <point x="342" y="-48"/>
      <point x="346" y="-48" type="curve" smooth="yes"/>
      <point x="349" y="-48"/>
      <point x="352" y="-46"/>
      <point x="352" y="-42" type="curve" smooth="yes"/>
      <point x="352" y="-39"/>
      <point x="349" y="-36"/>
    </contour>
    <contour>
      <point x="296" y="-36" type="curve" smooth="yes"/>
      <point x="293" y="-36"/>
      <point x="290" y="-39"/>
      <point x="290" y="-42" type="curve" smooth="yes"/>
      <point x="290" y="-46"/>
      <point x="293" y="-48"/>
      <point x="296" y="-48" type="curve" smooth="yes"/>
      <point x="300" y="-48"/>
      <point x="303" y="-46"/>
      <point x="303" y="-42" type="curve" smooth="yes"/>
      <point x="303" y="-39"/>
      <point x="300" y="-36"/>
    </contour>
    <contour>
      <point x="247" y="-36" type="curve" smooth="yes"/>
      <point x="244" y="-36"/>
      <point x="241" y="-39"/>
      <point x="241" y="-42" type="curve" smooth="yes"/>
      <point x="241" y="-46"/>
      <point x="244" y="-48"/>
      <point x="247" y="-48" type="curve" smooth="yes"/>
      <point x="250" y="-48"/>
      <point x="253" y="-46"/>
      <point x="253" y="-42" type="curve" smooth="yes"/>
      <point x="253" y="-39"/>
      <point x="250" y="-36"/>
    </contour>
    <contour>
      <point x="198" y="-36" type="curve" smooth="yes"/>
      <point x="194" y="-36"/>
      <point x="192" y="-39"/>
      <point x="192" y="-42" type="curve" smooth="yes"/>
      <point x="192" y="-46"/>
      <point x="194" y="-48"/>
      <point x="198" y="-48" type="curve" smooth="yes"/>
      <point x="201" y="-48"/>
      <point x="204" y="-46"/>
      <point x="204" y="-42" type="curve" smooth="yes"/>
      <point x="204" y="-39"/>
      <point x="201" y="-36"/>
    </contour>
    <contour>
      <point x="148" y="-36" type="curve" smooth="yes"/>
      <point x="145" y="-36"/>
      <point x="142" y="-39"/>
      <point x="142" y="-42" type="curve" smooth="yes"/>
      <point x="142" y="-46"/>
      <point x="145" y="-48"/>
      <point x="148" y="-48" type="curve" smooth="yes"/>
      <point x="152" y="-48"/>
      <point x="155" y="-46"/>
      <point x="155" y="-42" type="curve" smooth="yes"/>
      <point x="155" y="-39"/>
      <point x="152" y="-36"/>
    </contour>
    <contour>
      <point x="99" y="-36" type="curve" smooth="yes"/>
      <point x="96" y="-36"/>
      <point x="93" y="-39"/>
      <point x="93" y="-42" type="curve" smooth="yes"/>
      <point x="93" y="-46"/>
      <point x="96" y="-48"/>
      <point x="99" y="-48" type="curve" smooth="yes"/>
      <point x="102" y="-48"/>
      <point x="105" y="-46"/>
      <point x="105" y="-42" type="curve" smooth="yes"/>
      <point x="105" y="-39"/>
      <point x="102" y="-36"/>
    </contour>
    <contour>
      <point x="50" y="-36" type="curve" smooth="yes"/>
      <point x="46" y="-36"/>
      <point x="44" y="-39"/>
      <point x="44" y="-42" type="curve" smooth="yes"/>
      <point x="44" y="-46"/>
      <point x="46" y="-48"/>
      <point x="50" y="-48" type="curve" smooth="yes"/>
      <point x="53" y="-48"/>
      <point x="56" y="-46"/>
      <point x="56" y="-42" type="curve" smooth="yes"/>
      <point x="56" y="-39"/>
      <point x="53" y="-36"/>
    </contour>
    <contour>
      <point x="50" y="13" type="curve" smooth="yes"/>
      <point x="46" y="13"/>
      <point x="44" y="10"/>
      <point x="44" y="7" type="curve" smooth="yes"/>
      <point x="44" y="4"/>
      <point x="46" y="1"/>
      <point x="50" y="1" type="curve" smooth="yes"/>
      <point x="53" y="1"/>
      <point x="56" y="4"/>
      <point x="56" y="7" type="curve" smooth="yes"/>
      <point x="56" y="10"/>
      <point x="53" y="13"/>
    </contour>
    <contour>
      <point x="50" y="62" type="curve" smooth="yes"/>
      <point x="46" y="62"/>
      <point x="44" y="59"/>
      <point x="44" y="56" type="curve" smooth="yes"/>
      <point x="44" y="53"/>
      <point x="46" y="50"/>
      <point x="50" y="50" type="curve" smooth="yes"/>
      <point x="53" y="50"/>
      <point x="56" y="53"/>
      <point x="56" y="56" type="curve" smooth="yes"/>
      <point x="56" y="59"/>
      <point x="53" y="62"/>
    </contour>
    <contour>
      <point x="50" y="111" type="curve" smooth="yes"/>
      <point x="46" y="111"/>
      <point x="44" y="108"/>
      <point x="44" y="105" type="curve" smooth="yes"/>
      <point x="44" y="102"/>
      <point x="46" y="99"/>
      <point x="50" y="99" type="curve" smooth="yes"/>
      <point x="53" y="99"/>
      <point x="56" y="102"/>
      <point x="56" y="105" type="curve" smooth="yes"/>
      <point x="56" y="108"/>
      <point x="53" y="111"/>
    </contour>
  </outline>
</glyph>
<glyph name="b.1.3" format="1">
  <advance width="444"/>
  <outline>
    <contour>
      <point x="291" y="262" type="curve"/>
      <point x="334" y="283"/>
      <point x="354" y="323"/>
      <point x="354" y="383" type="curve" smooth="yes"/>
      <point x="354" y="395"/>
      <point x="353" y="406"/>
      <point x="350" y="416" type="curve"/>
      <point x="331" y="399" type="line"/>
      <point x="332" y="394"/>
      <point x="332" y="388"/>
      <point x="332" y="382" type="curve" smooth="yes"/>
      <point x="332" y="325"/>
      <point x="309" y="285"/>
      <point x="261" y="268" type="curve"/>
      <point x="184" y="270" type="line"/>
      <point x="165" y="252" type="line"/>
      <point x="241" y="252" type="line"/>
      <point x="323" y="245"/>
      <point x="368" y="197"/>
      <point x="368" y="130" type="curve" smooth="yes"/>
      <point x="368" y="54"/>
      <point x="307" y="16"/>
      <point x="197" y="16" type="curve" smooth="yes"/>
      <point x="174" y="16"/>
      <point x="148" y="17"/>
      <point x="126" y="20" type="curve"/>
      <point x="126" y="218" type="line"/>
      <point x="106" y="201" type="line"/>
      <point x="106" y="0" type="line"/>
      <point x="135" y="-2"/>
      <point x="174" y="-2"/>
      <point x="200" y="-2" type="curve" smooth="yes"/>
      <point x="322" y="-2"/>
      <point x="389" y="38"/>
      <point x="389" y="130" type="curve" smooth="yes"/>
      <point x="389" y="201"/>
      <point x="352" y="239"/>
    </contour>
    <contour>
      <point x="448" y="550" type="curve" smooth="yes"/>
      <point x="446" y="551"/>
      <point x="443" y="552"/>
      <point x="442" y="550" type="curve"/>
      <point x="333" y="454" type="line"/>
      <point x="310" y="487"/>
      <point x="268" y="507"/>
      <point x="213" y="507" type="curve"/>
      <point x="106" y="506" type="line"/>
      <point x="106" y="253" type="line"/>
      <point x="-2" y="157" type="line"/>
      <point x="-4" y="156"/>
      <point x="-4" y="153"/>
      <point x="-3" y="151" type="curve" smooth="yes"/>
      <point x="-2" y="150"/>
      <point x="-1" y="150"/>
      <point x="0" y="150" type="curve" smooth="yes"/>
      <point x="1" y="150"/>
      <point x="2" y="150"/>
      <point x="3" y="151" type="curve"/>
      <point x="447" y="544" type="line"/>
      <point x="449" y="545"/>
      <point x="449" y="548"/>
    </contour>
    <contour>
      <point x="126" y="271" type="line"/>
      <point x="126" y="487" type="line"/>
      <point x="216" y="487" type="line"/>
      <point x="261" y="487"/>
      <point x="296" y="468"/>
      <point x="316" y="439" type="curve"/>
      <point x="126" y="271" type="line"/>
    </contour>
    <contour>
      <point x="444" y="-36" type="curve" smooth="yes"/>
      <point x="441" y="-36"/>
      <point x="438" y="-39"/>
      <point x="438" y="-42" type="curve" smooth="yes"/>
      <point x="438" y="-46"/>
      <point x="441" y="-48"/>
      <point x="444" y="-48" type="curve" smooth="yes"/>
      <point x="448" y="-48"/>
      <point x="451" y="-46"/>
      <point x="451" y="-42" type="curve" smooth="yes"/>
      <point x="451" y="-39"/>
      <point x="448" y="-36"/>
    </contour>
    <contour>
      <point x="444" y="13" type="curve" smooth="yes"/>
      <point x="441" y="13"/>
      <point x="438" y="10"/>
      <point x="438" y="7" type="curve" smooth="yes"/>
      <point x="438" y="4"/>
      <point x="441" y="1"/>
      <point x="444" y="1" type="curve" smooth="yes"/>
      <point x="448" y="1"/>
      <point x="451" y="4"/>
      <point x="451" y="7" type="curve" smooth="yes"/>
      <point x="451" y="10"/>
      <point x="448" y="13"/>
    </contour>
    <contour>
      <point x="444" y="62" type="curve" smooth="yes"/>
      <point x="441" y="62"/>
      <point x="438" y="59"/>
      <point x="438" y="56" type="curve" smooth="yes"/>
      <point x="438" y="53"/>
      <point x="441" y="50"/>
      <point x="444" y="50" type="curve" smooth="yes"/>
      <point x="448" y="50"/>
      <point x="451" y="53"/>
      <point x="451" y="56" type="curve" smooth="yes"/>
      <point x="451" y="59"/>
      <point x="448" y="62"/>
    </contour>
    <contour>
      <point x="444" y="111" type="curve" smooth="yes"/>
      <point x="441" y="111"/>
      <point x="438" y="108"/>
      <point x="438" y="105" type="curve" smooth="yes"/>
      <point x="438" y="102"/>
      <point x="441" y="99"/>
      <point x="444" y="99" type="curve" smooth="yes"/>
      <point x="448" y="99"/>
      <point x="451" y="102"/>
      <point x="451" y="105" type="curve" smooth="yes"/>
      <point x="451" y="108"/>
      <point x="448" y="111"/>
    </contour>
    <contour>
      <point x="444" y="160" type="curve" smooth="yes"/>
      <point x="441" y="160"/>
      <point x="438" y="158"/>
      <point x="438" y="154" type="curve" smooth="yes"/>
      <point x="438" y="151"/>
      <point x="441" y="148"/>
      <point x="444" y="148" type="curve" smooth="yes"/>
      <point x="448" y="148"/>
      <point x="451" y="151"/>
      <point x="451" y="154" type="curve" smooth="yes"/>
      <point x="451" y="158"/>
      <point x="448" y="160"/>
    </contour>
    <contour>
      <point x="444" y="209" type="curve" smooth="yes"/>
      <point x="441" y="209"/>
      <point x="438" y="207"/>
      <point x="438" y="203" type="curve" smooth="yes"/>
      <point x="438" y="200"/>
      <point x="441" y="197"/>
      <point x="444" y="197" type="curve" smooth="yes"/>
      <point x="448" y="197"/>
      <point x="451" y="200"/>
      <point x="451" y="203" type="curve" smooth="yes"/>
      <point x="451" y="207"/>
      <point x="448" y="209"/>
    </contour>
    <contour>
      <point x="444" y="258" type="curve" smooth="yes"/>
      <point x="441" y="258"/>
      <point x="438" y="256"/>
      <point x="438" y="252" type="curve" smooth="yes"/>
      <point x="438" y="249"/>
      <point x="441" y="246"/>
      <point x="444" y="246" type="curve" smooth="yes"/>
      <point x="448" y="246"/>
      <point x="451" y="249"/>
      <point x="451" y="252" type="curve" smooth="yes"/>
      <point x="451" y="256"/>
      <point x="448" y="258"/>
    </contour>
    <contour>
      <point x="444" y="308" type="curve" smooth="yes"/>
      <point x="441" y="308"/>
      <point x="438" y="305"/>
      <point x="438" y="301" type="curve" smooth="yes"/>
      <point x="438" y="298"/>
      <point x="441" y="295"/>
      <point x="444" y="295" type="curve" smooth="yes"/>
      <point x="448" y="295"/>
      <point x="451" y="298"/>
      <point x="451" y="301" type="curve" smooth="yes"/>
      <point x="451" y="305"/>
      <point x="448" y="308"/>
    </contour>
    <contour>
      <point x="444" y="357" type="curve" smooth="yes"/>
      <point x="441" y="357"/>
      <point x="438" y="354"/>
      <point x="438" y="351" type="curve" smooth="yes"/>
      <point x="438" y="347"/>
      <point x="441" y="344"/>
      <point x="444" y="344" type="curve" smooth="yes"/>
      <point x="448" y="344"/>
      <point x="451" y="347"/>
      <point x="451" y="351" type="curve" smooth="yes"/>
      <point x="451" y="354"/>
      <point x="448" y="357"/>
    </contour>
    <contour>
      <point x="444" y="406" type="curve" smooth="yes"/>
      <point x="441" y="406"/>
      <point x="438" y="403"/>
      <point x="438" y="400" type="curve" smooth="yes"/>
      <point x="438" y="396"/>
      <point x="441" y="393"/>
      <point x="444" y="393" type="curve" smooth="yes"/>
      <point x="448" y="393"/>
      <point x="451" y="396"/>
      <point x="451" y="400" type="curve" smooth="yes"/>
      <point x="451" y="403"/>
      <point x="448" y="406"/>
    </contour>
    <contour>
      <point x="444" y="455" type="curve" smooth="yes"/>
      <point x="441" y="455"/>
      <point x="438" y="452"/>
      <point x="438" y="449" type="curve" smooth="yes"/>
      <point x="438" y="445"/>
      <point x="441" y="443"/>
      <point x="444" y="443" type="curve" smooth="yes"/>
      <point x="448" y="443"/>
      <point x="451" y="445"/>
      <point x="451" y="449" type="curve" smooth="yes"/>
      <point x="451" y="452"/>
      <point x="448" y="455"/>
    </contour>
    <contour>
      <point x="444" y="504" type="curve" smooth="yes"/>
      <point x="441" y="504"/>
      <point x="438" y="501"/>
      <point x="438" y="498" type="curve" smooth="yes"/>
      <point x="438" y="494"/>
      <point x="441" y="492"/>
      <point x="444" y="492" type="curve" smooth="yes"/>
      <point x="448" y="492"/>
      <point x="451" y="494"/>
      <point x="451" y="498" type="curve" smooth="yes"/>
      <point x="451" y="501"/>
      <point x="448" y="504"/>
    </contour>
    <contour>
      <point x="395" y="-36" type="curve" smooth="yes"/>
      <point x="392" y="-36"/>
      <point x="389" y="-39"/>
      <point x="389" y="-42" type="curve" smooth="yes"/>
      <point x="389" y="-46"/>
      <point x="392" y="-48"/>
      <point x="395" y="-48" type="curve" smooth="yes"/>
      <point x="398" y="-48"/>
      <point x="401" y="-46"/>
      <point x="401" y="-42" type="curve" smooth="yes"/>
      <point x="401" y="-39"/>
      <point x="398" y="-36"/>
    </contour>
    <contour>
      <point x="395" y="13" type="curve" smooth="yes"/>
      <point x="392" y="13"/>
      <point x="389" y="10"/>
      <point x="389" y="7" type="curve" smooth="yes"/>
      <point x="389" y="4"/>
      <point x="392" y="1"/>
      <point x="395" y="1" type="curve" smooth="yes"/>
      <point x="398" y="1"/>
      <point x="401" y="4"/>
      <point x="401" y="7" type="curve" smooth="yes"/>
      <point x="401" y="10"/>
      <point x="398" y="13"/>
    </contour>
    <contour>
      <point x="395" y="258" type="curve" smooth="yes"/>
      <point x="392" y="258"/>
      <point x="389" y="256"/>
      <point x="389" y="252" type="curve" smooth="yes"/>
      <point x="389" y="249"/>
      <point x="392" y="246"/>
      <point x="395" y="246" type="curve" smooth="yes"/>
      <point x="398" y="246"/>
      <point x="401" y="249"/>
      <point x="401" y="252" type="curve" smooth="yes"/>
      <point x="401" y="256"/>
      <point x="398" y="258"/>
    </contour>
    <contour>
      <point x="395" y="308" type="curve" smooth="yes"/>
      <point x="392" y="308"/>
      <point x="389" y="305"/>
      <point x="389" y="301" type="curve" smooth="yes"/>
      <point x="389" y="298"/>
      <point x="392" y="295"/>
      <point x="395" y="295" type="curve" smooth="yes"/>
      <point x="398" y="295"/>
      <point x="401" y="298"/>
      <point x="401" y="301" type="curve" smooth="yes"/>
      <point x="401" y="305"/>
      <point x="398" y="308"/>
    </contour>
    <contour>
      <point x="395" y="357" type="curve" smooth="yes"/>
      <point x="392" y="357"/>
      <point x="389" y="354"/>
      <point x="389" y="351" type="curve" smooth="yes"/>
      <point x="389" y="347"/>
      <point x="392" y="344"/>
      <point x="395" y="344" type="curve" smooth="yes"/>
      <point x="398" y="344"/>
      <point x="401" y="347"/>
      <point x="401" y="351" type="curve" smooth="yes"/>
      <point x="401" y="354"/>
      <point x="398" y="357"/>
    </contour>
    <contour>
      <point x="395" y="406" type="curve" smooth="yes"/>
      <point x="392" y="406"/>
      <point x="389" y="403"/>
      <point x="389" y="400" type="curve" smooth="yes"/>
      <point x="389" y="396"/>
      <point x="392" y="393"/>
      <point x="395" y="393" type="curve" smooth="yes"/>
      <point x="398" y="393"/>
      <point x="401" y="396"/>
      <point x="401" y="400" type="curve" smooth="yes"/>
      <point x="401" y="403"/>
      <point x="398" y="406"/>
    </contour>
    <contour>
      <point x="395" y="455" type="curve" smooth="yes"/>
      <point x="392" y="455"/>
      <point x="389" y="452"/>
      <point x="389" y="449" type="curve" smooth="yes"/>
      <point x="389" y="445"/>
      <point x="392" y="443"/>
      <point x="395" y="443" type="curve" smooth="yes"/>
      <point x="398" y="443"/>
      <point x="401" y="445"/>
      <point x="401" y="449" type="curve" smooth="yes"/>
      <point x="401" y="452"/>
      <point x="398" y="455"/>
    </contour>
    <contour>
      <point x="346" y="-36" type="curve" smooth="yes"/>
      <point x="342" y="-36"/>
      <point x="340" y="-39"/>
      <point x="340" y="-42" type="curve" smooth="yes"/>
      <point x="340" y="-46"/>
      <point x="342" y="-48"/>
      <point x="346" y="-48" type="curve" smooth="yes"/>
      <point x="349" y="-48"/>
      <point x="352" y="-46"/>
      <point x="352" y="-42" type="curve" smooth="yes"/>
      <point x="352" y="-39"/>
      <point x="349" y="-36"/>
    </contour>
    <contour>
      <point x="296" y="-36" type="curve" smooth="yes"/>
      <point x="293" y="-36"/>
      <point x="290" y="-39"/>
      <point x="290" y="-42" type="curve" smooth="yes"/>
      <point x="290" y="-46"/>
      <point x="293" y="-48"/>
      <point x="296" y="-48" type="curve" smooth="yes"/>
      <point x="300" y="-48"/>
      <point x="303" y="-46"/>
      <point x="303" y="-42" type="curve" smooth="yes"/>
      <point x="303" y="-39"/>
      <point x="300" y="-36"/>
    </contour>
    <contour>
      <point x="296" y="111" type="curve" smooth="yes"/>
      <point x="293" y="111"/>
      <point x="290" y="108"/>
      <point x="290" y="105" type="curve" smooth="yes"/>
      <point x="290" y="102"/>
      <point x="293" y="99"/>
      <point x="296" y="99" type="curve" smooth="yes"/>
      <point x="300" y="99"/>
      <point x="303" y="102"/>
      <point x="303" y="105" type="curve" smooth="yes"/>
      <point x="303" y="108"/>
      <point x="300" y="111"/>
    </contour>
    <contour>
      <point x="296" y="160" type="curve" smooth="yes"/>
      <point x="293" y="160"/>
      <point x="290" y="158"/>
      <point x="290" y="154" type="curve" smooth="yes"/>
      <point x="290" y="151"/>
      <point x="293" y="148"/>
      <point x="296" y="148" type="curve" smooth="yes"/>
      <point x="300" y="148"/>
      <point x="303" y="151"/>
      <point x="303" y="154" type="curve" smooth="yes"/>
      <point x="303" y="158"/>
      <point x="300" y="160"/>
    </contour>
    <contour>
      <point x="296" y="209" type="curve" smooth="yes"/>
      <point x="293" y="209"/>
      <point x="290" y="207"/>
      <point x="290" y="203" type="curve" smooth="yes"/>
      <point x="290" y="200"/>
      <point x="293" y="197"/>
      <point x="296" y="197" type="curve" smooth="yes"/>
      <point x="300" y="197"/>
      <point x="303" y="200"/>
      <point x="303" y="203" type="curve" smooth="yes"/>
      <point x="303" y="207"/>
      <point x="300" y="209"/>
    </contour>
    <contour>
      <point x="247" y="-36" type="curve" smooth="yes"/>
      <point x="244" y="-36"/>
      <point x="241" y="-39"/>
      <point x="241" y="-42" type="curve" smooth="yes"/>
      <point x="241" y="-46"/>
      <point x="244" y="-48"/>
      <point x="247" y="-48" type="curve" smooth="yes"/>
      <point x="250" y="-48"/>
      <point x="253" y="-46"/>
      <point x="253" y="-42" type="curve" smooth="yes"/>
      <point x="253" y="-39"/>
      <point x="250" y="-36"/>
    </contour>
    <contour>
      <point x="247" y="62" type="curve" smooth="yes"/>
      <point x="244" y="62"/>
      <point x="241" y="59"/>
      <point x="241" y="56" type="curve" smooth="yes"/>
      <point x="241" y="53"/>
      <point x="244" y="50"/>
      <point x="247" y="50" type="curve" smooth="yes"/>
      <point x="250" y="50"/>
      <point x="253" y="53"/>
      <point x="253" y="56" type="curve" smooth="yes"/>
      <point x="253" y="59"/>
      <point x="250" y="62"/>
    </contour>
    <contour>
      <point x="247" y="111" type="curve" smooth="yes"/>
      <point x="244" y="111"/>
      <point x="241" y="108"/>
      <point x="241" y="105" type="curve" smooth="yes"/>
      <point x="241" y="102"/>
      <point x="244" y="99"/>
      <point x="247" y="99" type="curve" smooth="yes"/>
      <point x="250" y="99"/>
      <point x="253" y="102"/>
      <point x="253" y="105" type="curve" smooth="yes"/>
      <point x="253" y="108"/>
      <point x="250" y="111"/>
    </contour>
    <contour>
      <point x="247" y="160" type="curve" smooth="yes"/>
      <point x="244" y="160"/>
      <point x="241" y="158"/>
      <point x="241" y="154" type="curve" smooth="yes"/>
      <point x="241" y="151"/>
      <point x="244" y="148"/>
      <point x="247" y="148" type="curve" smooth="yes"/>
      <point x="250" y="148"/>
      <point x="253" y="151"/>
      <point x="253" y="154" type="curve" smooth="yes"/>
      <point x="253" y="158"/>
      <point x="250" y="160"/>
    </contour>
    <contour>
      <point x="247" y="209" type="curve" smooth="yes"/>
      <point x="244" y="209"/>
      <point x="241" y="207"/>
      <point x="241" y="203" type="curve" smooth="yes"/>
      <point x="241" y="200"/>
      <point x="244" y="197"/>
      <point x="247" y="197" type="curve" smooth="yes"/>
      <point x="250" y="197"/>
      <point x="253" y="200"/>
      <point x="253" y="203" type="curve" smooth="yes"/>
      <point x="253" y="207"/>
      <point x="250" y="209"/>
    </contour>
    <contour>
      <point x="198" y="-36" type="curve" smooth="yes"/>
      <point x="194" y="-36"/>
      <point x="192" y="-39"/>
      <point x="192" y="-42" type="curve" smooth="yes"/>
      <point x="192" y="-46"/>
      <point x="194" y="-48"/>
      <point x="198" y="-48" type="curve" smooth="yes"/>
      <point x="201" y="-48"/>
      <point x="204" y="-46"/>
      <point x="204" y="-42" type="curve" smooth="yes"/>
      <point x="204" y="-39"/>
      <point x="201" y="-36"/>
    </contour>
    <contour>
      <point x="198" y="62" type="curve" smooth="yes"/>
      <point x="194" y="62"/>
      <point x="192" y="59"/>
      <point x="192" y="56" type="curve" smooth="yes"/>
      <point x="192" y="53"/>
      <point x="194" y="50"/>
      <point x="198" y="50" type="curve" smooth="yes"/>
      <point x="201" y="50"/>
      <point x="204" y="53"/>
      <point x="204" y="56" type="curve" smooth="yes"/>
      <point x="204" y="59"/>
      <point x="201" y="62"/>
    </contour>
    <contour>
      <point x="198" y="111" type="curve" smooth="yes"/>
      <point x="194" y="111"/>
      <point x="192" y="108"/>
      <point x="192" y="105" type="curve" smooth="yes"/>
      <point x="192" y="102"/>
      <point x="194" y="99"/>
      <point x="198" y="99" type="curve" smooth="yes"/>
      <point x="201" y="99"/>
      <point x="204" y="102"/>
      <point x="204" y="105" type="curve" smooth="yes"/>
      <point x="204" y="108"/>
      <point x="201" y="111"/>
    </contour>
    <contour>
      <point x="198" y="160" type="curve" smooth="yes"/>
      <point x="194" y="160"/>
      <point x="192" y="158"/>
      <point x="192" y="154" type="curve" smooth="yes"/>
      <point x="192" y="151"/>
      <point x="194" y="148"/>
      <point x="198" y="148" type="curve" smooth="yes"/>
      <point x="201" y="148"/>
      <point x="204" y="151"/>
      <point x="204" y="154" type="curve" smooth="yes"/>
      <point x="204" y="158"/>
      <point x="201" y="160"/>
    </contour>
    <contour>
      <point x="198" y="209" type="curve" smooth="yes"/>
      <point x="194" y="209"/>
      <point x="192" y="207"/>
      <point x="192" y="203" type="curve" smooth="yes"/>
      <point x="192" y="200"/>
      <point x="194" y="197"/>
      <point x="198" y="197" type="curve" smooth="yes"/>
      <point x="201" y="197"/>
      <point x="204" y="200"/>
      <point x="204" y="203" type="curve" smooth="yes"/>
      <point x="204" y="207"/>
      <point x="201" y="209"/>
    </contour>
    <contour>
      <point x="148" y="-36" type="curve" smooth="yes"/>
      <point x="145" y="-36"/>
      <point x="142" y="-39"/>
      <point x="142" y="-42" type="curve" smooth="yes"/>
      <point x="142" y="-46"/>
      <point x="145" y="-48"/>
      <point x="148" y="-48" type="curve" smooth="yes"/>
      <point x="152" y="-48"/>
      <point x="155" y="-46"/>
      <point x="155" y="-42" type="curve" smooth="yes"/>
      <point x="155" y="-39"/>
      <point x="152" y="-36"/>
    </contour>
    <contour>
      <point x="99" y="-36" type="curve" smooth="yes"/>
      <point x="96" y="-36"/>
      <point x="93" y="-39"/>
      <point x="93" y="-42" type="curve" smooth="yes"/>
      <point x="93" y="-46"/>
      <point x="96" y="-48"/>
      <point x="99" y="-48" type="curve" smooth="yes"/>
      <point x="102" y="-48"/>
      <point x="105" y="-46"/>
      <point x="105" y="-42" type="curve" smooth="yes"/>
      <point x="105" y="-39"/>
      <point x="102" y="-36"/>
    </contour>
    <contour>
      <point x="50" y="-36" type="curve" smooth="yes"/>
      <point x="46" y="-36"/>
      <point x="44" y="-39"/>
      <point x="44" y="-42" type="curve" smooth="yes"/>
      <point x="44" y="-46"/>
      <point x="46" y="-48"/>
      <point x="50" y="-48" type="curve" smooth="yes"/>
      <point x="53" y="-48"/>
      <point x="56" y="-46"/>
      <point x="56" y="-42" type="curve" smooth="yes"/>
      <point x="56" y="-39"/>
      <point x="53" y="-36"/>
    </contour>
    <contour>
      <point x="50" y="13" type="curve" smooth="yes"/>
      <point x="46" y="13"/>
      <point x="44" y="10"/>
      <point x="44" y="7" type="curve" smooth="yes"/>
      <point x="44" y="4"/>
      <point x="46" y="1"/>
      <point x="50" y="1" type="curve" smooth="yes"/>
      <point x="53" y="1"/>
      <point x="56" y="4"/>
      <point x="56" y="7" type="curve" smooth="yes"/>
      <point x="56" y="10"/>
      <point x="53" y="13"/>
    </contour>
    <contour>
      <point x="50" y="62" type="curve" smooth="yes"/>
      <point x="46" y="62"/>
      <point x="44" y="59"/>
      <point x="44" y="56" type="curve" smooth="yes"/>
      <point x="44" y="53"/>
      <point x="46" y="50"/>
      <point x="50" y="50" type="curve" smooth="yes"/>
      <point x="53" y="50"/>
      <point x="56" y="53"/>
      <point x="56" y="56" type="curve" smooth="yes"/>
      <point x="56" y="59"/>
      <point x="53" y="62"/>
    </contour>
    <contour>
      <point x="50" y="111" type="curve" smooth="yes"/>
      <point x="46" y="111"/>
      <point x="44" y="108"/>
      <point x="44" y="105" type="curve" smooth="yes"/>
      <point x="44" y="102"/>
      <point x="46" y="99"/>
      <point x="50" y="99" type="curve" smooth="yes"/>
      <point x="53" y="99"/>
      <point x="56" y="102"/>
      <point x="56" y="105" type="curve" smooth="yes"/>
      <point x="56" y="108"/>
      <point x="53" y="111"/>
    </contour>
    <contour>
      <point x="50" y="160" type="curve" smooth="yes"/>
      <point x="46" y="160"/>
      <point x="44" y="158"/>
      <point x="44" y="154" type="curve" smooth="yes"/>
      <point x="44" y="151"/>
      <point x="46" y="148"/>
      <point x="50" y="148" type="curve" smooth="yes"/>
      <point x="53" y="148"/>
      <point x="56" y="151"/>
      <point x="56" y="154" type="curve" smooth="yes"/>
      <point x="56" y="158"/>
      <point x="53" y="160"/>
    </contour>
  </outline>
</glyph>
<glyph name="b.2" format="1">
  <advance width="444"/>
  <outline>
    <contour>
      <point x="-3" y="-45" type="curve" smooth="yes"/>
      <point x="-2" y="-46"/>
      <point x="-1" y="-47"/>
      <point x="0" y="-47" type="curve" smooth="yes"/>
      <point x="1" y="-47"/>
      <point x="2" y="-46"/>
      <point x="3" y="-45" type="curve"/>
      <point x="83" y="25" type="line"/>
      <point x="83" y="37" type="line"/>
      <point x="-2" y="-39" type="line"/>
      <point x="-4" y="-41"/>
      <point x="-4" y="-43"/>
    </contour>
    <contour>
      <point x="448" y="353" type="curve" smooth="yes"/>
      <point x="446" y="355"/>
      <point x="443" y="355"/>
      <point x="442" y="354" type="curve"/>
      <point x="317" y="244" type="line"/>
      <point x="302" y="251"/>
      <point x="285" y="256"/>
      <point x="265" y="259" type="curve"/>
      <point x="311" y="280"/>
      <point x="347" y="326"/>
      <point x="347" y="385" type="curve" smooth="yes"/>
      <point x="347" y="460"/>
      <point x="299" y="507"/>
      <point x="213" y="507" type="curve"/>
      <point x="108" y="506" type="line"/>
      <point x="108" y="0" type="line"/>
      <point x="137" y="-2"/>
      <point x="174" y="-2"/>
      <point x="200" y="-2" type="curve" smooth="yes"/>
      <point x="322" y="-2"/>
      <point x="389" y="38"/>
      <point x="389" y="130" type="curve" smooth="yes"/>
      <point x="389" y="166"/>
      <point x="376" y="197"/>
      <point x="351" y="221" type="curve"/>
      <point x="337" y="209" type="line"/>
      <point x="358" y="189"/>
      <point x="368" y="163"/>
      <point x="368" y="130" type="curve" smooth="yes"/>
      <point x="368" y="54"/>
      <point x="307" y="16"/>
      <point x="197" y="16" type="curve" smooth="yes"/>
      <point x="174" y="16"/>
      <point x="150" y="17"/>
      <point x="128" y="20" type="curve"/>
      <point x="128" y="243" type="line"/>
      <point x="241" y="244" type="line"/>
      <point x="265" y="242"/>
      <point x="285" y="237"/>
      <point x="302" y="230" type="curve"/>
      <point x="153" y="99" type="line"/>
      <point x="153" y="87" type="line"/>
      <point x="447" y="347" type="line"/>
      <point x="447" y="348"/>
      <point x="448" y="348"/>
      <point x="448" y="348" type="curve" smooth="yes"/>
      <point x="449" y="350"/>
      <point x="449" y="352"/>
    </contour>
    <contour>
      <point x="223" y="264" type="curve"/>
      <point x="128" y="265" type="line"/>
      <point x="128" y="487" type="line"/>
      <point x="216" y="487" type="line"/>
      <point x="284" y="487"/>
      <point x="325" y="444"/>
      <point x="325" y="384" type="curve" smooth="yes"/>
      <point x="325" y="329"/>
      <point x="283" y="276"/>
    </contour>
    <contour>
      <point x="444" y="-36" type="curve" smooth="yes"/>
      <point x="441" y="-36"/>
      <point x="438" y="-39"/>
      <point x="438" y="-42" type="curve" smooth="yes"/>
      <point x="438" y="-46"/>
      <point x="441" y="-48"/>
      <point x="444" y="-48" type="curve" smooth="yes"/>
      <point x="448" y="-48"/>
      <point x="451" y="-46"/>
      <point x="451" y="-42" type="curve" smooth="yes"/>
      <point x="451" y="-39"/>
      <point x="448" y="-36"/>
    </contour>
    <contour>
      <point x="444" y="13" type="curve" smooth="yes"/>
      <point x="441" y="13"/>
      <point x="438" y="10"/>
      <point x="438" y="7" type="curve" smooth="yes"/>
      <point x="438" y="4"/>
      <point x="441" y="1"/>
      <point x="444" y="1" type="curve" smooth="yes"/>
      <point x="448" y="1"/>
      <point x="451" y="4"/>
      <point x="451" y="7" type="curve" smooth="yes"/>
      <point x="451" y="10"/>
      <point x="448" y="13"/>
    </contour>
    <contour>
      <point x="444" y="62" type="curve" smooth="yes"/>
      <point x="441" y="62"/>
      <point x="438" y="59"/>
      <point x="438" y="56" type="curve" smooth="yes"/>
      <point x="438" y="53"/>
      <point x="441" y="50"/>
      <point x="444" y="50" type="curve" smooth="yes"/>
      <point x="448" y="50"/>
      <point x="451" y="53"/>
      <point x="451" y="56" type="curve" smooth="yes"/>
      <point x="451" y="59"/>
      <point x="448" y="62"/>
    </contour>
    <contour>
      <point x="444" y="111" type="curve" smooth="yes"/>
      <point x="441" y="111"/>
      <point x="438" y="108"/>
      <point x="438" y="105" type="curve" smooth="yes"/>
      <point x="438" y="102"/>
      <point x="441" y="99"/>
      <point x="444" y="99" type="curve" smooth="yes"/>
      <point x="448" y="99"/>
      <point x="451" y="102"/>
      <point x="451" y="105" type="curve" smooth="yes"/>
      <point x="451" y="108"/>
      <point x="448" y="111"/>
    </contour>
    <contour>
      <point x="444" y="160" type="curve" smooth="yes"/>
      <point x="441" y="160"/>
      <point x="438" y="158"/>
      <point x="438" y="154" type="curve" smooth="yes"/>
      <point x="438" y="151"/>
      <point x="441" y="148"/>
      <point x="444" y="148" type="curve" smooth="yes"/>
      <point x="448" y="148"/>
      <point x="451" y="151"/>
      <point x="451" y="154" type="curve" smooth="yes"/>
      <point x="451" y="158"/>
      <point x="448" y="160"/>
    </contour>
    <contour>
      <point x="444" y="209" type="curve" smooth="yes"/>
      <point x="441" y="209"/>
      <point x="438" y="207"/>
      <point x="438" y="203" type="curve" smooth="yes"/>
      <point x="438" y="200"/>
      <point x="441" y="197"/>
      <point x="444" y="197" type="curve" smooth="yes"/>
      <point x="448" y="197"/>
      <point x="451" y="200"/>
      <point x="451" y="203" type="curve" smooth="yes"/>
      <point x="451" y="207"/>
      <point x="448" y="209"/>
    </contour>
    <contour>
      <point x="444" y="258" type="curve" smooth="yes"/>
      <point x="441" y="258"/>
      <point x="438" y="256"/>
      <point x="438" y="252" type="curve" smooth="yes"/>
      <point x="438" y="249"/>
      <point x="441" y="246"/>
      <point x="444" y="246" type="curve" smooth="yes"/>
      <point x="448" y="246"/>
      <point x="451" y="249"/>
      <point x="451" y="252" type="curve" smooth="yes"/>
      <point x="451" y="256"/>
      <point x="448" y="258"/>
    </contour>
    <contour>
      <point x="444" y="308" type="curve" smooth="yes"/>
      <point x="441" y="308"/>
      <point x="438" y="305"/>
      <point x="438" y="301" type="curve" smooth="yes"/>
      <point x="438" y="298"/>
      <point x="441" y="295"/>
      <point x="444" y="295" type="curve" smooth="yes"/>
      <point x="448" y="295"/>
      <point x="451" y="298"/>
      <point x="451" y="301" type="curve" smooth="yes"/>
      <point x="451" y="305"/>
      <point x="448" y="308"/>
    </contour>
    <contour>
      <point x="395" y="-36" type="curve" smooth="yes"/>
      <point x="392" y="-36"/>
      <point x="389" y="-39"/>
      <point x="389" y="-42" type="curve" smooth="yes"/>
      <point x="389" y="-46"/>
      <point x="392" y="-48"/>
      <point x="395" y="-48" type="curve" smooth="yes"/>
      <point x="398" y="-48"/>
      <point x="401" y="-46"/>
      <point x="401" y="-42" type="curve" smooth="yes"/>
      <point x="401" y="-39"/>
      <point x="398" y="-36"/>
    </contour>
    <contour>
      <point x="395" y="13" type="curve" smooth="yes"/>
      <point x="392" y="13"/>
      <point x="389" y="10"/>
      <point x="389" y="7" type="curve" smooth="yes"/>
      <point x="389" y="4"/>
      <point x="392" y="1"/>
      <point x="395" y="1" type="curve" smooth="yes"/>
      <point x="398" y="1"/>
      <point x="401" y="4"/>
      <point x="401" y="7" type="curve" smooth="yes"/>
      <point x="401" y="10"/>
      <point x="398" y="13"/>
    </contour>
    <contour>
      <point x="395" y="258" type="curve" smooth="yes"/>
      <point x="392" y="258"/>
      <point x="389" y="256"/>
      <point x="389" y="252" type="curve" smooth="yes"/>
      <point x="389" y="249"/>
      <point x="392" y="246"/>
      <point x="395" y="246" type="curve" smooth="yes"/>
      <point x="398" y="246"/>
      <point x="401" y="249"/>
      <point x="401" y="252" type="curve" smooth="yes"/>
      <point x="401" y="256"/>
      <point x="398" y="258"/>
    </contour>
    <contour>
      <point x="346" y="-36" type="curve" smooth="yes"/>
      <point x="342" y="-36"/>
      <point x="340" y="-39"/>
      <point x="340" y="-42" type="curve" smooth="yes"/>
      <point x="340" y="-46"/>
      <point x="342" y="-48"/>
      <point x="346" y="-48" type="curve" smooth="yes"/>
      <point x="349" y="-48"/>
      <point x="352" y="-46"/>
      <point x="352" y="-42" type="curve" smooth="yes"/>
      <point x="352" y="-39"/>
      <point x="349" y="-36"/>
    </contour>
    <contour>
      <point x="296" y="-36" type="curve" smooth="yes"/>
      <point x="293" y="-36"/>
      <point x="290" y="-39"/>
      <point x="290" y="-42" type="curve" smooth="yes"/>
      <point x="290" y="-46"/>
      <point x="293" y="-48"/>
      <point x="296" y="-48" type="curve" smooth="yes"/>
      <point x="300" y="-48"/>
      <point x="303" y="-46"/>
      <point x="303" y="-42" type="curve" smooth="yes"/>
      <point x="303" y="-39"/>
      <point x="300" y="-36"/>
    </contour>
    <contour>
      <point x="296" y="111" type="curve" smooth="yes"/>
      <point x="293" y="111"/>
      <point x="290" y="108"/>
      <point x="290" y="105" type="curve" smooth="yes"/>
      <point x="290" y="102"/>
      <point x="293" y="99"/>
      <point x="296" y="99" type="curve" smooth="yes"/>
      <point x="300" y="99"/>
      <point x="303" y="102"/>
      <point x="303" y="105" type="curve" smooth="yes"/>
      <point x="303" y="108"/>
      <point x="300" y="111"/>
    </contour>
    <contour>
      <point x="296" y="160" type="curve" smooth="yes"/>
      <point x="293" y="160"/>
      <point x="290" y="158"/>
      <point x="290" y="154" type="curve" smooth="yes"/>
      <point x="290" y="151"/>
      <point x="293" y="148"/>
      <point x="296" y="148" type="curve" smooth="yes"/>
      <point x="300" y="148"/>
      <point x="303" y="151"/>
      <point x="303" y="154" type="curve" smooth="yes"/>
      <point x="303" y="158"/>
      <point x="300" y="160"/>
    </contour>
    <contour>
      <point x="247" y="-36" type="curve" smooth="yes"/>
      <point x="244" y="-36"/>
      <point x="241" y="-39"/>
      <point x="241" y="-42" type="curve" smooth="yes"/>
      <point x="241" y="-46"/>
      <point x="244" y="-48"/>
      <point x="247" y="-48" type="curve" smooth="yes"/>
      <point x="250" y="-48"/>
      <point x="253" y="-46"/>
      <point x="253" y="-42" type="curve" smooth="yes"/>
      <point x="253" y="-39"/>
      <point x="250" y="-36"/>
    </contour>
    <contour>
      <point x="247" y="111" type="curve" smooth="yes"/>
      <point x="244" y="111"/>
      <point x="241" y="108"/>
      <point x="241" y="105" type="curve" smooth="yes"/>
      <point x="241" y="102"/>
      <point x="244" y="99"/>
      <point x="247" y="99" type="curve" smooth="yes"/>
      <point x="250" y="99"/>
      <point x="253" y="102"/>
      <point x="253" y="105" type="curve" smooth="yes"/>
      <point x="253" y="108"/>
      <point x="250" y="111"/>
    </contour>
    <contour>
      <point x="247" y="62" type="curve" smooth="yes"/>
      <point x="244" y="62"/>
      <point x="241" y="59"/>
      <point x="241" y="56" type="curve" smooth="yes"/>
      <point x="241" y="53"/>
      <point x="244" y="50"/>
      <point x="247" y="50" type="curve" smooth="yes"/>
      <point x="250" y="50"/>
      <point x="253" y="53"/>
      <point x="253" y="56" type="curve" smooth="yes"/>
      <point x="253" y="59"/>
      <point x="250" y="62"/>
    </contour>
    <contour>
      <point x="198" y="-36" type="curve" smooth="yes"/>
      <point x="194" y="-36"/>
      <point x="192" y="-39"/>
      <point x="192" y="-42" type="curve" smooth="yes"/>
      <point x="192" y="-46"/>
      <point x="194" y="-48"/>
      <point x="198" y="-48" type="curve" smooth="yes"/>
      <point x="201" y="-48"/>
      <point x="204" y="-46"/>
      <point x="204" y="-42" type="curve" smooth="yes"/>
      <point x="204" y="-39"/>
      <point x="201" y="-36"/>
    </contour>
    <contour>
      <point x="198" y="62" type="curve" smooth="yes"/>
      <point x="194" y="62"/>
      <point x="192" y="59"/>
      <point x="192" y="56" type="curve" smooth="yes"/>
      <point x="192" y="53"/>
      <point x="194" y="50"/>
      <point x="198" y="50" type="curve" smooth="yes"/>
      <point x="201" y="50"/>
      <point x="204" y="53"/>
      <point x="204" y="56" type="curve" smooth="yes"/>
      <point x="204" y="59"/>
      <point x="201" y="62"/>
    </contour>
    <contour>
      <point x="148" y="-36" type="curve" smooth="yes"/>
      <point x="145" y="-36"/>
      <point x="142" y="-39"/>
      <point x="142" y="-42" type="curve" smooth="yes"/>
      <point x="142" y="-46"/>
      <point x="145" y="-48"/>
      <point x="148" y="-48" type="curve" smooth="yes"/>
      <point x="152" y="-48"/>
      <point x="155" y="-46"/>
      <point x="155" y="-42" type="curve" smooth="yes"/>
      <point x="155" y="-39"/>
      <point x="152" y="-36"/>
    </contour>
    <contour>
      <point x="99" y="-36" type="curve" smooth="yes"/>
      <point x="96" y="-36"/>
      <point x="93" y="-39"/>
      <point x="93" y="-42" type="curve" smooth="yes"/>
      <point x="93" y="-46"/>
      <point x="96" y="-48"/>
      <point x="99" y="-48" type="curve" smooth="yes"/>
      <point x="102" y="-48"/>
      <point x="105" y="-46"/>
      <point x="105" y="-42" type="curve" smooth="yes"/>
      <point x="105" y="-39"/>
      <point x="102" y="-36"/>
    </contour>
    <contour>
      <point x="50" y="-36" type="curve" smooth="yes"/>
      <point x="46" y="-36"/>
      <point x="44" y="-39"/>
      <point x="44" y="-42" type="curve" smooth="yes"/>
      <point x="44" y="-46"/>
      <point x="46" y="-48"/>
      <point x="50" y="-48" type="curve" smooth="yes"/>
      <point x="53" y="-48"/>
      <point x="56" y="-46"/>
      <point x="56" y="-42" type="curve" smooth="yes"/>
      <point x="56" y="-39"/>
      <point x="53" y="-36"/>
    </contour>
  </outline>
</glyph>
